%TF.GenerationSoftware,KiCad,Pcbnew,8.99.0-3406-g49ffbf5b50*%
%TF.CreationDate,2025-01-20T10:30:06+05:30*%
%TF.ProjectId,knob,6b6e6f62-2e6b-4696-9361-645f70636258,rev?*%
%TF.SameCoordinates,Original*%
%TF.FileFunction,Copper,L2,Bot*%
%TF.FilePolarity,Positive*%
%FSLAX46Y46*%
G04 Gerber Fmt 4.6, Leading zero omitted, Abs format (unit mm)*
G04 Created by KiCad (PCBNEW 8.99.0-3406-g49ffbf5b50) date 2025-01-20 10:30:06*
%MOMM*%
%LPD*%
G01*
G04 APERTURE LIST*
G04 Aperture macros list*
%AMRoundRect*
0 Rectangle with rounded corners*
0 $1 Rounding radius*
0 $2 $3 $4 $5 $6 $7 $8 $9 X,Y pos of 4 corners*
0 Add a 4 corners polygon primitive as box body*
4,1,4,$2,$3,$4,$5,$6,$7,$8,$9,$2,$3,0*
0 Add four circle primitives for the rounded corners*
1,1,$1+$1,$2,$3*
1,1,$1+$1,$4,$5*
1,1,$1+$1,$6,$7*
1,1,$1+$1,$8,$9*
0 Add four rect primitives between the rounded corners*
20,1,$1+$1,$2,$3,$4,$5,0*
20,1,$1+$1,$4,$5,$6,$7,0*
20,1,$1+$1,$6,$7,$8,$9,0*
20,1,$1+$1,$8,$9,$2,$3,0*%
%AMRotRect*
0 Rectangle, with rotation*
0 The origin of the aperture is its center*
0 $1 length*
0 $2 width*
0 $3 Rotation angle, in degrees counterclockwise*
0 Add horizontal line*
21,1,$1,$2,0,0,$3*%
G04 Aperture macros list end*
%TA.AperFunction,SMDPad,CuDef*%
%ADD10RoundRect,0.250000X-0.475000X0.250000X-0.475000X-0.250000X0.475000X-0.250000X0.475000X0.250000X0*%
%TD*%
%TA.AperFunction,SMDPad,CuDef*%
%ADD11RoundRect,0.250000X-0.350000X-0.450000X0.350000X-0.450000X0.350000X0.450000X-0.350000X0.450000X0*%
%TD*%
%TA.AperFunction,SMDPad,CuDef*%
%ADD12RoundRect,0.250000X0.450000X-0.350000X0.450000X0.350000X-0.450000X0.350000X-0.450000X-0.350000X0*%
%TD*%
%TA.AperFunction,ComponentPad*%
%ADD13RoundRect,0.250000X-0.725000X0.600000X-0.725000X-0.600000X0.725000X-0.600000X0.725000X0.600000X0*%
%TD*%
%TA.AperFunction,ComponentPad*%
%ADD14O,1.950000X1.700000*%
%TD*%
%TA.AperFunction,SMDPad,CuDef*%
%ADD15RoundRect,0.250000X0.350000X0.450000X-0.350000X0.450000X-0.350000X-0.450000X0.350000X-0.450000X0*%
%TD*%
%TA.AperFunction,SMDPad,CuDef*%
%ADD16RoundRect,0.250000X-0.450000X0.350000X-0.450000X-0.350000X0.450000X-0.350000X0.450000X0.350000X0*%
%TD*%
%TA.AperFunction,SMDPad,CuDef*%
%ADD17RotRect,1.950000X0.500000X45.000000*%
%TD*%
%TA.AperFunction,SMDPad,CuDef*%
%ADD18RoundRect,0.150000X-0.150000X0.825000X-0.150000X-0.825000X0.150000X-0.825000X0.150000X0.825000X0*%
%TD*%
%TA.AperFunction,SMDPad,CuDef*%
%ADD19RoundRect,0.150000X0.150000X0.425000X-0.150000X0.425000X-0.150000X-0.425000X0.150000X-0.425000X0*%
%TD*%
%TA.AperFunction,SMDPad,CuDef*%
%ADD20RoundRect,0.075000X0.075000X0.500000X-0.075000X0.500000X-0.075000X-0.500000X0.075000X-0.500000X0*%
%TD*%
%TA.AperFunction,SMDPad,CuDef*%
%ADD21RoundRect,0.250000X0.840000X0.750000X-0.840000X0.750000X-0.840000X-0.750000X0.840000X-0.750000X0*%
%TD*%
%TA.AperFunction,SMDPad,CuDef*%
%ADD22RoundRect,0.250000X0.475000X-0.250000X0.475000X0.250000X-0.475000X0.250000X-0.475000X-0.250000X0*%
%TD*%
%TA.AperFunction,SMDPad,CuDef*%
%ADD23RoundRect,0.022860X-0.383540X-0.053340X0.383540X-0.053340X0.383540X0.053340X-0.383540X0.053340X0*%
%TD*%
%TA.AperFunction,SMDPad,CuDef*%
%ADD24RoundRect,0.022860X-0.427140X-0.053340X0.427140X-0.053340X0.427140X0.053340X-0.427140X0.053340X0*%
%TD*%
%TA.AperFunction,SMDPad,CuDef*%
%ADD25RoundRect,0.021000X-0.385400X-0.049000X0.385400X-0.049000X0.385400X0.049000X-0.385400X0.049000X0*%
%TD*%
%TA.AperFunction,SMDPad,CuDef*%
%ADD26RoundRect,0.022860X-0.053340X-0.383540X0.053340X-0.383540X0.053340X0.383540X-0.053340X0.383540X0*%
%TD*%
%TA.AperFunction,SMDPad,CuDef*%
%ADD27RoundRect,0.022860X-0.053340X-0.333540X0.053340X-0.333540X0.053340X0.333540X-0.053340X0.333540X0*%
%TD*%
%TA.AperFunction,SMDPad,CuDef*%
%ADD28RoundRect,0.375000X0.375000X-0.625000X0.375000X0.625000X-0.375000X0.625000X-0.375000X-0.625000X0*%
%TD*%
%TA.AperFunction,SMDPad,CuDef*%
%ADD29RoundRect,0.500000X1.400000X-0.500000X1.400000X0.500000X-1.400000X0.500000X-1.400000X-0.500000X0*%
%TD*%
%TA.AperFunction,ViaPad*%
%ADD30C,0.660400*%
%TD*%
%TA.AperFunction,Conductor*%
%ADD31C,0.406400*%
%TD*%
%TA.AperFunction,Conductor*%
%ADD32C,0.203200*%
%TD*%
%TA.AperFunction,Conductor*%
%ADD33C,0.190000*%
%TD*%
%TA.AperFunction,Conductor*%
%ADD34C,0.200000*%
%TD*%
G04 APERTURE END LIST*
D10*
%TO.P,C6,1,1*%
%TO.N,GND*%
X105630000Y-111940000D03*
%TO.P,C6,2,2*%
%TO.N,5V*%
X105630000Y-113840000D03*
%TD*%
D11*
%TO.P,R3,1*%
%TO.N,UH*%
X101700000Y-95920000D03*
%TO.P,R3,2*%
%TO.N,GND*%
X103700000Y-95920000D03*
%TD*%
D12*
%TO.P,R1,1,1*%
%TO.N,Net-(J1-CC2)*%
X96790000Y-113900000D03*
%TO.P,R1,2,2*%
%TO.N,GND*%
X96790000Y-111900000D03*
%TD*%
D10*
%TO.P,C3,1,1*%
%TO.N,GND*%
X122510000Y-92370000D03*
%TO.P,C3,2,2*%
%TO.N,5V*%
X122510000Y-94270000D03*
%TD*%
D13*
%TO.P,J3,1,Pin_1*%
%TO.N,W*%
X122352500Y-100280000D03*
D14*
%TO.P,J3,2,Pin_2*%
%TO.N,V*%
X122352500Y-102780000D03*
%TO.P,J3,3,Pin_3*%
%TO.N,U*%
X122352500Y-105280000D03*
%TD*%
D15*
%TO.P,R5,1*%
%TO.N,VH*%
X99910000Y-95920000D03*
%TO.P,R5,2*%
%TO.N,GND*%
X97910000Y-95920000D03*
%TD*%
D16*
%TO.P,R10,1,1*%
%TO.N,Net-(Q1B-G2)*%
X85950000Y-103780000D03*
%TO.P,R10,2,2*%
%TO.N,RTS*%
X85950000Y-105780000D03*
%TD*%
D17*
%TO.P,J2,1,Pin_1*%
%TO.N,3V3*%
X96298428Y-108378427D03*
%TO.P,J2,2,Pin_2*%
%TO.N,GND*%
X96970179Y-106292462D03*
%TO.P,J2,3,Pin_3*%
%TO.N,DIN*%
X94884214Y-106964213D03*
%TO.P,J2,4,Pin_4*%
%TO.N,CLK*%
X95555966Y-104878248D03*
%TO.P,J2,5,Pin_5*%
%TO.N,CS*%
X93470000Y-105550000D03*
%TO.P,J2,6,Pin_6*%
%TO.N,DC*%
X94141752Y-103464035D03*
%TO.P,J2,7,Pin_7*%
%TO.N,RST*%
X92055787Y-104135786D03*
%TO.P,J2,8,Pin_8*%
%TO.N,BL*%
X92727538Y-102049821D03*
%TD*%
D18*
%TO.P,Q1,1,S1*%
%TO.N,ESP_EN*%
X77300000Y-102435000D03*
%TO.P,Q1,2,G1*%
%TO.N,Net-(Q1A-G1)*%
X78570000Y-102435000D03*
%TO.P,Q1,3,S2*%
%TO.N,ESP_BOOT*%
X79840000Y-102435000D03*
%TO.P,Q1,4,G2*%
%TO.N,Net-(Q1B-G2)*%
X81110000Y-102435000D03*
%TO.P,Q1,5,D2*%
%TO.N,DTR*%
X81110000Y-107385000D03*
%TO.P,Q1,6,D2*%
X79840000Y-107385000D03*
%TO.P,Q1,7,D1*%
%TO.N,RTS*%
X78570000Y-107385000D03*
%TO.P,Q1,8,D1*%
X77300000Y-107385000D03*
%TD*%
D19*
%TO.P,J1,A1,GND*%
%TO.N,GND*%
X103200000Y-117410000D03*
%TO.P,J1,A4,VBUS*%
%TO.N,5V*%
X102400000Y-117410000D03*
D20*
%TO.P,J1,A5,CC1*%
%TO.N,Net-(J1-CC1)*%
X101250000Y-117410000D03*
%TO.P,J1,A6,D+*%
%TO.N,USB_D+*%
X100250000Y-117410000D03*
%TO.P,J1,A7,D-*%
%TO.N,USB_D-*%
X99750000Y-117410000D03*
%TO.P,J1,A8,SBU1*%
%TO.N,unconnected-(J1-SBU1-PadA8)*%
X98750000Y-117410000D03*
D19*
%TO.P,J1,A9,VBUS*%
%TO.N,5V*%
X97600000Y-117410000D03*
%TO.P,J1,A12,GND*%
%TO.N,GND*%
X96800000Y-117410000D03*
%TO.P,J1,B1,GND*%
X96800000Y-117410000D03*
%TO.P,J1,B4,VBUS*%
%TO.N,5V*%
X97600000Y-117410000D03*
D20*
%TO.P,J1,B5,CC2*%
%TO.N,Net-(J1-CC2)*%
X98250000Y-117410000D03*
%TO.P,J1,B6,D+*%
%TO.N,USB_D+*%
X99250000Y-117410000D03*
%TO.P,J1,B7,D-*%
%TO.N,USB_D-*%
X100750000Y-117410000D03*
%TO.P,J1,B8,SBU2*%
%TO.N,unconnected-(J1-SBU2-PadB8)*%
X101750000Y-117410000D03*
D19*
%TO.P,J1,B9,VBUS*%
%TO.N,5V*%
X102400000Y-117410000D03*
%TO.P,J1,B12,GND*%
%TO.N,GND*%
X103200000Y-117410000D03*
D21*
%TO.P,J1,S1,SHIELD*%
X105110000Y-121915000D03*
X105110000Y-117985000D03*
X94890000Y-121915000D03*
X94890000Y-117985000D03*
%TD*%
D11*
%TO.P,R4,1*%
%TO.N,UL*%
X109530000Y-86700000D03*
%TO.P,R4,2*%
%TO.N,GND*%
X111530000Y-86700000D03*
%TD*%
D16*
%TO.P,R9,1,1*%
%TO.N,Net-(Q1A-G1)*%
X83510000Y-103720000D03*
%TO.P,R9,2,2*%
%TO.N,DTR*%
X83510000Y-105720000D03*
%TD*%
D11*
%TO.P,R6,1*%
%TO.N,VL*%
X111120000Y-81650000D03*
%TO.P,R6,2*%
%TO.N,GND*%
X113120000Y-81650000D03*
%TD*%
D22*
%TO.P,C7,1,1*%
%TO.N,GND*%
X115510000Y-113360000D03*
%TO.P,C7,2,2*%
%TO.N,3V3*%
X115510000Y-111460000D03*
%TD*%
D10*
%TO.P,C4,1,1*%
%TO.N,GND*%
X120530000Y-92380000D03*
%TO.P,C4,2,2*%
%TO.N,5V*%
X120530000Y-94280000D03*
%TD*%
%TO.P,C2,1,1*%
%TO.N,Net-(U3-VCP)*%
X112900000Y-94860000D03*
%TO.P,C2,2,2*%
%TO.N,5V*%
X112900000Y-96760000D03*
%TD*%
D22*
%TO.P,C11,1,1*%
%TO.N,GND*%
X99730000Y-111890000D03*
%TO.P,C11,2,2*%
%TO.N,3V3*%
X99730000Y-109990000D03*
%TD*%
D12*
%TO.P,R2,1,1*%
%TO.N,Net-(J1-CC1)*%
X103190000Y-113900000D03*
%TO.P,R2,2,2*%
%TO.N,GND*%
X103190000Y-111900000D03*
%TD*%
D15*
%TO.P,R7,1*%
%TO.N,WH*%
X111510000Y-90880000D03*
%TO.P,R7,2*%
%TO.N,GND*%
X109510000Y-90880000D03*
%TD*%
D23*
%TO.P,U3,1,W*%
%TO.N,W*%
X114900000Y-94730000D03*
D24*
%TO.P,U3,2,VCP*%
%TO.N,Net-(U3-VCP)*%
X114840000Y-94330000D03*
D23*
%TO.P,U3,3,UH*%
%TO.N,UH*%
X114900000Y-93930000D03*
D25*
%TO.P,U3,4,VH*%
%TO.N,VH*%
X114900000Y-93530000D03*
D23*
%TO.P,U3,5,WH*%
%TO.N,WH*%
X114900000Y-93130000D03*
D26*
%TO.P,U3,6,UL*%
%TO.N,UL*%
X115550000Y-92480000D03*
%TO.P,U3,7,WL*%
%TO.N,WL*%
X115950000Y-92480000D03*
%TO.P,U3,8,GND*%
%TO.N,GND*%
X116350000Y-92480000D03*
%TO.P,U3,9,GND*%
X116750000Y-92480000D03*
%TO.P,U3,10,VL*%
%TO.N,VL*%
X117150000Y-92480000D03*
D23*
%TO.P,U3,11,VIO/~{STDBY}*%
%TO.N,VIO*%
X117800000Y-93130000D03*
%TO.P,U3,12,DIAG*%
%TO.N,TMC_DIAG*%
X117800000Y-93530000D03*
%TO.P,U3,13,1.8VOUT*%
%TO.N,unconnected-(U3-1.8VOUT-Pad13)*%
X117800000Y-93930000D03*
%TO.P,U3,14,GND*%
%TO.N,GND*%
X117800000Y-94330000D03*
%TO.P,U3,15,U*%
%TO.N,U*%
X117800000Y-94730000D03*
D26*
%TO.P,U3,16,BRUV*%
%TO.N,unconnected-(U3-BRUV-Pad16)*%
X117150000Y-95380000D03*
%TO.P,U3,17,V*%
%TO.N,V*%
X116750000Y-95380000D03*
%TO.P,U3,18,VS*%
%TO.N,5V*%
X116350000Y-95380000D03*
%TO.P,U3,19,NC*%
%TO.N,unconnected-(U3-NC-Pad19)*%
X115950000Y-95380000D03*
D27*
%TO.P,U3,20,BRW*%
%TO.N,unconnected-(U3-BRW-Pad20)*%
X115550000Y-95400000D03*
%TD*%
D28*
%TO.P,U6,1,ADJ*%
%TO.N,GND*%
X112882500Y-115120000D03*
%TO.P,U6,2,VO*%
%TO.N,3V3*%
X110582500Y-115120000D03*
D29*
X110582500Y-108820000D03*
D28*
%TO.P,U6,3,VI*%
%TO.N,5V*%
X108282500Y-115120000D03*
%TD*%
D11*
%TO.P,R8,1*%
%TO.N,WL*%
X110760000Y-84390000D03*
%TO.P,R8,2*%
%TO.N,GND*%
X112760000Y-84390000D03*
%TD*%
D30*
%TO.N,3V3*%
X112100000Y-105650000D03*
X100590000Y-105020000D03*
X87710000Y-120680000D03*
%TO.N,UH*%
X101700000Y-93120000D03*
%TO.N,UL*%
X94470000Y-87840000D03*
%TO.N,VH*%
X100561730Y-92976823D03*
%TO.N,VL*%
X94670000Y-83780000D03*
%TO.N,WH*%
X99560000Y-92520000D03*
%TO.N,WL*%
X94465002Y-85835000D03*
%TO.N,VIO*%
X105355000Y-89035000D03*
X117340000Y-88460000D03*
X109740000Y-88300000D03*
%TO.N,SDA*%
X94450000Y-90260000D03*
X96010000Y-99365000D03*
%TO.N,CS*%
X91354800Y-92080000D03*
%TO.N,SCL*%
X96060000Y-100635000D03*
X94150000Y-91360000D03*
X89393082Y-91264611D03*
X89090000Y-87960000D03*
%TO.N,TX*%
X92530000Y-112500000D03*
X92730000Y-108990000D03*
X92300000Y-95570000D03*
X94270000Y-92590000D03*
%TO.N,RX*%
X93440000Y-109480000D03*
X96640000Y-95790000D03*
X93360000Y-113000000D03*
X96940000Y-90270000D03*
%TO.N,TMC_DIAG*%
X118310000Y-91190000D03*
%TO.N,W*%
X115980000Y-94150000D03*
%TO.N,USB_D-*%
X100490000Y-115920000D03*
%TO.N,USB_D+*%
X99230000Y-115780000D03*
%TO.N,5V*%
X116340000Y-97560000D03*
X120530000Y-94280000D03*
%TO.N,RST*%
X93550000Y-95350000D03*
%TO.N,DTR*%
X83360000Y-113075000D03*
%TO.N,RTS*%
X83360000Y-114345000D03*
%TO.N,ESP_EN*%
X105230000Y-81040000D03*
X85420000Y-99510000D03*
X77300000Y-100050000D03*
%TO.N,ESP_BOOT*%
X91160000Y-83520000D03*
%TO.N,MPU_INT*%
X82420000Y-94520000D03*
X88510000Y-84430000D03*
%TO.N,DC*%
X91758000Y-92930000D03*
%TO.N,BL*%
X94520000Y-95360000D03*
%TO.N,GND*%
X80890000Y-91220000D03*
X101650000Y-85329998D03*
X112760000Y-84390000D03*
X92949431Y-93937093D03*
X111530000Y-86700000D03*
X106970000Y-96020000D03*
X87650002Y-96210000D03*
X113120000Y-81650000D03*
X100000000Y-86979998D03*
X99999998Y-85330000D03*
X101650000Y-87000000D03*
X92150000Y-117930000D03*
X98370000Y-88640000D03*
X100000002Y-88630000D03*
X101620000Y-88640000D03*
X81630000Y-95390000D03*
X98349998Y-85330000D03*
X98350000Y-86930000D03*
%TO.N,DIN*%
X90450000Y-88680000D03*
%TO.N,CLK*%
X90951600Y-89530000D03*
%TD*%
D31*
%TO.N,3V3*%
X107070000Y-123970000D02*
X91000000Y-123970000D01*
X117240000Y-112220000D02*
X117240000Y-113800000D01*
X110582500Y-107167500D02*
X112100000Y-105650000D01*
X117240000Y-113800000D02*
X107070000Y-123970000D01*
X110582500Y-108820000D02*
X110582500Y-115120000D01*
X110582500Y-108820000D02*
X113232500Y-111470000D01*
X97231573Y-108378427D02*
X97698427Y-108378427D01*
X116490000Y-111470000D02*
X117240000Y-112220000D01*
X91000000Y-123970000D02*
X87710000Y-120680000D01*
X97231573Y-108378427D02*
X100590000Y-105020000D01*
X97698427Y-108378427D02*
X99350000Y-110030000D01*
X96298428Y-108378427D02*
X97231573Y-108378427D01*
X110582500Y-108820000D02*
X110582500Y-107167500D01*
X113232500Y-111470000D02*
X116490000Y-111470000D01*
D32*
%TO.N,Net-(U3-VCP)*%
X113413400Y-94346600D02*
X114470000Y-94346600D01*
X112900000Y-94860000D02*
X113413400Y-94346600D01*
%TO.N,Net-(J1-CC2)*%
X98250000Y-117410000D02*
X98250000Y-115360000D01*
X98250000Y-115360000D02*
X96790000Y-113900000D01*
%TO.N,Net-(J1-CC1)*%
X101250000Y-115840000D02*
X103190000Y-113900000D01*
X101250000Y-117410000D02*
X101250000Y-115840000D01*
D33*
%TO.N,UH*%
X113598999Y-93471957D02*
X113599000Y-92992000D01*
X114866000Y-93896000D02*
X114382712Y-93896000D01*
X101980000Y-93030000D02*
X101790000Y-93030000D01*
X101700000Y-95920000D02*
X101700000Y-93120000D01*
X102018000Y-92992000D02*
X101980000Y-93030000D01*
X114900000Y-93930000D02*
X114866000Y-93896000D01*
X114379913Y-93893201D02*
X114020243Y-93893201D01*
X114020243Y-93893201D02*
X113598999Y-93471957D01*
X113599000Y-92992000D02*
X102018000Y-92992000D01*
X114382712Y-93896000D02*
X114379913Y-93893201D01*
X101790000Y-93030000D02*
X101700000Y-93120000D01*
%TO.N,UL*%
X95118802Y-86105813D02*
X94880000Y-86344615D01*
X94430000Y-87800000D02*
X94470000Y-87840000D01*
X94880000Y-85325385D02*
X95118802Y-85564187D01*
X94430000Y-87690000D02*
X94430000Y-87800000D01*
X95925385Y-84280000D02*
X94880000Y-85325385D01*
X107350000Y-84280000D02*
X95925385Y-84280000D01*
X94880000Y-86344615D02*
X94880000Y-87240000D01*
X95118802Y-85564187D02*
X95118802Y-86105813D01*
X94880000Y-87240000D02*
X94430000Y-87690000D01*
X115550000Y-92480000D02*
X107350000Y-84280000D01*
%TO.N,VH*%
X113990000Y-93310000D02*
X113990000Y-92772958D01*
X114182200Y-93502200D02*
X113990000Y-93310000D01*
X114719242Y-93502200D02*
X114182200Y-93502200D01*
X102285613Y-92601000D02*
X102060813Y-92376200D01*
X100590000Y-92680000D02*
X100590000Y-92948553D01*
X100669000Y-92601000D02*
X100590000Y-92680000D01*
X113818042Y-92601000D02*
X102285613Y-92601000D01*
X101294387Y-92601000D02*
X100669000Y-92601000D01*
X101519187Y-92376200D02*
X101294387Y-92601000D01*
X100590000Y-92948553D02*
X100561730Y-92976823D01*
X102060813Y-92376200D02*
X101519187Y-92376200D01*
X99910000Y-95920000D02*
X99910000Y-93628553D01*
X99910000Y-93628553D02*
X100561730Y-92976823D01*
X113990000Y-92772958D02*
X113818042Y-92601000D01*
D32*
%TO.N,VL*%
X117150000Y-89311710D02*
X116603400Y-88765110D01*
X114060000Y-83220000D02*
X110160000Y-83220000D01*
D33*
X111120000Y-81650000D02*
X111120000Y-82260000D01*
D32*
X116603400Y-85763400D02*
X114060000Y-83220000D01*
X117150000Y-92480000D02*
X117150000Y-89311710D01*
X116603400Y-88765110D02*
X116603400Y-85763400D01*
X95230000Y-83220000D02*
X94670000Y-83780000D01*
X110160000Y-83220000D02*
X95230000Y-83220000D01*
D33*
X111120000Y-82260000D02*
X110160000Y-83220000D01*
%TO.N,WH*%
X99560000Y-92520000D02*
X99560000Y-92260000D01*
X99560000Y-92260000D02*
X99610000Y-92210000D01*
X102222356Y-91986200D02*
X102446157Y-92210000D01*
X102446157Y-92210000D02*
X111960000Y-92210000D01*
X114900000Y-93130000D02*
X113980000Y-92210000D01*
X99610000Y-92210000D02*
X101133844Y-92210000D01*
X113980000Y-92210000D02*
X111960000Y-92210000D01*
X111510000Y-91760000D02*
X111960000Y-92210000D01*
X101133844Y-92210000D02*
X101357643Y-91986200D01*
X101357643Y-91986200D02*
X102222356Y-91986200D01*
X111510000Y-90880000D02*
X111510000Y-91760000D01*
D32*
%TO.N,WL*%
X115950000Y-92480000D02*
X115950000Y-89480000D01*
X94465002Y-85731202D02*
X94465002Y-85835000D01*
X94385000Y-85208947D02*
X94385000Y-85651200D01*
X110461108Y-83991108D02*
X107958892Y-83991108D01*
X115950000Y-89480000D02*
X110461108Y-83991108D01*
X95893947Y-83700000D02*
X94385000Y-85208947D01*
X107667784Y-83700000D02*
X95893947Y-83700000D01*
X94440002Y-85810000D02*
X94400000Y-85810000D01*
X94465002Y-85835000D02*
X94440002Y-85810000D01*
X107958892Y-83991108D02*
X107667784Y-83700000D01*
X94385000Y-85651200D02*
X94465002Y-85731202D01*
D33*
%TO.N,VIO*%
X117629575Y-92959575D02*
X117629575Y-88749575D01*
X105950000Y-88490000D02*
X105405000Y-89035000D01*
X109550000Y-88490000D02*
X105950000Y-88490000D01*
X117629575Y-88749575D02*
X117340000Y-88460000D01*
X117800000Y-93130000D02*
X117629575Y-92959575D01*
X105405000Y-89035000D02*
X105355000Y-89035000D01*
X109740000Y-88300000D02*
X109550000Y-88490000D01*
D32*
%TO.N,SDA*%
X94450000Y-90260000D02*
X95860000Y-91670000D01*
X95860000Y-91670000D02*
X95860000Y-99215000D01*
X95860000Y-99215000D02*
X96010000Y-99365000D01*
%TO.N,CS*%
X90126400Y-102034020D02*
X91040000Y-101120420D01*
X91040000Y-92360000D02*
X91320000Y-92080000D01*
X91210420Y-105880000D02*
X90126400Y-104795980D01*
X93140000Y-105880000D02*
X91210420Y-105880000D01*
X93470000Y-105550000D02*
X93140000Y-105880000D01*
X91040000Y-101120420D02*
X91040000Y-92360000D01*
X91320000Y-92080000D02*
X91354800Y-92080000D01*
X90126400Y-104795980D02*
X90126400Y-102034020D01*
%TO.N,SCL*%
X95210000Y-100030000D02*
X95210000Y-92420000D01*
D33*
X89090000Y-87960000D02*
X89393082Y-88263082D01*
D32*
X95210000Y-92420000D02*
X94150000Y-91360000D01*
D33*
X89393082Y-88263082D02*
X89393082Y-91264611D01*
D32*
X95815000Y-100635000D02*
X95210000Y-100030000D01*
X96060000Y-100635000D02*
X95815000Y-100635000D01*
D33*
%TO.N,TX*%
X92530000Y-112500000D02*
X92730000Y-112300000D01*
D34*
X94470000Y-93510000D02*
X94470000Y-92790000D01*
D33*
X92730000Y-112300000D02*
X92730000Y-108990000D01*
D34*
X92300000Y-95570000D02*
X92410000Y-95570000D01*
X94470000Y-92790000D02*
X94270000Y-92590000D01*
X92410000Y-95570000D02*
X94470000Y-93510000D01*
D33*
%TO.N,RX*%
X96640000Y-95790000D02*
X96900000Y-95530000D01*
X96900000Y-90310000D02*
X96940000Y-90270000D01*
X93440000Y-112920000D02*
X93440000Y-109480000D01*
X93360000Y-113000000D02*
X93440000Y-112920000D01*
X96900000Y-95530000D02*
X96900000Y-90310000D01*
%TO.N,TMC_DIAG*%
X118502400Y-93316050D02*
X118502400Y-91382400D01*
X118502400Y-91382400D02*
X118310000Y-91190000D01*
X117800000Y-93530000D02*
X118288450Y-93530000D01*
X118288450Y-93530000D02*
X118502400Y-93316050D01*
D32*
%TO.N,W*%
X115980000Y-94358475D02*
X115608475Y-94730000D01*
X115608475Y-94730000D02*
X114900000Y-94730000D01*
X115980000Y-94150000D02*
X115980000Y-94358475D01*
%TO.N,V*%
X122352500Y-102382500D02*
X121402600Y-101432600D01*
X116845800Y-96886722D02*
X116845800Y-96210491D01*
X116780000Y-96144691D02*
X116780000Y-95907784D01*
X122352500Y-102780000D02*
X122352500Y-102382500D01*
X116780000Y-95907784D02*
X116771200Y-95898984D01*
X116845800Y-96210491D02*
X116780000Y-96144691D01*
X116771200Y-95898984D02*
X116771200Y-95401200D01*
X116754200Y-95384200D02*
X116754200Y-95380000D01*
X121391678Y-101432600D02*
X116845800Y-96886722D01*
X116771200Y-95401200D02*
X116754200Y-95384200D01*
X121402600Y-101432600D02*
X121391678Y-101432600D01*
%TO.N,U*%
X121391678Y-99127400D02*
X121334539Y-99184539D01*
X123610000Y-104022500D02*
X123610000Y-103277523D01*
X123610000Y-101135922D02*
X123630100Y-101115822D01*
X117800000Y-95650000D02*
X117800000Y-94730000D01*
X122352500Y-105280000D02*
X123610000Y-104022500D01*
X123313322Y-99127400D02*
X121391678Y-99127400D01*
X121334539Y-99184539D02*
X117800000Y-95650000D01*
X123610000Y-102282477D02*
X123610000Y-101135922D01*
X123610000Y-103277523D02*
X123630100Y-103257423D01*
X123630100Y-102302577D02*
X123610000Y-102282477D01*
X123630100Y-103257423D02*
X123630100Y-102302577D01*
X123630100Y-101115822D02*
X123630100Y-99444178D01*
X123630100Y-99444178D02*
X123313322Y-99127400D01*
%TO.N,USB_D-*%
X99750000Y-117410000D02*
X99750000Y-116900000D01*
X100483486Y-116532400D02*
X100750000Y-116798914D01*
X100483486Y-116532400D02*
X100483486Y-115926514D01*
X99797400Y-116852600D02*
X99797400Y-116751514D01*
X100016514Y-116532400D02*
X100483486Y-116532400D01*
X100483486Y-115926514D02*
X100490000Y-115920000D01*
X99797400Y-116751514D02*
X100016514Y-116532400D01*
X100750000Y-116798914D02*
X100750000Y-117410000D01*
X99750000Y-116900000D02*
X99797400Y-116852600D01*
%TO.N,USB_D+*%
X99297400Y-118057400D02*
X99297400Y-118068486D01*
X99250000Y-117410000D02*
X99250000Y-118010000D01*
X99250000Y-115800000D02*
X99230000Y-115780000D01*
X99516514Y-118287600D02*
X99983486Y-118287600D01*
X99250000Y-117410000D02*
X99250000Y-115800000D01*
X99250000Y-118010000D02*
X99297400Y-118057400D01*
X100202600Y-117457400D02*
X100250000Y-117410000D01*
X100202600Y-118068486D02*
X100202600Y-117457400D01*
X99983486Y-118287600D02*
X100202600Y-118068486D01*
X99297400Y-118068486D02*
X99516514Y-118287600D01*
%TO.N,5V*%
X116350000Y-95380000D02*
X116350000Y-96410000D01*
D31*
X103060000Y-115720000D02*
X107682500Y-115720000D01*
X102400000Y-116380000D02*
X103060000Y-115720000D01*
X116340000Y-96420000D02*
X116340000Y-97560000D01*
X102400000Y-117410000D02*
X102400000Y-116380000D01*
X97695800Y-118110570D02*
X97695800Y-117505800D01*
X97695800Y-117505800D02*
X97600000Y-117410000D01*
D32*
X116350000Y-96410000D02*
X116340000Y-96420000D01*
D31*
X116340000Y-96790000D02*
X116340000Y-97560000D01*
X108278300Y-106181700D02*
X116340000Y-98120000D01*
X107002500Y-113840000D02*
X108282500Y-115120000D01*
X112900000Y-96760000D02*
X116310000Y-96760000D01*
X102400000Y-117410000D02*
X102495800Y-117505800D01*
X108282500Y-115120000D02*
X108278300Y-115115800D01*
X99055230Y-119470000D02*
X97695800Y-118110570D01*
X108278300Y-115115800D02*
X108278300Y-106181700D01*
X116310000Y-96760000D02*
X116340000Y-96790000D01*
X122500000Y-94280000D02*
X122510000Y-94270000D01*
X107682500Y-115720000D02*
X108282500Y-115120000D01*
X101094514Y-119470000D02*
X99100000Y-119470000D01*
X116340000Y-98120000D02*
X116340000Y-97560000D01*
X102495800Y-117505800D02*
X102495800Y-118068714D01*
X105630000Y-113840000D02*
X107002500Y-113840000D01*
X120530000Y-94280000D02*
X122500000Y-94280000D01*
X102495800Y-118068714D02*
X101094514Y-119470000D01*
D32*
%TO.N,RST*%
X93550000Y-99780000D02*
X93550000Y-95350000D01*
X92055787Y-104135786D02*
X91270000Y-103349999D01*
X91270000Y-103349999D02*
X91270000Y-102060000D01*
X91270000Y-102060000D02*
X93550000Y-99780000D01*
%TO.N,DTR*%
X81110000Y-107385000D02*
X81845000Y-107385000D01*
X81845000Y-107385000D02*
X83510000Y-105720000D01*
X79840000Y-111130000D02*
X81785000Y-113075000D01*
X81785000Y-113075000D02*
X83360000Y-113075000D01*
X79840000Y-107385000D02*
X79840000Y-111130000D01*
X81110000Y-107385000D02*
X79840000Y-107385000D01*
%TO.N,RTS*%
X78570000Y-111900000D02*
X78570000Y-107385000D01*
X77300000Y-107385000D02*
X78570000Y-107385000D01*
X83360000Y-114345000D02*
X85435000Y-114345000D01*
X81015000Y-114345000D02*
X78570000Y-111900000D01*
X86740000Y-106570000D02*
X85950000Y-105780000D01*
X83360000Y-114345000D02*
X81015000Y-114345000D01*
X85435000Y-114345000D02*
X86740000Y-113040000D01*
X86740000Y-113040000D02*
X86740000Y-106570000D01*
%TO.N,ESP_EN*%
X105220000Y-81040000D02*
X103530000Y-82730000D01*
X93290000Y-82730000D02*
X85420000Y-90600000D01*
X103530000Y-82730000D02*
X93290000Y-82730000D01*
X85420000Y-90600000D02*
X85420000Y-99510000D01*
X77300000Y-100050000D02*
X77300000Y-102435000D01*
%TO.N,ESP_BOOT*%
X79840000Y-102435000D02*
X79840000Y-102085770D01*
D33*
X83155385Y-98770385D02*
X84560000Y-97365770D01*
D32*
X79840000Y-102085770D02*
X83155385Y-98770385D01*
D33*
X84560000Y-97365770D02*
X84560000Y-90120000D01*
D32*
X90930000Y-83520000D02*
X91160000Y-83520000D01*
D33*
X84560000Y-90120000D02*
X91160000Y-83520000D01*
%TO.N,MPU_INT*%
X88490000Y-84450000D02*
X88510000Y-84430000D01*
X87490000Y-84450000D02*
X88490000Y-84450000D01*
X82420000Y-94520000D02*
X82420000Y-89520000D01*
X82420000Y-89520000D02*
X87490000Y-84450000D01*
D32*
%TO.N,DC*%
X90529600Y-102228774D02*
X91659600Y-101098774D01*
X94141752Y-103817589D02*
X92539341Y-105420000D01*
X94141752Y-103464035D02*
X94141752Y-103817589D01*
X92539341Y-105420000D02*
X91320630Y-105420000D01*
X91659600Y-101098774D02*
X91659600Y-92930000D01*
X91320630Y-105420000D02*
X90529600Y-104628970D01*
X91659600Y-92930000D02*
X91758000Y-92930000D01*
X90529600Y-104628970D02*
X90529600Y-102228774D01*
%TO.N,BL*%
X94790000Y-95470000D02*
X94680000Y-95360000D01*
X92727538Y-102049821D02*
X94790000Y-99987359D01*
X94680000Y-95360000D02*
X94520000Y-95360000D01*
X94790000Y-99987359D02*
X94790000Y-95470000D01*
D33*
%TO.N,GND*%
X117097600Y-94116050D02*
X117311550Y-94330000D01*
X116640000Y-92480000D02*
X116640000Y-93500000D01*
X116640000Y-93500000D02*
X117097600Y-93957600D01*
X117097600Y-93957600D02*
X117097600Y-94116050D01*
D32*
X104535000Y-117410000D02*
X105110000Y-117985000D01*
D31*
X103230000Y-111940000D02*
X103190000Y-111900000D01*
D33*
X117311550Y-94330000D02*
X117800000Y-94330000D01*
D32*
X103200000Y-117410000D02*
X104535000Y-117410000D01*
D31*
X115230000Y-113640000D02*
X115230000Y-113370000D01*
D33*
X116640000Y-92480000D02*
X116750000Y-92480000D01*
X116350000Y-92480000D02*
X116640000Y-92480000D01*
X117800000Y-94330000D02*
X118580000Y-94330000D01*
X118580000Y-94330000D02*
X120530000Y-92380000D01*
D31*
X92205000Y-117985000D02*
X92150000Y-117930000D01*
D32*
%TO.N,Net-(Q1B-G2)*%
X84605000Y-102435000D02*
X85950000Y-103780000D01*
X81110000Y-102435000D02*
X84605000Y-102435000D01*
%TO.N,Net-(Q1A-G1)*%
X83510000Y-103720000D02*
X83290000Y-103940000D01*
X78570000Y-103040000D02*
X78570000Y-102435000D01*
X79470000Y-103940000D02*
X78570000Y-103040000D01*
X83290000Y-103940000D02*
X79470000Y-103940000D01*
%TO.N,DIN*%
X89320000Y-101700000D02*
X90140000Y-100880000D01*
X89320000Y-105130000D02*
X89320000Y-101700000D01*
X94884214Y-106964213D02*
X94168427Y-107680000D01*
X94168427Y-107680000D02*
X91870000Y-107680000D01*
X91870000Y-107680000D02*
X89320000Y-105130000D01*
X90140000Y-88990000D02*
X90450000Y-88680000D01*
X90140000Y-100880000D02*
X90140000Y-88990000D01*
%TO.N,CLK*%
X89723200Y-104962990D02*
X89723200Y-101867010D01*
X95555966Y-104878248D02*
X93614214Y-106820000D01*
X93614214Y-106820000D02*
X91580210Y-106820000D01*
X89723200Y-101867010D02*
X90580000Y-101010210D01*
X91580210Y-106820000D02*
X89723200Y-104962990D01*
X90580000Y-89530000D02*
X90951600Y-89530000D01*
X90580000Y-101010210D02*
X90580000Y-89530000D01*
%TD*%
%TA.AperFunction,Conductor*%
%TO.N,SDA*%
G36*
X94729309Y-90087434D02*
G01*
X94730221Y-90089082D01*
X94980991Y-90643270D01*
X94981280Y-90652220D01*
X94978605Y-90656366D01*
X94846366Y-90788605D01*
X94838093Y-90792032D01*
X94833270Y-90790991D01*
X94279082Y-90540221D01*
X94272957Y-90533689D01*
X94273246Y-90524739D01*
X94274151Y-90523102D01*
X94447989Y-90261256D01*
X94451256Y-90257989D01*
X94713093Y-90084157D01*
X94721879Y-90082437D01*
X94729309Y-90087434D01*
G37*
%TD.AperFunction*%
%TD*%
%TA.AperFunction,Conductor*%
%TO.N,TX*%
G36*
X92745091Y-95098629D02*
G01*
X92747784Y-95100640D01*
X92877824Y-95230680D01*
X92881251Y-95238953D01*
X92879584Y-95244972D01*
X92580851Y-95742946D01*
X92573657Y-95748277D01*
X92564799Y-95746960D01*
X92564347Y-95746674D01*
X92303362Y-95573408D01*
X92298365Y-95565978D01*
X92298352Y-95565915D01*
X92237631Y-95256589D01*
X92239400Y-95247810D01*
X92245784Y-95243119D01*
X92736186Y-95097696D01*
X92745091Y-95098629D01*
G37*
%TD.AperFunction*%
%TD*%
%TA.AperFunction,Conductor*%
%TO.N,RTS*%
G36*
X83291659Y-114026285D02*
G01*
X83297784Y-114032817D01*
X83298304Y-114034627D01*
X83360531Y-114342683D01*
X83360531Y-114347317D01*
X83298304Y-114655372D01*
X83293307Y-114662802D01*
X83284519Y-114664523D01*
X83282709Y-114664003D01*
X82713518Y-114449454D01*
X82706986Y-114443329D01*
X82705945Y-114438506D01*
X82705945Y-114251493D01*
X82709372Y-114243220D01*
X82713516Y-114240546D01*
X83282711Y-114025996D01*
X83291659Y-114026285D01*
G37*
%TD.AperFunction*%
%TD*%
%TA.AperFunction,Conductor*%
%TO.N,ESP_EN*%
G36*
X104965252Y-80863217D02*
G01*
X104966784Y-80864076D01*
X105228740Y-81037987D01*
X105232014Y-81041261D01*
X105405759Y-81302969D01*
X105407480Y-81311757D01*
X105402483Y-81319187D01*
X105400724Y-81320149D01*
X104841681Y-81566104D01*
X104832728Y-81566299D01*
X104828696Y-81563668D01*
X104696459Y-81431431D01*
X104693032Y-81423158D01*
X104694122Y-81418226D01*
X104949709Y-80868888D01*
X104956305Y-80862834D01*
X104965252Y-80863217D01*
G37*
%TD.AperFunction*%
%TD*%
%TA.AperFunction,Conductor*%
%TO.N,ESP_BOOT*%
G36*
X90895270Y-83343275D02*
G01*
X90897019Y-83344232D01*
X91158740Y-83517987D01*
X91162014Y-83521261D01*
X91335765Y-83782977D01*
X91337486Y-83791765D01*
X91332489Y-83799195D01*
X91330737Y-83800154D01*
X90772017Y-84046430D01*
X90763065Y-84046631D01*
X90759025Y-84043997D01*
X90636002Y-83920974D01*
X90632575Y-83912701D01*
X90633568Y-83907984D01*
X90879846Y-83349260D01*
X90886318Y-83343074D01*
X90895270Y-83343275D01*
G37*
%TD.AperFunction*%
%TD*%
%TA.AperFunction,Conductor*%
%TO.N,UH*%
G36*
X102151159Y-92865388D02*
G01*
X102154944Y-92866772D01*
X102171552Y-92876361D01*
X102171555Y-92876363D01*
X102230825Y-92892243D01*
X102246706Y-92896499D01*
X102246708Y-92896500D01*
X102316019Y-92896500D01*
X102324292Y-92899927D01*
X102327719Y-92908200D01*
X102327719Y-93080869D01*
X102324292Y-93089142D01*
X102322678Y-93090489D01*
X101893203Y-93387798D01*
X101884451Y-93389689D01*
X101876924Y-93384837D01*
X101876874Y-93384764D01*
X101701723Y-93124053D01*
X101699954Y-93115275D01*
X101762153Y-92807360D01*
X101767150Y-92799931D01*
X101775681Y-92798161D01*
X102151159Y-92865388D01*
G37*
%TD.AperFunction*%
%TD*%
%TA.AperFunction,Conductor*%
%TO.N,CLK*%
G36*
X90686881Y-89353321D02*
G01*
X90688768Y-89354339D01*
X90945076Y-89524664D01*
X90950068Y-89532096D01*
X90950076Y-89536684D01*
X90889463Y-89842344D01*
X90884492Y-89849792D01*
X90875710Y-89851545D01*
X90875676Y-89851538D01*
X90681601Y-89812455D01*
X90681600Y-89812455D01*
X90496108Y-89812455D01*
X90487835Y-89809028D01*
X90484408Y-89800755D01*
X90485345Y-89796166D01*
X90595981Y-89536684D01*
X90671530Y-89359493D01*
X90677927Y-89353229D01*
X90686881Y-89353321D01*
G37*
%TD.AperFunction*%
%TD*%
%TA.AperFunction,Conductor*%
%TO.N,SCL*%
G36*
X95584262Y-100255614D02*
G01*
X95688757Y-100266356D01*
X96111665Y-100309833D01*
X96119544Y-100314088D01*
X96122107Y-100322668D01*
X96121949Y-100323726D01*
X96061647Y-100630915D01*
X96056691Y-100638373D01*
X96056637Y-100638408D01*
X95794182Y-100812650D01*
X95785394Y-100814371D01*
X95778730Y-100810401D01*
X95635112Y-100638373D01*
X95441897Y-100406937D01*
X95439226Y-100398391D01*
X95442605Y-100391168D01*
X95574794Y-100258979D01*
X95583066Y-100255553D01*
X95584262Y-100255614D01*
G37*
%TD.AperFunction*%
%TD*%
%TA.AperFunction,Conductor*%
%TO.N,VIO*%
G36*
X105777214Y-88533285D02*
G01*
X105780627Y-88535655D01*
X105903668Y-88658696D01*
X105907095Y-88666969D01*
X105905835Y-88672250D01*
X105635493Y-89206701D01*
X105628701Y-89212537D01*
X105619772Y-89211860D01*
X105618582Y-89211167D01*
X105358362Y-89038408D01*
X105353365Y-89030978D01*
X105353352Y-89030915D01*
X105292493Y-88720887D01*
X105294262Y-88712111D01*
X105299883Y-88707675D01*
X105768267Y-88532966D01*
X105777214Y-88533285D01*
G37*
%TD.AperFunction*%
%TD*%
%TA.AperFunction,Conductor*%
%TO.N,3V3*%
G36*
X111835193Y-105473020D02*
G01*
X112098740Y-105647987D01*
X112102014Y-105651261D01*
X112276961Y-105914778D01*
X112278682Y-105923566D01*
X112273685Y-105930996D01*
X112273661Y-105931013D01*
X111789166Y-106250909D01*
X111780373Y-106252607D01*
X111774446Y-106249418D01*
X111500581Y-105975553D01*
X111497154Y-105967280D01*
X111499088Y-105960837D01*
X111818987Y-105476336D01*
X111826404Y-105471323D01*
X111835193Y-105473020D01*
G37*
%TD.AperFunction*%
%TD*%
%TA.AperFunction,Conductor*%
%TO.N,TX*%
G36*
X93040238Y-109051668D02*
G01*
X93047668Y-109056665D01*
X93049389Y-109065453D01*
X93048828Y-109067369D01*
X93015095Y-109154280D01*
X93014321Y-109155897D01*
X92945465Y-109275160D01*
X92909300Y-109410129D01*
X92909300Y-109424669D01*
X92908507Y-109428902D01*
X92827898Y-109636588D01*
X92821710Y-109643061D01*
X92816991Y-109644055D01*
X92643009Y-109644055D01*
X92634736Y-109640628D01*
X92632102Y-109636588D01*
X92491821Y-109275160D01*
X92411171Y-109067368D01*
X92411372Y-109058417D01*
X92417845Y-109052229D01*
X92419754Y-109051669D01*
X92727683Y-108989468D01*
X92732317Y-108989468D01*
X93040238Y-109051668D01*
G37*
%TD.AperFunction*%
%TD*%
%TA.AperFunction,Conductor*%
%TO.N,RTS*%
G36*
X83437283Y-114025994D02*
G01*
X84006482Y-114240545D01*
X84013014Y-114246670D01*
X84014055Y-114251493D01*
X84014055Y-114438506D01*
X84010628Y-114446779D01*
X84006482Y-114449454D01*
X83437290Y-114664003D01*
X83428340Y-114663714D01*
X83422215Y-114657182D01*
X83421695Y-114655372D01*
X83359468Y-114347317D01*
X83359468Y-114342683D01*
X83380100Y-114240545D01*
X83421695Y-114034625D01*
X83426692Y-114027197D01*
X83435480Y-114025476D01*
X83437283Y-114025994D01*
G37*
%TD.AperFunction*%
%TD*%
%TA.AperFunction,Conductor*%
%TO.N,DC*%
G36*
X91761999Y-92931688D02*
G01*
X91762053Y-92931723D01*
X92023361Y-93107275D01*
X92028317Y-93114733D01*
X92026894Y-93122965D01*
X91764601Y-93564258D01*
X91757428Y-93569619D01*
X91754543Y-93569980D01*
X91567450Y-93569980D01*
X91559177Y-93566553D01*
X91556012Y-93560741D01*
X91531542Y-93447028D01*
X91436637Y-93006000D01*
X91438247Y-92997193D01*
X91445614Y-92992103D01*
X91445732Y-92992078D01*
X91753211Y-92929967D01*
X91761999Y-92931688D01*
G37*
%TD.AperFunction*%
%TD*%
%TA.AperFunction,Conductor*%
%TO.N,SCL*%
G36*
X94429309Y-91187434D02*
G01*
X94430221Y-91189082D01*
X94680991Y-91743270D01*
X94681280Y-91752220D01*
X94678605Y-91756366D01*
X94546366Y-91888605D01*
X94538093Y-91892032D01*
X94533270Y-91890991D01*
X93979082Y-91640221D01*
X93972957Y-91633689D01*
X93973246Y-91624739D01*
X93974151Y-91623102D01*
X94147989Y-91361256D01*
X94151256Y-91357989D01*
X94413093Y-91184157D01*
X94421879Y-91182437D01*
X94429309Y-91187434D01*
G37*
%TD.AperFunction*%
%TD*%
%TA.AperFunction,Conductor*%
%TO.N,ESP_EN*%
G36*
X77610372Y-100111695D02*
G01*
X77617802Y-100116692D01*
X77619523Y-100125480D01*
X77619003Y-100127290D01*
X77404455Y-100696482D01*
X77398330Y-100703014D01*
X77393507Y-100704055D01*
X77206493Y-100704055D01*
X77198220Y-100700628D01*
X77195545Y-100696482D01*
X76980996Y-100127288D01*
X76981285Y-100118340D01*
X76987817Y-100112215D01*
X76989619Y-100111697D01*
X77297683Y-100049468D01*
X77302317Y-100049468D01*
X77610372Y-100111695D01*
G37*
%TD.AperFunction*%
%TD*%
%TA.AperFunction,Conductor*%
%TO.N,USB_D+*%
G36*
X99540776Y-115841777D02*
G01*
X99548205Y-115846773D01*
X99549926Y-115855561D01*
X99549525Y-115857040D01*
X99354311Y-116426151D01*
X99348385Y-116432865D01*
X99343244Y-116434055D01*
X99156242Y-116434055D01*
X99147969Y-116430628D01*
X99145420Y-116426801D01*
X98911530Y-115857527D01*
X98911555Y-115848573D01*
X98917906Y-115842259D01*
X98920032Y-115841613D01*
X99227683Y-115779468D01*
X99232317Y-115779468D01*
X99540776Y-115841777D01*
G37*
%TD.AperFunction*%
%TD*%
%TA.AperFunction,Conductor*%
%TO.N,3V3*%
G36*
X87990996Y-120506314D02*
G01*
X87991013Y-120506338D01*
X88310909Y-120990834D01*
X88312607Y-120999626D01*
X88309418Y-121005553D01*
X88035553Y-121279418D01*
X88027280Y-121282845D01*
X88020834Y-121280909D01*
X87536338Y-120961013D01*
X87531323Y-120953595D01*
X87533020Y-120944806D01*
X87707989Y-120681256D01*
X87711256Y-120677989D01*
X87974780Y-120503037D01*
X87983566Y-120501317D01*
X87990996Y-120506314D01*
G37*
%TD.AperFunction*%
%TD*%
%TA.AperFunction,Conductor*%
%TO.N,RST*%
G36*
X93860372Y-95411695D02*
G01*
X93867802Y-95416692D01*
X93869523Y-95425480D01*
X93869003Y-95427290D01*
X93654455Y-95996482D01*
X93648330Y-96003014D01*
X93643507Y-96004055D01*
X93456493Y-96004055D01*
X93448220Y-96000628D01*
X93445545Y-95996482D01*
X93230996Y-95427288D01*
X93231285Y-95418340D01*
X93237817Y-95412215D01*
X93239619Y-95411697D01*
X93547683Y-95349468D01*
X93552317Y-95349468D01*
X93860372Y-95411695D01*
G37*
%TD.AperFunction*%
%TD*%
%TA.AperFunction,Conductor*%
%TO.N,UL*%
G36*
X94756824Y-87242816D02*
G01*
X94879909Y-87365901D01*
X94883336Y-87374174D01*
X94883172Y-87376124D01*
X94795857Y-87892574D01*
X94791099Y-87900161D01*
X94782371Y-87902160D01*
X94782067Y-87902105D01*
X94474084Y-87841647D01*
X94466627Y-87836691D01*
X94292815Y-87574885D01*
X94291095Y-87566098D01*
X94295779Y-87558882D01*
X94741769Y-87241555D01*
X94750496Y-87239552D01*
X94756824Y-87242816D01*
G37*
%TD.AperFunction*%
%TD*%
%TA.AperFunction,Conductor*%
%TO.N,W*%
G36*
X115668111Y-94087930D02*
G01*
X115975915Y-94148352D01*
X115983373Y-94153308D01*
X115983408Y-94153362D01*
X116157387Y-94415420D01*
X116159108Y-94424208D01*
X116154734Y-94431195D01*
X115726036Y-94758055D01*
X115717379Y-94760346D01*
X115710669Y-94757024D01*
X115578406Y-94624761D01*
X115574979Y-94616488D01*
X115575113Y-94614727D01*
X115654298Y-94097640D01*
X115658938Y-94089982D01*
X115667634Y-94087847D01*
X115668111Y-94087930D01*
G37*
%TD.AperFunction*%
%TD*%
%TA.AperFunction,Conductor*%
%TO.N,VIO*%
G36*
X117660039Y-88399819D02*
G01*
X117664992Y-88407280D01*
X117665150Y-88408347D01*
X117723268Y-88981228D01*
X117720694Y-88989805D01*
X117712809Y-88994049D01*
X117711628Y-88994109D01*
X117538205Y-88994109D01*
X117531582Y-88992054D01*
X117166058Y-88741079D01*
X117161178Y-88733571D01*
X117162941Y-88724951D01*
X117337297Y-88463058D01*
X117344732Y-88458073D01*
X117651264Y-88398046D01*
X117660039Y-88399819D01*
G37*
%TD.AperFunction*%
%TD*%
%TA.AperFunction,Conductor*%
%TO.N,5V*%
G36*
X116540273Y-96909372D02*
G01*
X116543700Y-96917645D01*
X116543700Y-96926496D01*
X116559288Y-96984672D01*
X116559449Y-96985354D01*
X116661503Y-97484089D01*
X116659805Y-97492882D01*
X116652387Y-97497897D01*
X116652358Y-97497903D01*
X116342317Y-97560531D01*
X116337683Y-97560531D01*
X116027641Y-97497903D01*
X116020211Y-97492906D01*
X116018490Y-97484119D01*
X116134886Y-96915299D01*
X116139901Y-96907881D01*
X116146348Y-96905945D01*
X116532000Y-96905945D01*
X116540273Y-96909372D01*
G37*
%TD.AperFunction*%
%TD*%
%TA.AperFunction,Conductor*%
%TO.N,RX*%
G36*
X93750238Y-109541668D02*
G01*
X93757668Y-109546665D01*
X93759389Y-109555453D01*
X93758828Y-109557369D01*
X93537898Y-110126588D01*
X93531710Y-110133061D01*
X93526991Y-110134055D01*
X93353009Y-110134055D01*
X93344736Y-110130628D01*
X93342102Y-110126588D01*
X93121171Y-109557369D01*
X93121372Y-109548417D01*
X93127845Y-109542229D01*
X93129754Y-109541669D01*
X93437683Y-109479468D01*
X93442317Y-109479468D01*
X93750238Y-109541668D01*
G37*
%TD.AperFunction*%
%TD*%
%TA.AperFunction,Conductor*%
%TO.N,DIN*%
G36*
X90138137Y-88617929D02*
G01*
X90445212Y-88678062D01*
X90452673Y-88683015D01*
X90452703Y-88683060D01*
X90626850Y-88944639D01*
X90628582Y-88953425D01*
X90623595Y-88960862D01*
X90623424Y-88960974D01*
X90244485Y-89203800D01*
X90238172Y-89205649D01*
X90051969Y-89205649D01*
X90043696Y-89202222D01*
X90040269Y-89193949D01*
X90040396Y-89192228D01*
X90075739Y-88954551D01*
X90124343Y-88627693D01*
X90128950Y-88620016D01*
X90137637Y-88617843D01*
X90138137Y-88617929D01*
G37*
%TD.AperFunction*%
%TD*%
%TA.AperFunction,Conductor*%
%TO.N,VH*%
G36*
X100297000Y-92800098D02*
G01*
X100298749Y-92801055D01*
X100560470Y-92974810D01*
X100563744Y-92978084D01*
X100737495Y-93239800D01*
X100739216Y-93248588D01*
X100734219Y-93256018D01*
X100732467Y-93256977D01*
X100173747Y-93503253D01*
X100164795Y-93503454D01*
X100160755Y-93500820D01*
X100037732Y-93377797D01*
X100034305Y-93369524D01*
X100035298Y-93364807D01*
X100281576Y-92806083D01*
X100288048Y-92799897D01*
X100297000Y-92800098D01*
G37*
%TD.AperFunction*%
%TD*%
%TA.AperFunction,Conductor*%
%TO.N,RX*%
G36*
X96943999Y-90271688D02*
G01*
X96944053Y-90271723D01*
X97206239Y-90447865D01*
X97211195Y-90455322D01*
X97210317Y-90462523D01*
X96998150Y-90917302D01*
X96991547Y-90923350D01*
X96987547Y-90924055D01*
X96813538Y-90924055D01*
X96805265Y-90920628D01*
X96802396Y-90915924D01*
X96620132Y-90346867D01*
X96620872Y-90337943D01*
X96627705Y-90332156D01*
X96628940Y-90331834D01*
X96935211Y-90269967D01*
X96943999Y-90271688D01*
G37*
%TD.AperFunction*%
%TD*%
%TA.AperFunction,Conductor*%
%TO.N,WH*%
G36*
X99983186Y-92119277D02*
G01*
X99987912Y-92126883D01*
X99988068Y-92128785D01*
X99988068Y-92302889D01*
X99987330Y-92306978D01*
X99887332Y-92575095D01*
X99881231Y-92581649D01*
X99874094Y-92582483D01*
X99566697Y-92521526D01*
X99559249Y-92516555D01*
X99557492Y-92512299D01*
X99497897Y-92207973D01*
X99499670Y-92199199D01*
X99507131Y-92194246D01*
X99507411Y-92194195D01*
X99974466Y-92117241D01*
X99983186Y-92119277D01*
G37*
%TD.AperFunction*%
%TD*%
%TA.AperFunction,Conductor*%
%TO.N,TMC_DIAG*%
G36*
X118623796Y-91252387D02*
G01*
X118631226Y-91257384D01*
X118633152Y-91264656D01*
X118598148Y-91774901D01*
X118594163Y-91782920D01*
X118586475Y-91785800D01*
X118412603Y-91785800D01*
X118404330Y-91782373D01*
X118403915Y-91781937D01*
X118397568Y-91774901D01*
X118044488Y-91383470D01*
X118041492Y-91375032D01*
X118045340Y-91366946D01*
X118046646Y-91365926D01*
X118305947Y-91191722D01*
X118314723Y-91189954D01*
X118623796Y-91252387D01*
G37*
%TD.AperFunction*%
%TD*%
%TA.AperFunction,Conductor*%
%TO.N,USB_D-*%
G36*
X100497491Y-115924353D02*
G01*
X100755256Y-116097215D01*
X100760217Y-116104668D01*
X100758734Y-116113011D01*
X100463527Y-116598331D01*
X100456300Y-116603619D01*
X100447451Y-116602247D01*
X100442163Y-116595020D01*
X100441831Y-116592251D01*
X100441831Y-116430800D01*
X100222222Y-116113243D01*
X100220335Y-116104489D01*
X100225190Y-116096965D01*
X100225277Y-116096905D01*
X100484493Y-115924331D01*
X100493278Y-115922600D01*
X100497491Y-115924353D01*
G37*
%TD.AperFunction*%
%TD*%
%TA.AperFunction,Conductor*%
%TO.N,VH*%
G36*
X100919147Y-92511873D02*
G01*
X100925073Y-92518586D01*
X100925706Y-92522383D01*
X100925706Y-92695320D01*
X100925628Y-92696671D01*
X100887048Y-93028650D01*
X100882689Y-93036472D01*
X100874075Y-93038921D01*
X100873150Y-93038776D01*
X100568427Y-92978349D01*
X100560979Y-92973378D01*
X100559222Y-92969122D01*
X100499270Y-92662972D01*
X100501043Y-92654197D01*
X100506953Y-92649659D01*
X100910210Y-92511316D01*
X100919147Y-92511873D01*
G37*
%TD.AperFunction*%
%TD*%
%TA.AperFunction,Conductor*%
%TO.N,SCL*%
G36*
X89488346Y-90613983D02*
G01*
X89490980Y-90618023D01*
X89711910Y-91187241D01*
X89711709Y-91196193D01*
X89705236Y-91202381D01*
X89703320Y-91202942D01*
X89395399Y-91265142D01*
X89390765Y-91265142D01*
X89082843Y-91202942D01*
X89075413Y-91197945D01*
X89073692Y-91189157D01*
X89074250Y-91187247D01*
X89295184Y-90618023D01*
X89301372Y-90611550D01*
X89306091Y-90610556D01*
X89480073Y-90610556D01*
X89488346Y-90613983D01*
G37*
%TD.AperFunction*%
%TD*%
%TA.AperFunction,Conductor*%
%TO.N,BL*%
G36*
X94839791Y-95299868D02*
G01*
X94844744Y-95307329D01*
X94844923Y-95308621D01*
X94890563Y-95865544D01*
X94887823Y-95874070D01*
X94879858Y-95878161D01*
X94878902Y-95878200D01*
X94692056Y-95878200D01*
X94685395Y-95876119D01*
X94345995Y-95641091D01*
X94341144Y-95633564D01*
X94342916Y-95624989D01*
X94517297Y-95363058D01*
X94524732Y-95358073D01*
X94831015Y-95298095D01*
X94839791Y-95299868D01*
G37*
%TD.AperFunction*%
%TD*%
%TA.AperFunction,Conductor*%
%TO.N,5V*%
G36*
X121174702Y-94074886D02*
G01*
X121182119Y-94079900D01*
X121184055Y-94086347D01*
X121184055Y-94473652D01*
X121180628Y-94481925D01*
X121174701Y-94485114D01*
X120605910Y-94601503D01*
X120597117Y-94599805D01*
X120592102Y-94592387D01*
X120529468Y-94282316D01*
X120529468Y-94277683D01*
X120569420Y-94079900D01*
X120592097Y-93967639D01*
X120597093Y-93960211D01*
X120605879Y-93958490D01*
X121174702Y-94074886D01*
G37*
%TD.AperFunction*%
%TD*%
%TA.AperFunction,Conductor*%
%TO.N,5V*%
G36*
X116343009Y-97559756D02*
G01*
X116650691Y-97621766D01*
X116658124Y-97626758D01*
X116659848Y-97635545D01*
X116659424Y-97637094D01*
X116423323Y-98312606D01*
X116417358Y-98319286D01*
X116408418Y-98319791D01*
X116404005Y-98317019D01*
X116132010Y-98045024D01*
X116128993Y-98039820D01*
X116019425Y-97636493D01*
X116020563Y-97627613D01*
X116027649Y-97622137D01*
X116028410Y-97621957D01*
X116338404Y-97559755D01*
X116343009Y-97559756D01*
G37*
%TD.AperFunction*%
%TD*%
%TA.AperFunction,Conductor*%
%TO.N,DTR*%
G36*
X83291659Y-112756285D02*
G01*
X83297784Y-112762817D01*
X83298304Y-112764627D01*
X83360531Y-113072683D01*
X83360531Y-113077317D01*
X83298304Y-113385372D01*
X83293307Y-113392802D01*
X83284519Y-113394523D01*
X83282709Y-113394003D01*
X82713518Y-113179454D01*
X82706986Y-113173329D01*
X82705945Y-113168506D01*
X82705945Y-112981493D01*
X82709372Y-112973220D01*
X82713516Y-112970546D01*
X83282711Y-112755996D01*
X83291659Y-112756285D01*
G37*
%TD.AperFunction*%
%TD*%
%TA.AperFunction,Conductor*%
%TO.N,5V*%
G36*
X116540273Y-96909372D02*
G01*
X116543700Y-96917645D01*
X116543700Y-96926496D01*
X116559288Y-96984672D01*
X116559449Y-96985354D01*
X116661503Y-97484089D01*
X116659805Y-97492882D01*
X116652387Y-97497897D01*
X116652358Y-97497903D01*
X116342317Y-97560531D01*
X116337683Y-97560531D01*
X116027641Y-97497903D01*
X116020211Y-97492906D01*
X116018490Y-97484119D01*
X116134886Y-96915299D01*
X116139901Y-96907881D01*
X116146348Y-96905945D01*
X116532000Y-96905945D01*
X116540273Y-96909372D01*
G37*
%TD.AperFunction*%
%TD*%
%TA.AperFunction,Conductor*%
%TO.N,WL*%
G36*
X94342410Y-85135885D02*
G01*
X94471332Y-85264807D01*
X94472676Y-85266416D01*
X94732779Y-85641776D01*
X94734674Y-85650528D01*
X94729826Y-85658057D01*
X94729668Y-85658164D01*
X94468340Y-85833000D01*
X94459559Y-85834752D01*
X94459522Y-85834745D01*
X94153598Y-85773090D01*
X94146165Y-85768097D01*
X94144441Y-85759309D01*
X94144664Y-85758396D01*
X94322897Y-85140910D01*
X94328483Y-85133915D01*
X94337382Y-85132917D01*
X94342410Y-85135885D01*
G37*
%TD.AperFunction*%
%TD*%
%TA.AperFunction,Conductor*%
%TO.N,TX*%
G36*
X94584028Y-92652434D02*
G01*
X94591457Y-92657430D01*
X94593398Y-92664433D01*
X94570509Y-93167032D01*
X94566709Y-93175141D01*
X94558821Y-93178200D01*
X94375114Y-93178200D01*
X94366841Y-93174773D01*
X94366527Y-93174447D01*
X94004735Y-92783484D01*
X94001631Y-92775084D01*
X94005375Y-92766950D01*
X94006797Y-92765825D01*
X94265947Y-92591722D01*
X94274723Y-92589954D01*
X94584028Y-92652434D01*
G37*
%TD.AperFunction*%
%TD*%
%TA.AperFunction,Conductor*%
%TO.N,CS*%
G36*
X91042807Y-92017904D02*
G01*
X91350012Y-92078062D01*
X91357473Y-92083015D01*
X91357503Y-92083060D01*
X91531465Y-92344361D01*
X91533197Y-92353147D01*
X91528210Y-92360584D01*
X91527763Y-92360867D01*
X91147290Y-92590041D01*
X91144386Y-92591790D01*
X91138349Y-92593468D01*
X90952123Y-92593468D01*
X90943850Y-92590041D01*
X90940423Y-92581768D01*
X90940570Y-92579918D01*
X90945721Y-92547752D01*
X91029030Y-92027538D01*
X91033721Y-92019913D01*
X91042432Y-92017837D01*
X91042807Y-92017904D01*
G37*
%TD.AperFunction*%
%TD*%
%TA.AperFunction,Conductor*%
%TO.N,RX*%
G36*
X96990961Y-95247068D02*
G01*
X96994388Y-95255341D01*
X96994373Y-95255937D01*
X96964542Y-95840939D01*
X96960698Y-95849027D01*
X96952261Y-95852028D01*
X96950609Y-95851825D01*
X96644787Y-95791937D01*
X96637326Y-95786984D01*
X96637296Y-95786939D01*
X96462565Y-95524482D01*
X96460833Y-95515696D01*
X96465106Y-95508775D01*
X96801827Y-95246115D01*
X96809023Y-95243641D01*
X96982688Y-95243641D01*
X96990961Y-95247068D01*
G37*
%TD.AperFunction*%
%TD*%
%TA.AperFunction,Conductor*%
%TO.N,ESP_EN*%
G36*
X85521780Y-98859372D02*
G01*
X85524455Y-98863518D01*
X85739003Y-99432709D01*
X85738714Y-99441659D01*
X85732182Y-99447784D01*
X85730372Y-99448304D01*
X85422317Y-99510531D01*
X85417683Y-99510531D01*
X85109627Y-99448304D01*
X85102197Y-99443307D01*
X85100476Y-99434519D01*
X85100993Y-99432719D01*
X85315545Y-98863517D01*
X85321670Y-98856986D01*
X85326493Y-98855945D01*
X85513507Y-98855945D01*
X85521780Y-98859372D01*
G37*
%TD.AperFunction*%
%TD*%
%TA.AperFunction,Conductor*%
%TO.N,SCL*%
G36*
X89410332Y-87899762D02*
G01*
X89415285Y-87907223D01*
X89415412Y-87908018D01*
X89486435Y-88475361D01*
X89484063Y-88483995D01*
X89476279Y-88488423D01*
X89474826Y-88488514D01*
X89301544Y-88488514D01*
X89295177Y-88486630D01*
X88916484Y-88240994D01*
X88911408Y-88233617D01*
X88913035Y-88224811D01*
X89087297Y-87963058D01*
X89094732Y-87958073D01*
X89401556Y-87897989D01*
X89410332Y-87899762D01*
G37*
%TD.AperFunction*%
%TD*%
%TA.AperFunction,Conductor*%
%TO.N,UH*%
G36*
X102010238Y-93181668D02*
G01*
X102017668Y-93186665D01*
X102019389Y-93195453D01*
X102018828Y-93197369D01*
X101797898Y-93766588D01*
X101791710Y-93773061D01*
X101786991Y-93774055D01*
X101613009Y-93774055D01*
X101604736Y-93770628D01*
X101602102Y-93766588D01*
X101381171Y-93197369D01*
X101381372Y-93188417D01*
X101387845Y-93182229D01*
X101389754Y-93181669D01*
X101697683Y-93119468D01*
X101702317Y-93119468D01*
X102010238Y-93181668D01*
G37*
%TD.AperFunction*%
%TD*%
%TA.AperFunction,Conductor*%
%TO.N,VL*%
G36*
X95066366Y-83251394D02*
G01*
X95198605Y-83383633D01*
X95202032Y-83391906D01*
X95200991Y-83396729D01*
X94950221Y-83950917D01*
X94943689Y-83957042D01*
X94934739Y-83956753D01*
X94933091Y-83955841D01*
X94925674Y-83950917D01*
X94671259Y-83782012D01*
X94667987Y-83778740D01*
X94494157Y-83516906D01*
X94492437Y-83508120D01*
X94497434Y-83500690D01*
X94499074Y-83499781D01*
X95053271Y-83249007D01*
X95062220Y-83248719D01*
X95066366Y-83251394D01*
G37*
%TD.AperFunction*%
%TD*%
%TA.AperFunction,Conductor*%
%TO.N,SDA*%
G36*
X95963986Y-98749821D02*
G01*
X95965108Y-98751121D01*
X96277242Y-99171703D01*
X96279421Y-99180389D01*
X96274820Y-99188071D01*
X96274372Y-99188388D01*
X96014053Y-99363276D01*
X96005274Y-99365045D01*
X96005211Y-99365032D01*
X95696840Y-99302741D01*
X95689410Y-99297744D01*
X95687555Y-99289762D01*
X95757072Y-98756581D01*
X95761540Y-98748821D01*
X95768674Y-98746394D01*
X95955713Y-98746394D01*
X95963986Y-98749821D01*
G37*
%TD.AperFunction*%
%TD*%
%TA.AperFunction,Conductor*%
%TO.N,MPU_INT*%
G36*
X88331937Y-84163466D02*
G01*
X88508276Y-84425946D01*
X88510045Y-84434725D01*
X88510032Y-84434788D01*
X88448249Y-84740642D01*
X88443252Y-84748072D01*
X88434464Y-84749793D01*
X88432875Y-84749354D01*
X87863739Y-84547760D01*
X87857084Y-84541767D01*
X87855945Y-84536731D01*
X87855945Y-84362747D01*
X87859372Y-84354474D01*
X87863073Y-84351977D01*
X88317660Y-84159218D01*
X88326612Y-84159145D01*
X88331937Y-84163466D01*
G37*
%TD.AperFunction*%
%TD*%
%TA.AperFunction,Conductor*%
%TO.N,3V3*%
G36*
X100325193Y-104843020D02*
G01*
X100588740Y-105017987D01*
X100592014Y-105021261D01*
X100766961Y-105284778D01*
X100768682Y-105293566D01*
X100763685Y-105300996D01*
X100763661Y-105301013D01*
X100279166Y-105620909D01*
X100270373Y-105622607D01*
X100264446Y-105619418D01*
X99990581Y-105345553D01*
X99987154Y-105337280D01*
X99989088Y-105330837D01*
X100308987Y-104846336D01*
X100316404Y-104841323D01*
X100325193Y-104843020D01*
G37*
%TD.AperFunction*%
%TD*%
%TA.AperFunction,Conductor*%
%TO.N,VIO*%
G36*
X109563053Y-88035324D02*
G01*
X109564030Y-88036582D01*
X109738276Y-88295946D01*
X109740045Y-88304725D01*
X109740032Y-88304788D01*
X109677621Y-88613754D01*
X109672624Y-88621184D01*
X109665304Y-88623106D01*
X109152651Y-88585789D01*
X109144648Y-88581771D01*
X109141800Y-88574120D01*
X109141800Y-88400244D01*
X109145227Y-88391971D01*
X109145700Y-88391524D01*
X109546537Y-88034371D01*
X109554991Y-88031426D01*
X109563053Y-88035324D01*
G37*
%TD.AperFunction*%
%TD*%
%TA.AperFunction,Conductor*%
%TO.N,GND*%
G36*
X115928683Y-79199685D02*
G01*
X115935257Y-79204215D01*
X115947384Y-79213165D01*
X115951045Y-79215975D01*
X116713460Y-79823981D01*
X116717031Y-79826939D01*
X117456213Y-80463056D01*
X117459670Y-80466147D01*
X117745819Y-80731654D01*
X118169462Y-81124738D01*
X118174487Y-81129400D01*
X118177827Y-81132617D01*
X118867382Y-81822172D01*
X118870599Y-81825512D01*
X119533852Y-82540329D01*
X119536943Y-82543786D01*
X120173060Y-83282968D01*
X120176018Y-83286539D01*
X120376307Y-83537693D01*
X120784030Y-84048961D01*
X120786823Y-84052600D01*
X121004973Y-84348183D01*
X121365902Y-84837225D01*
X121368586Y-84841007D01*
X121649514Y-85253052D01*
X121915095Y-85642589D01*
X121917927Y-85646742D01*
X121920462Y-85650615D01*
X121984909Y-85753181D01*
X122439285Y-86476317D01*
X122441678Y-86480289D01*
X122929260Y-87324805D01*
X122931503Y-87328864D01*
X123387157Y-88191003D01*
X123389247Y-88195142D01*
X123812356Y-89073737D01*
X123814290Y-89077952D01*
X124204263Y-89971779D01*
X124206037Y-89976064D01*
X124352593Y-90349481D01*
X124542642Y-90833720D01*
X124562287Y-90883773D01*
X124563898Y-90888113D01*
X124640903Y-91108180D01*
X124885990Y-91808599D01*
X124887439Y-91813004D01*
X125174867Y-92744825D01*
X125176151Y-92749281D01*
X125428546Y-93691230D01*
X125429662Y-93695731D01*
X125646656Y-94646445D01*
X125647603Y-94650985D01*
X125828895Y-95609137D01*
X125829672Y-95613709D01*
X125975015Y-96577991D01*
X125975620Y-96582588D01*
X126084803Y-97551616D01*
X126085236Y-97556234D01*
X126158109Y-98528668D01*
X126158369Y-98533297D01*
X126194832Y-99507773D01*
X126194919Y-99512410D01*
X126194919Y-100487589D01*
X126194832Y-100492226D01*
X126158369Y-101466702D01*
X126158109Y-101471331D01*
X126085236Y-102443765D01*
X126084803Y-102448383D01*
X125975620Y-103417411D01*
X125975015Y-103422008D01*
X125829672Y-104386290D01*
X125828895Y-104390862D01*
X125647603Y-105349014D01*
X125646656Y-105353554D01*
X125429662Y-106304268D01*
X125428546Y-106308769D01*
X125176151Y-107250718D01*
X125174867Y-107255174D01*
X124887439Y-108186995D01*
X124885990Y-108191400D01*
X124563901Y-109111879D01*
X124562287Y-109116226D01*
X124206037Y-110023935D01*
X124204263Y-110028220D01*
X123814290Y-110922047D01*
X123812356Y-110926262D01*
X123389247Y-111804857D01*
X123387157Y-111808996D01*
X122931503Y-112671135D01*
X122929260Y-112675194D01*
X122441678Y-113519710D01*
X122439285Y-113523682D01*
X121920467Y-114349377D01*
X121917927Y-114353257D01*
X121368586Y-115158992D01*
X121365902Y-115162774D01*
X120786838Y-115947379D01*
X120784015Y-115951058D01*
X120176018Y-116713460D01*
X120173060Y-116717031D01*
X119536943Y-117456213D01*
X119533852Y-117459670D01*
X118870599Y-118174487D01*
X118867382Y-118177827D01*
X118177827Y-118867382D01*
X118174487Y-118870599D01*
X117459670Y-119533852D01*
X117456213Y-119536943D01*
X116717031Y-120173060D01*
X116713460Y-120176018D01*
X115951058Y-120784015D01*
X115947379Y-120786838D01*
X115162774Y-121365902D01*
X115158992Y-121368586D01*
X114353257Y-121917927D01*
X114349377Y-121920467D01*
X113523682Y-122439285D01*
X113519710Y-122441678D01*
X112675194Y-122929260D01*
X112671135Y-122931503D01*
X111808996Y-123387157D01*
X111804857Y-123389247D01*
X110926262Y-123812356D01*
X110922047Y-123814290D01*
X110028220Y-124204263D01*
X110023935Y-124206037D01*
X109116226Y-124562287D01*
X109111879Y-124563901D01*
X108191400Y-124885990D01*
X108186995Y-124887439D01*
X107255174Y-125174867D01*
X107250718Y-125176151D01*
X106308769Y-125428546D01*
X106304268Y-125429662D01*
X105353554Y-125646656D01*
X105349014Y-125647603D01*
X104390862Y-125828895D01*
X104386290Y-125829672D01*
X103422008Y-125975015D01*
X103417411Y-125975620D01*
X102448383Y-126084803D01*
X102443765Y-126085236D01*
X101471331Y-126158109D01*
X101466702Y-126158369D01*
X100492226Y-126194832D01*
X100487589Y-126194919D01*
X99512411Y-126194919D01*
X99507774Y-126194832D01*
X98533297Y-126158369D01*
X98528668Y-126158109D01*
X97556234Y-126085236D01*
X97551616Y-126084803D01*
X96582588Y-125975620D01*
X96577991Y-125975015D01*
X95613709Y-125829672D01*
X95609137Y-125828895D01*
X94650985Y-125647603D01*
X94646445Y-125646656D01*
X93695731Y-125429662D01*
X93691230Y-125428546D01*
X92749281Y-125176151D01*
X92744825Y-125174867D01*
X91906215Y-124916191D01*
X91847956Y-124877621D01*
X91819799Y-124813676D01*
X91830682Y-124744659D01*
X91877150Y-124692483D01*
X91942765Y-124673700D01*
X106994558Y-124673700D01*
X106994578Y-124673701D01*
X107000692Y-124673701D01*
X107139310Y-124673701D01*
X107230768Y-124655507D01*
X107275262Y-124646657D01*
X107403327Y-124593611D01*
X107433656Y-124573345D01*
X107448923Y-124563145D01*
X107466279Y-124551547D01*
X107518583Y-124516600D01*
X107616600Y-124418583D01*
X107616601Y-124418581D01*
X107623667Y-124411515D01*
X107623670Y-124411511D01*
X117688579Y-114346602D01*
X117688583Y-114346600D01*
X117786600Y-114248583D01*
X117863611Y-114133327D01*
X117916657Y-114005262D01*
X117919207Y-113992439D01*
X117921828Y-113979269D01*
X117943701Y-113869310D01*
X117943701Y-113725581D01*
X117943700Y-113725555D01*
X117943700Y-112295442D01*
X117943701Y-112295421D01*
X117943701Y-112150688D01*
X117916658Y-112014743D01*
X117916656Y-112014735D01*
X117863614Y-111886678D01*
X117863611Y-111886673D01*
X117861749Y-111883886D01*
X117786600Y-111771417D01*
X117786598Y-111771414D01*
X117685487Y-111670303D01*
X117685456Y-111670274D01*
X117040940Y-111025758D01*
X117040920Y-111025736D01*
X116938585Y-110923401D01*
X116823323Y-110846386D01*
X116695264Y-110793343D01*
X116695259Y-110793342D01*
X116649324Y-110784204D01*
X116587414Y-110751817D01*
X116579973Y-110743605D01*
X116453657Y-110617289D01*
X116453656Y-110617288D01*
X116304334Y-110525186D01*
X116137797Y-110470001D01*
X116137795Y-110470000D01*
X116035010Y-110459500D01*
X114984998Y-110459500D01*
X114984980Y-110459501D01*
X114882203Y-110470000D01*
X114882200Y-110470001D01*
X114715668Y-110525185D01*
X114715663Y-110525187D01*
X114566342Y-110617289D01*
X114453651Y-110729981D01*
X114392328Y-110763466D01*
X114365970Y-110766300D01*
X113575344Y-110766300D01*
X113508305Y-110746615D01*
X113487663Y-110729981D01*
X112815577Y-110057895D01*
X112782092Y-109996572D01*
X112787076Y-109926880D01*
X112807156Y-109891854D01*
X112822198Y-109873407D01*
X112916409Y-109693049D01*
X112972386Y-109497418D01*
X112983000Y-109378037D01*
X112982999Y-108261964D01*
X112972386Y-108142582D01*
X112927512Y-107985756D01*
X112916410Y-107946954D01*
X112916409Y-107946953D01*
X112916409Y-107946951D01*
X112822198Y-107766593D01*
X112745217Y-107672183D01*
X112693609Y-107608890D01*
X112535909Y-107480304D01*
X112535910Y-107480304D01*
X112535907Y-107480302D01*
X112355549Y-107386091D01*
X112355548Y-107386090D01*
X112355545Y-107386089D01*
X112238329Y-107352550D01*
X112159918Y-107330114D01*
X112159915Y-107330113D01*
X112159913Y-107330113D01*
X112087131Y-107323642D01*
X112040537Y-107319500D01*
X112040533Y-107319500D01*
X111725043Y-107319500D01*
X111658004Y-107299815D01*
X111612249Y-107247011D01*
X111602305Y-107177853D01*
X111631330Y-107114297D01*
X111637362Y-107107819D01*
X111844998Y-106900183D01*
X112072755Y-106672425D01*
X112092108Y-106656632D01*
X112182051Y-106597246D01*
X112552190Y-106352856D01*
X112565849Y-106343513D01*
X112565873Y-106343496D01*
X112596676Y-106319850D01*
X112596681Y-106319843D01*
X112599912Y-106316863D01*
X112615127Y-106304876D01*
X112629540Y-106295247D01*
X112745247Y-106179540D01*
X112836156Y-106043484D01*
X112898776Y-105892306D01*
X112910745Y-105832135D01*
X112930700Y-105731819D01*
X112930700Y-105568180D01*
X112898777Y-105407699D01*
X112898776Y-105407698D01*
X112898776Y-105407694D01*
X112836156Y-105256516D01*
X112745247Y-105120460D01*
X112745245Y-105120457D01*
X112629542Y-105004754D01*
X112561512Y-104959298D01*
X112493484Y-104913844D01*
X112463306Y-104901344D01*
X112342306Y-104851224D01*
X112342300Y-104851222D01*
X112181819Y-104819300D01*
X112181817Y-104819300D01*
X112018183Y-104819300D01*
X112018181Y-104819300D01*
X111857699Y-104851222D01*
X111857693Y-104851224D01*
X111706517Y-104913843D01*
X111570457Y-105004754D01*
X111454757Y-105120454D01*
X111454751Y-105120461D01*
X111425793Y-105163798D01*
X111415399Y-105177255D01*
X111397145Y-105197803D01*
X111093360Y-105657897D01*
X111077562Y-105677254D01*
X110601193Y-106153624D01*
X110133920Y-106620897D01*
X110133917Y-106620900D01*
X110082387Y-106672430D01*
X110035898Y-106718919D01*
X110035897Y-106718920D01*
X109971823Y-106814812D01*
X109971824Y-106814813D01*
X109958894Y-106834164D01*
X109958887Y-106834176D01*
X109905842Y-106962239D01*
X109905841Y-106962243D01*
X109878799Y-107098189D01*
X109878799Y-107195500D01*
X109859114Y-107262539D01*
X109806310Y-107308294D01*
X109754799Y-107319500D01*
X109124471Y-107319500D01*
X109124465Y-107319500D01*
X109124464Y-107319501D01*
X109121334Y-107319779D01*
X109116971Y-107320167D01*
X109048453Y-107306491D01*
X108998206Y-107257942D01*
X108982000Y-107196653D01*
X108982000Y-106524543D01*
X109001685Y-106457504D01*
X109018314Y-106436867D01*
X116788579Y-98666602D01*
X116788583Y-98666600D01*
X116886600Y-98568583D01*
X116963611Y-98453327D01*
X117016657Y-98325262D01*
X117016657Y-98325259D01*
X117016659Y-98325255D01*
X117020321Y-98306839D01*
X117023953Y-98288585D01*
X117040448Y-98205653D01*
X117072832Y-98143746D01*
X117133547Y-98109171D01*
X117203317Y-98112910D01*
X117249746Y-98142166D01*
X120909878Y-101802298D01*
X121021980Y-101914400D01*
X121021982Y-101914401D01*
X121028431Y-101919350D01*
X121027499Y-101920563D01*
X121069401Y-101964500D01*
X121082631Y-102033105D01*
X121069676Y-102077626D01*
X120975944Y-102261585D01*
X120910253Y-102463760D01*
X120877000Y-102673713D01*
X120877000Y-102886286D01*
X120909873Y-103093842D01*
X120910254Y-103096243D01*
X120967176Y-103271431D01*
X120975944Y-103298414D01*
X121072451Y-103487820D01*
X121197390Y-103659786D01*
X121347709Y-103810105D01*
X121347714Y-103810109D01*
X121512293Y-103929682D01*
X121554959Y-103985011D01*
X121560938Y-104054625D01*
X121528333Y-104116420D01*
X121512293Y-104130318D01*
X121347714Y-104249890D01*
X121347709Y-104249894D01*
X121197390Y-104400213D01*
X121072451Y-104572179D01*
X120975944Y-104761585D01*
X120910253Y-104963760D01*
X120885434Y-105120461D01*
X120877000Y-105173713D01*
X120877000Y-105386287D01*
X120880391Y-105407694D01*
X120905809Y-105568183D01*
X120910254Y-105596243D01*
X120969898Y-105779809D01*
X120975944Y-105798414D01*
X121072451Y-105987820D01*
X121197390Y-106159786D01*
X121347713Y-106310109D01*
X121519679Y-106435048D01*
X121519681Y-106435049D01*
X121519684Y-106435051D01*
X121709088Y-106531557D01*
X121911257Y-106597246D01*
X122121213Y-106630500D01*
X122121214Y-106630500D01*
X122583786Y-106630500D01*
X122583787Y-106630500D01*
X122793743Y-106597246D01*
X122995912Y-106531557D01*
X123185316Y-106435051D01*
X123241291Y-106394383D01*
X123357286Y-106310109D01*
X123357288Y-106310106D01*
X123357292Y-106310104D01*
X123507604Y-106159792D01*
X123507606Y-106159788D01*
X123507609Y-106159786D01*
X123632548Y-105987820D01*
X123632547Y-105987820D01*
X123632551Y-105987816D01*
X123729057Y-105798412D01*
X123794746Y-105596243D01*
X123828000Y-105386287D01*
X123828000Y-105173713D01*
X123794746Y-104963757D01*
X123750906Y-104828834D01*
X123748912Y-104758998D01*
X123781154Y-104702843D01*
X124091800Y-104392198D01*
X124171068Y-104254901D01*
X124212100Y-104101768D01*
X124212100Y-103943232D01*
X124212100Y-103428029D01*
X124216325Y-103395936D01*
X124232200Y-103336691D01*
X124232200Y-103178155D01*
X124232200Y-102223309D01*
X124226650Y-102202598D01*
X124218573Y-102172452D01*
X124216325Y-102164062D01*
X124212100Y-102131970D01*
X124212100Y-101286428D01*
X124216325Y-101254335D01*
X124232200Y-101195090D01*
X124232200Y-101036554D01*
X124232200Y-99364910D01*
X124191167Y-99211776D01*
X124111900Y-99074480D01*
X123999798Y-98962378D01*
X123683020Y-98645600D01*
X123626381Y-98612900D01*
X123626381Y-98612899D01*
X123626379Y-98612899D01*
X123545726Y-98566334D01*
X123545725Y-98566333D01*
X123494679Y-98552655D01*
X123392590Y-98525300D01*
X123392588Y-98525300D01*
X121578160Y-98525300D01*
X121511121Y-98505615D01*
X121490479Y-98488981D01*
X118438419Y-95436921D01*
X118423715Y-95409993D01*
X118407123Y-95384175D01*
X118406231Y-95377974D01*
X118404934Y-95375598D01*
X118402100Y-95349240D01*
X118402100Y-95336012D01*
X118421785Y-95268973D01*
X118451175Y-95237208D01*
X118493896Y-95204812D01*
X118557090Y-95156890D01*
X118644021Y-95042255D01*
X118696799Y-94908418D01*
X118706900Y-94824308D01*
X118706900Y-94635692D01*
X118696799Y-94551582D01*
X118695851Y-94543688D01*
X118697616Y-94543475D01*
X118695688Y-94513474D01*
X118706399Y-94424277D01*
X118706399Y-94235730D01*
X118695687Y-94146521D01*
X118695365Y-94119949D01*
X118696359Y-94109531D01*
X118696799Y-94108418D01*
X118706900Y-94024308D01*
X118706900Y-93999172D01*
X118707462Y-93993288D01*
X118718339Y-93966118D01*
X118726585Y-93938038D01*
X118732541Y-93930646D01*
X118733431Y-93928424D01*
X118735545Y-93926918D01*
X118743219Y-93917396D01*
X118978917Y-93681698D01*
X118978919Y-93681696D01*
X118985389Y-93670489D01*
X119057318Y-93545905D01*
X119074649Y-93481224D01*
X119097901Y-93394449D01*
X119097901Y-93237651D01*
X119097901Y-93230056D01*
X119097900Y-93230038D01*
X119097900Y-92894465D01*
X119117585Y-92827426D01*
X119170389Y-92781671D01*
X119239547Y-92771727D01*
X119303103Y-92800752D01*
X119339606Y-92855461D01*
X119370641Y-92949119D01*
X119370643Y-92949124D01*
X119462684Y-93098345D01*
X119586655Y-93222316D01*
X119586659Y-93222319D01*
X119589656Y-93224168D01*
X119591279Y-93225972D01*
X119592323Y-93226798D01*
X119592181Y-93226976D01*
X119636381Y-93276116D01*
X119647602Y-93345079D01*
X119619759Y-93409161D01*
X119589661Y-93435241D01*
X119586349Y-93437283D01*
X119586343Y-93437288D01*
X119462289Y-93561342D01*
X119370187Y-93710663D01*
X119370185Y-93710668D01*
X119368102Y-93716954D01*
X119315001Y-93877203D01*
X119315001Y-93877204D01*
X119315000Y-93877204D01*
X119304500Y-93979983D01*
X119304500Y-94580001D01*
X119304501Y-94580019D01*
X119315000Y-94682796D01*
X119315001Y-94682799D01*
X119348209Y-94783012D01*
X119370186Y-94849334D01*
X119462288Y-94998656D01*
X119586344Y-95122712D01*
X119735666Y-95214814D01*
X119902203Y-95269999D01*
X120004991Y-95280500D01*
X121055008Y-95280499D01*
X121055016Y-95280498D01*
X121055019Y-95280498D01*
X121152892Y-95270500D01*
X121157797Y-95269999D01*
X121324334Y-95214814D01*
X121463012Y-95129277D01*
X121530402Y-95110838D01*
X121593200Y-95129277D01*
X121715666Y-95204814D01*
X121882203Y-95259999D01*
X121984991Y-95270500D01*
X123035008Y-95270499D01*
X123035016Y-95270498D01*
X123035019Y-95270498D01*
X123105511Y-95263297D01*
X123137797Y-95259999D01*
X123304334Y-95204814D01*
X123453656Y-95112712D01*
X123577712Y-94988656D01*
X123669814Y-94839334D01*
X123724999Y-94672797D01*
X123735500Y-94570009D01*
X123735499Y-93969992D01*
X123734109Y-93956389D01*
X123724999Y-93867203D01*
X123724998Y-93867200D01*
X123703156Y-93801285D01*
X123669814Y-93700666D01*
X123577712Y-93551344D01*
X123453656Y-93427288D01*
X123450342Y-93425243D01*
X123448546Y-93423248D01*
X123447989Y-93422807D01*
X123448064Y-93422711D01*
X123403618Y-93373297D01*
X123392397Y-93304334D01*
X123420240Y-93240252D01*
X123450348Y-93214165D01*
X123453342Y-93212318D01*
X123577315Y-93088345D01*
X123669356Y-92939124D01*
X123669358Y-92939119D01*
X123724505Y-92772697D01*
X123724506Y-92772690D01*
X123734999Y-92669986D01*
X123735000Y-92669973D01*
X123735000Y-92620000D01*
X121863120Y-92620000D01*
X121849996Y-92627166D01*
X121823638Y-92630000D01*
X120654000Y-92630000D01*
X120586961Y-92610315D01*
X120541206Y-92557511D01*
X120530000Y-92506000D01*
X120530000Y-92380000D01*
X120404000Y-92380000D01*
X120336961Y-92360315D01*
X120291206Y-92307511D01*
X120280000Y-92256000D01*
X120280000Y-91380000D01*
X120780000Y-91380000D01*
X120780000Y-92130000D01*
X121176880Y-92130000D01*
X121190004Y-92122834D01*
X121216362Y-92120000D01*
X122260000Y-92120000D01*
X122760000Y-92120000D01*
X123734999Y-92120000D01*
X123734999Y-92070028D01*
X123734998Y-92070013D01*
X123724505Y-91967302D01*
X123669358Y-91800880D01*
X123669356Y-91800875D01*
X123577315Y-91651654D01*
X123453345Y-91527684D01*
X123304124Y-91435643D01*
X123304119Y-91435641D01*
X123137697Y-91380494D01*
X123137690Y-91380493D01*
X123034986Y-91370000D01*
X122760000Y-91370000D01*
X122760000Y-92120000D01*
X122260000Y-92120000D01*
X122260000Y-91370000D01*
X121985029Y-91370000D01*
X121985012Y-91370001D01*
X121882302Y-91380494D01*
X121715880Y-91435641D01*
X121715871Y-91435645D01*
X121576989Y-91521308D01*
X121509597Y-91539748D01*
X121446796Y-91521308D01*
X121324124Y-91445643D01*
X121324119Y-91445641D01*
X121157697Y-91390494D01*
X121157690Y-91390493D01*
X121054986Y-91380000D01*
X120780000Y-91380000D01*
X120280000Y-91380000D01*
X120005029Y-91380000D01*
X120005012Y-91380001D01*
X119902302Y-91390494D01*
X119735880Y-91445641D01*
X119735875Y-91445643D01*
X119586654Y-91537684D01*
X119462684Y-91661654D01*
X119370643Y-91810875D01*
X119370641Y-91810880D01*
X119339606Y-91904539D01*
X119330647Y-91917477D01*
X119326215Y-91932574D01*
X119311168Y-91945611D01*
X119299833Y-91961984D01*
X119285302Y-91968025D01*
X119273411Y-91978329D01*
X119253703Y-91981162D01*
X119235317Y-91988807D01*
X119219828Y-91986033D01*
X119204253Y-91988273D01*
X119186140Y-91980001D01*
X119166542Y-91976492D01*
X119155011Y-91965785D01*
X119140697Y-91959248D01*
X119129931Y-91942496D01*
X119115342Y-91928949D01*
X119110940Y-91912944D01*
X119102923Y-91900470D01*
X119097900Y-91865535D01*
X119097900Y-91843920D01*
X119100658Y-91817912D01*
X119101711Y-91813004D01*
X119102463Y-91809498D01*
X119137467Y-91299253D01*
X119137727Y-91293780D01*
X119139970Y-91275485D01*
X119140700Y-91271817D01*
X119140700Y-91108183D01*
X119140700Y-91108180D01*
X119108777Y-90947699D01*
X119108776Y-90947698D01*
X119108776Y-90947694D01*
X119046156Y-90796516D01*
X118955247Y-90660460D01*
X118955245Y-90660457D01*
X118839542Y-90544754D01*
X118742318Y-90479792D01*
X118703484Y-90453844D01*
X118552306Y-90391224D01*
X118552300Y-90391222D01*
X118391819Y-90359300D01*
X118391817Y-90359300D01*
X118349075Y-90359300D01*
X118282036Y-90339615D01*
X118236281Y-90286811D01*
X118225075Y-90235300D01*
X118225075Y-88956859D01*
X118226187Y-88930208D01*
X118225075Y-88919246D01*
X118225075Y-88837976D01*
X118225076Y-88837963D01*
X118225076Y-88671177D01*
X118217128Y-88641517D01*
X118187157Y-88529665D01*
X118183566Y-88510089D01*
X118183096Y-88505460D01*
X118171333Y-88389500D01*
X118170824Y-88379448D01*
X118170700Y-88378189D01*
X118170700Y-88378183D01*
X118170698Y-88378176D01*
X118170651Y-88377692D01*
X118169051Y-88367019D01*
X118168069Y-88357327D01*
X118165197Y-88334301D01*
X118165039Y-88333234D01*
X118147847Y-88257676D01*
X118147845Y-88257672D01*
X118147658Y-88256849D01*
X118143560Y-88241747D01*
X118138776Y-88217694D01*
X118110926Y-88150457D01*
X118076158Y-88066519D01*
X117985245Y-87930457D01*
X117869542Y-87814754D01*
X117761128Y-87742315D01*
X117733484Y-87723844D01*
X117718634Y-87717693D01*
X117582306Y-87661224D01*
X117582300Y-87661222D01*
X117421819Y-87629300D01*
X117421817Y-87629300D01*
X117329500Y-87629300D01*
X117262461Y-87609615D01*
X117216706Y-87556811D01*
X117205500Y-87505300D01*
X117205500Y-85684133D01*
X117205500Y-85684132D01*
X117164467Y-85530998D01*
X117085200Y-85393702D01*
X116973098Y-85281600D01*
X114429698Y-82738200D01*
X114400294Y-82721224D01*
X114292402Y-82658933D01*
X114198834Y-82633861D01*
X114190250Y-82630103D01*
X114170376Y-82613423D01*
X114148223Y-82599920D01*
X114144048Y-82591326D01*
X114136731Y-82585185D01*
X114129029Y-82560407D01*
X114117695Y-82537073D01*
X114118829Y-82527588D01*
X114115993Y-82518464D01*
X114122909Y-82493457D01*
X114125990Y-82467697D01*
X114134440Y-82451413D01*
X114154355Y-82419126D01*
X114154358Y-82419119D01*
X114209505Y-82252697D01*
X114209506Y-82252690D01*
X114219999Y-82149986D01*
X114220000Y-82149973D01*
X114220000Y-81900000D01*
X113244000Y-81900000D01*
X113176961Y-81880315D01*
X113131206Y-81827511D01*
X113120000Y-81776000D01*
X113120000Y-81650000D01*
X112994000Y-81650000D01*
X112926961Y-81630315D01*
X112881206Y-81577511D01*
X112870000Y-81526000D01*
X112870000Y-81400000D01*
X113370000Y-81400000D01*
X114219999Y-81400000D01*
X114219999Y-81150028D01*
X114219998Y-81150013D01*
X114209505Y-81047302D01*
X114154358Y-80880880D01*
X114154356Y-80880875D01*
X114062315Y-80731654D01*
X113938345Y-80607684D01*
X113789124Y-80515643D01*
X113789119Y-80515641D01*
X113622697Y-80460494D01*
X113622690Y-80460493D01*
X113519986Y-80450000D01*
X113370000Y-80450000D01*
X113370000Y-81400000D01*
X112870000Y-81400000D01*
X112870000Y-80450000D01*
X112720027Y-80450000D01*
X112720012Y-80450001D01*
X112617302Y-80460494D01*
X112450880Y-80515641D01*
X112450875Y-80515643D01*
X112301657Y-80607682D01*
X112208034Y-80701305D01*
X112146710Y-80734789D01*
X112077019Y-80729805D01*
X112032672Y-80701304D01*
X111938657Y-80607289D01*
X111938656Y-80607288D01*
X111789334Y-80515186D01*
X111622797Y-80460001D01*
X111622795Y-80460000D01*
X111520010Y-80449500D01*
X110719998Y-80449500D01*
X110719980Y-80449501D01*
X110617203Y-80460000D01*
X110617200Y-80460001D01*
X110450668Y-80515185D01*
X110450663Y-80515187D01*
X110301342Y-80607289D01*
X110177289Y-80731342D01*
X110085187Y-80880663D01*
X110085185Y-80880668D01*
X110085115Y-80880880D01*
X110030001Y-81047203D01*
X110030001Y-81047204D01*
X110030000Y-81047204D01*
X110019500Y-81149983D01*
X110019500Y-82150001D01*
X110019501Y-82150019D01*
X110030000Y-82252796D01*
X110030001Y-82252799D01*
X110069419Y-82371754D01*
X110069954Y-82387318D01*
X110075397Y-82401910D01*
X110071130Y-82421522D01*
X110071821Y-82441583D01*
X110063651Y-82455907D01*
X110060546Y-82470184D01*
X110039395Y-82498438D01*
X109956255Y-82581580D01*
X109894933Y-82615066D01*
X109868573Y-82617900D01*
X104792960Y-82617900D01*
X104725921Y-82598215D01*
X104680166Y-82545411D01*
X104670222Y-82476253D01*
X104699247Y-82412697D01*
X104705279Y-82406219D01*
X104986431Y-82125066D01*
X105095662Y-82015834D01*
X105133399Y-81990019D01*
X105555441Y-81804340D01*
X105623484Y-81776156D01*
X105639156Y-81765683D01*
X105643278Y-81763655D01*
X105645037Y-81762693D01*
X105645285Y-81762524D01*
X105645288Y-81762523D01*
X105727928Y-81706374D01*
X105728642Y-81705891D01*
X105759540Y-81685247D01*
X105875247Y-81569540D01*
X105966156Y-81433484D01*
X106028776Y-81282306D01*
X106053083Y-81160111D01*
X106060700Y-81121819D01*
X106060700Y-80958180D01*
X106028777Y-80797699D01*
X106028776Y-80797698D01*
X106028776Y-80797694D01*
X105966156Y-80646516D01*
X105875247Y-80510460D01*
X105875245Y-80510457D01*
X105759542Y-80394754D01*
X105691512Y-80349298D01*
X105623484Y-80303844D01*
X105472306Y-80241224D01*
X105472300Y-80241222D01*
X105311819Y-80209300D01*
X105311817Y-80209300D01*
X105148183Y-80209300D01*
X105148181Y-80209300D01*
X104987699Y-80241222D01*
X104987693Y-80241224D01*
X104836517Y-80303843D01*
X104700457Y-80394754D01*
X104584754Y-80510457D01*
X104493842Y-80646519D01*
X104480319Y-80679166D01*
X104478186Y-80684019D01*
X104273135Y-81124738D01*
X104248389Y-81160111D01*
X103316921Y-82091581D01*
X103255598Y-82125066D01*
X103229240Y-82127900D01*
X93210732Y-82127900D01*
X93128308Y-82149986D01*
X93057597Y-82168933D01*
X92920303Y-82248199D01*
X92920300Y-82248201D01*
X92061406Y-83107094D01*
X92000083Y-83140579D01*
X91930391Y-83135595D01*
X91874458Y-83093723D01*
X91870641Y-83088330D01*
X91805247Y-82990460D01*
X91805246Y-82990459D01*
X91805245Y-82990457D01*
X91689542Y-82874754D01*
X91621512Y-82829298D01*
X91553484Y-82783844D01*
X91402306Y-82721224D01*
X91402300Y-82721222D01*
X91241819Y-82689300D01*
X91241817Y-82689300D01*
X91078183Y-82689300D01*
X91078181Y-82689300D01*
X90917699Y-82721222D01*
X90917693Y-82721224D01*
X90766517Y-82783843D01*
X90630457Y-82874754D01*
X90514752Y-82990459D01*
X90423848Y-83126508D01*
X90423845Y-83126514D01*
X90397006Y-83191305D01*
X90395912Y-83193863D01*
X90209751Y-83616201D01*
X90183966Y-83653868D01*
X89529452Y-84308382D01*
X89468129Y-84341867D01*
X89398437Y-84336883D01*
X89342504Y-84295011D01*
X89320154Y-84244892D01*
X89308777Y-84187701D01*
X89308776Y-84187694D01*
X89246156Y-84036516D01*
X89155247Y-83900460D01*
X89155245Y-83900457D01*
X89039542Y-83784754D01*
X88916853Y-83702777D01*
X88903484Y-83693844D01*
X88806973Y-83653868D01*
X88752306Y-83631224D01*
X88752300Y-83631222D01*
X88591819Y-83599300D01*
X88591817Y-83599300D01*
X88428183Y-83599300D01*
X88428181Y-83599300D01*
X88267699Y-83631222D01*
X88267693Y-83631224D01*
X88116515Y-83693844D01*
X88111146Y-83696714D01*
X88110990Y-83696423D01*
X88099213Y-83702777D01*
X87764610Y-83844661D01*
X87755865Y-83846438D01*
X87751137Y-83849477D01*
X87716202Y-83854500D01*
X87576011Y-83854500D01*
X87575995Y-83854499D01*
X87568399Y-83854499D01*
X87411601Y-83854499D01*
X87310573Y-83881570D01*
X87260143Y-83895082D01*
X87260142Y-83895083D01*
X87124357Y-83973479D01*
X87124351Y-83973483D01*
X87061319Y-84036516D01*
X87013481Y-84084354D01*
X87013479Y-84084356D01*
X84526678Y-86571157D01*
X82036913Y-89060921D01*
X82036912Y-89060921D01*
X82036913Y-89060922D01*
X81943480Y-89154355D01*
X81943479Y-89154357D01*
X81865083Y-89290142D01*
X81865082Y-89290145D01*
X81863084Y-89297602D01*
X81824499Y-89441601D01*
X81824499Y-89608388D01*
X81824500Y-89608401D01*
X81824500Y-93889350D01*
X81804815Y-93956389D01*
X81788181Y-93977031D01*
X81774755Y-93990456D01*
X81774754Y-93990457D01*
X81683843Y-94126517D01*
X81621224Y-94277693D01*
X81621222Y-94277699D01*
X81589300Y-94438180D01*
X81589300Y-94438183D01*
X81589300Y-94601817D01*
X81589300Y-94601819D01*
X81589299Y-94601819D01*
X81621222Y-94762300D01*
X81621224Y-94762306D01*
X81681745Y-94908418D01*
X81683844Y-94913484D01*
X81729298Y-94981512D01*
X81774754Y-95049542D01*
X81890457Y-95165245D01*
X81890460Y-95165247D01*
X82026516Y-95256156D01*
X82177694Y-95318776D01*
X82177698Y-95318776D01*
X82177699Y-95318777D01*
X82338180Y-95350700D01*
X82338183Y-95350700D01*
X82501819Y-95350700D01*
X82652422Y-95320742D01*
X82662306Y-95318776D01*
X82813484Y-95256156D01*
X82949540Y-95165247D01*
X83065247Y-95049540D01*
X83156156Y-94913484D01*
X83218776Y-94762306D01*
X83245793Y-94626485D01*
X83250700Y-94601819D01*
X83250700Y-94438180D01*
X83218777Y-94277699D01*
X83218776Y-94277698D01*
X83218776Y-94277694D01*
X83156156Y-94126516D01*
X83065247Y-93990460D01*
X83065245Y-93990457D01*
X83051819Y-93977031D01*
X83018334Y-93915708D01*
X83015500Y-93889350D01*
X83015500Y-89818026D01*
X83035185Y-89750987D01*
X83051819Y-89730345D01*
X85351707Y-87430457D01*
X87686121Y-85096042D01*
X87747442Y-85062559D01*
X87815200Y-85066840D01*
X88240080Y-85217338D01*
X88267694Y-85228776D01*
X88283209Y-85231862D01*
X88298261Y-85236601D01*
X88299850Y-85237040D01*
X88321754Y-85241045D01*
X88384159Y-85272467D01*
X88419670Y-85332639D01*
X88417012Y-85402458D01*
X88387131Y-85450704D01*
X84176913Y-89660921D01*
X84176912Y-89660921D01*
X84176913Y-89660922D01*
X84083480Y-89754355D01*
X84083479Y-89754357D01*
X84005081Y-89890145D01*
X84001275Y-89904353D01*
X84001275Y-89904354D01*
X83968226Y-90027694D01*
X83964499Y-90041602D01*
X83964499Y-90208388D01*
X83964500Y-90208401D01*
X83964500Y-97067742D01*
X83944815Y-97134781D01*
X83928181Y-97155423D01*
X82819311Y-98264292D01*
X82793638Y-98283993D01*
X82785688Y-98288583D01*
X82785684Y-98288586D01*
X80150882Y-100923388D01*
X80089559Y-100956873D01*
X80058154Y-100959023D01*
X80058132Y-100959596D01*
X80055701Y-100959500D01*
X80055694Y-100959500D01*
X79624306Y-100959500D01*
X79624298Y-100959500D01*
X79587432Y-100962401D01*
X79587426Y-100962402D01*
X79429606Y-101008254D01*
X79429603Y-101008255D01*
X79288137Y-101091917D01*
X79281969Y-101096702D01*
X79280072Y-101094256D01*
X79231358Y-101120857D01*
X79161666Y-101115873D01*
X79129296Y-101095069D01*
X79128031Y-101096702D01*
X79121862Y-101091917D01*
X79028765Y-101036860D01*
X78980398Y-101008256D01*
X78980397Y-101008255D01*
X78980396Y-101008255D01*
X78980393Y-101008254D01*
X78822573Y-100962402D01*
X78822567Y-100962401D01*
X78785701Y-100959500D01*
X78785694Y-100959500D01*
X78354306Y-100959500D01*
X78354298Y-100959500D01*
X78317432Y-100962401D01*
X78317426Y-100962402D01*
X78159606Y-101008254D01*
X78159603Y-101008255D01*
X78089221Y-101049879D01*
X78082696Y-101051534D01*
X78077611Y-101055941D01*
X78049264Y-101060016D01*
X78021497Y-101067062D01*
X78015113Y-101064927D01*
X78008453Y-101065885D01*
X77982399Y-101053986D01*
X77955234Y-101044902D01*
X77951018Y-101039655D01*
X77944897Y-101036860D01*
X77929412Y-101012765D01*
X77911471Y-100990436D01*
X77909869Y-100982356D01*
X77907123Y-100978082D01*
X77902100Y-100943147D01*
X77902100Y-100832022D01*
X77910069Y-100788286D01*
X77927567Y-100741863D01*
X78078591Y-100341197D01*
X78080022Y-100337579D01*
X78098776Y-100292306D01*
X78100813Y-100282058D01*
X78104189Y-100269285D01*
X78104158Y-100269276D01*
X78104578Y-100267811D01*
X78104739Y-100267202D01*
X78104850Y-100266870D01*
X78105370Y-100265060D01*
X78122875Y-100172027D01*
X78122874Y-100172025D01*
X78124239Y-100164777D01*
X78124271Y-100164783D01*
X78124527Y-100162846D01*
X78130700Y-100131817D01*
X78130700Y-99968183D01*
X78130700Y-99968180D01*
X78098777Y-99807699D01*
X78098776Y-99807698D01*
X78098776Y-99807694D01*
X78036156Y-99656516D01*
X77945247Y-99520460D01*
X77945245Y-99520457D01*
X77829542Y-99404754D01*
X77761512Y-99359298D01*
X77693484Y-99313844D01*
X77647930Y-99294975D01*
X77542306Y-99251224D01*
X77542300Y-99251222D01*
X77381819Y-99219300D01*
X77381817Y-99219300D01*
X77218183Y-99219300D01*
X77218181Y-99219300D01*
X77057699Y-99251222D01*
X77057693Y-99251224D01*
X76906517Y-99313843D01*
X76770457Y-99404754D01*
X76654754Y-99520457D01*
X76563843Y-99656517D01*
X76501224Y-99807693D01*
X76501222Y-99807699D01*
X76469300Y-99968180D01*
X76469300Y-99968183D01*
X76469300Y-100131817D01*
X76469300Y-100131819D01*
X76469299Y-100131819D01*
X76501223Y-100292304D01*
X76501224Y-100292307D01*
X76519953Y-100337525D01*
X76521422Y-100341240D01*
X76630494Y-100630602D01*
X76662991Y-100716817D01*
X76689931Y-100788286D01*
X76697900Y-100832022D01*
X76697900Y-101090791D01*
X76678215Y-101157830D01*
X76661581Y-101178472D01*
X76631923Y-101208129D01*
X76631917Y-101208137D01*
X76548255Y-101349603D01*
X76548254Y-101349606D01*
X76502402Y-101507426D01*
X76502401Y-101507432D01*
X76499500Y-101544298D01*
X76499500Y-103325701D01*
X76502401Y-103362567D01*
X76502402Y-103362573D01*
X76548254Y-103520393D01*
X76548255Y-103520396D01*
X76631917Y-103661862D01*
X76631923Y-103661870D01*
X76748129Y-103778076D01*
X76748133Y-103778079D01*
X76748135Y-103778081D01*
X76889602Y-103861744D01*
X76931224Y-103873836D01*
X77047426Y-103907597D01*
X77047429Y-103907597D01*
X77047431Y-103907598D01*
X77084306Y-103910500D01*
X77084314Y-103910500D01*
X77515686Y-103910500D01*
X77515694Y-103910500D01*
X77552569Y-103907598D01*
X77552571Y-103907597D01*
X77552573Y-103907597D01*
X77594191Y-103895505D01*
X77710398Y-103861744D01*
X77851865Y-103778081D01*
X77851870Y-103778075D01*
X77858031Y-103773298D01*
X77859933Y-103775750D01*
X77908579Y-103749155D01*
X77978274Y-103754104D01*
X78010695Y-103774940D01*
X78011969Y-103773298D01*
X78018132Y-103778078D01*
X78018135Y-103778081D01*
X78159602Y-103861744D01*
X78201224Y-103873836D01*
X78317426Y-103907597D01*
X78317429Y-103907597D01*
X78317431Y-103907598D01*
X78354306Y-103910500D01*
X78537640Y-103910500D01*
X78604679Y-103930185D01*
X78625321Y-103946819D01*
X78988200Y-104309698D01*
X79100302Y-104421800D01*
X79237598Y-104501067D01*
X79390732Y-104542100D01*
X82419370Y-104542100D01*
X82448810Y-104550744D01*
X82478797Y-104557268D01*
X82483812Y-104561022D01*
X82486409Y-104561785D01*
X82507051Y-104578419D01*
X82560951Y-104632319D01*
X82594436Y-104693642D01*
X82589452Y-104763334D01*
X82560951Y-104807681D01*
X82467289Y-104901342D01*
X82375187Y-105050663D01*
X82375185Y-105050668D01*
X82352058Y-105120461D01*
X82320001Y-105217203D01*
X82320001Y-105217204D01*
X82320000Y-105217204D01*
X82309500Y-105319983D01*
X82309500Y-106017639D01*
X82289815Y-106084678D01*
X82273181Y-106105320D01*
X82055481Y-106323019D01*
X81994158Y-106356504D01*
X81924466Y-106351520D01*
X81868533Y-106309648D01*
X81861068Y-106298459D01*
X81795120Y-106186946D01*
X81778081Y-106158135D01*
X81778079Y-106158133D01*
X81778076Y-106158129D01*
X81661870Y-106041923D01*
X81661862Y-106041917D01*
X81520396Y-105958255D01*
X81520393Y-105958254D01*
X81362573Y-105912402D01*
X81362567Y-105912401D01*
X81325701Y-105909500D01*
X81325694Y-105909500D01*
X80894306Y-105909500D01*
X80894298Y-105909500D01*
X80857432Y-105912401D01*
X80857426Y-105912402D01*
X80699606Y-105958254D01*
X80699603Y-105958255D01*
X80558137Y-106041917D01*
X80551969Y-106046702D01*
X80550072Y-106044256D01*
X80501358Y-106070857D01*
X80431666Y-106065873D01*
X80399296Y-106045069D01*
X80398031Y-106046702D01*
X80391862Y-106041917D01*
X80250396Y-105958255D01*
X80250393Y-105958254D01*
X80092573Y-105912402D01*
X80092567Y-105912401D01*
X80055701Y-105909500D01*
X80055694Y-105909500D01*
X79624306Y-105909500D01*
X79624298Y-105909500D01*
X79587432Y-105912401D01*
X79587426Y-105912402D01*
X79429606Y-105958254D01*
X79429603Y-105958255D01*
X79288137Y-106041917D01*
X79281969Y-106046702D01*
X79280072Y-106044256D01*
X79231358Y-106070857D01*
X79161666Y-106065873D01*
X79129296Y-106045069D01*
X79128031Y-106046702D01*
X79121862Y-106041917D01*
X78980396Y-105958255D01*
X78980393Y-105958254D01*
X78822573Y-105912402D01*
X78822567Y-105912401D01*
X78785701Y-105909500D01*
X78785694Y-105909500D01*
X78354306Y-105909500D01*
X78354298Y-105909500D01*
X78317432Y-105912401D01*
X78317426Y-105912402D01*
X78159606Y-105958254D01*
X78159603Y-105958255D01*
X78018137Y-106041917D01*
X78011969Y-106046702D01*
X78010072Y-106044256D01*
X77961358Y-106070857D01*
X77891666Y-106065873D01*
X77859296Y-106045069D01*
X77858031Y-106046702D01*
X77851862Y-106041917D01*
X77710396Y-105958255D01*
X77710393Y-105958254D01*
X77552573Y-105912402D01*
X77552567Y-105912401D01*
X77515701Y-105909500D01*
X77515694Y-105909500D01*
X77084306Y-105909500D01*
X77084298Y-105909500D01*
X77047432Y-105912401D01*
X77047426Y-105912402D01*
X76889606Y-105958254D01*
X76889603Y-105958255D01*
X76748137Y-106041917D01*
X76748129Y-106041923D01*
X76631923Y-106158129D01*
X76631917Y-106158137D01*
X76548255Y-106299603D01*
X76548254Y-106299606D01*
X76502402Y-106457426D01*
X76502401Y-106457432D01*
X76499500Y-106494298D01*
X76499500Y-108275701D01*
X76502401Y-108312567D01*
X76502402Y-108312573D01*
X76548254Y-108470393D01*
X76548255Y-108470396D01*
X76548256Y-108470398D01*
X76550972Y-108474990D01*
X76631917Y-108611862D01*
X76631923Y-108611870D01*
X76748129Y-108728076D01*
X76748133Y-108728079D01*
X76748135Y-108728081D01*
X76889602Y-108811744D01*
X76889609Y-108811746D01*
X77047426Y-108857597D01*
X77047429Y-108857597D01*
X77047431Y-108857598D01*
X77084306Y-108860500D01*
X77084314Y-108860500D01*
X77515686Y-108860500D01*
X77515694Y-108860500D01*
X77552569Y-108857598D01*
X77552571Y-108857597D01*
X77552573Y-108857597D01*
X77710392Y-108811746D01*
X77710392Y-108811745D01*
X77710398Y-108811744D01*
X77780782Y-108770118D01*
X77848502Y-108752937D01*
X77914765Y-108775097D01*
X77958528Y-108829562D01*
X77967900Y-108876852D01*
X77967900Y-111979268D01*
X77977904Y-112016603D01*
X78008933Y-112132403D01*
X78008935Y-112132408D01*
X78068852Y-112236187D01*
X78068853Y-112236187D01*
X78071046Y-112239986D01*
X78081269Y-112257694D01*
X78088200Y-112269698D01*
X80533200Y-114714698D01*
X80645302Y-114826800D01*
X80782598Y-114906067D01*
X80935732Y-114947100D01*
X82577977Y-114947100D01*
X82621713Y-114955069D01*
X83062517Y-115121224D01*
X83070643Y-115124287D01*
X83117694Y-115143776D01*
X83135476Y-115147313D01*
X83143129Y-115149850D01*
X83144939Y-115150370D01*
X83237972Y-115167875D01*
X83237973Y-115167874D01*
X83245223Y-115169239D01*
X83245216Y-115169271D01*
X83247157Y-115169527D01*
X83278183Y-115175700D01*
X83441819Y-115175700D01*
X83549785Y-115154223D01*
X83602306Y-115143776D01*
X83647574Y-115125025D01*
X83651165Y-115123604D01*
X84098285Y-114955068D01*
X84142021Y-114947100D01*
X85514266Y-114947100D01*
X85514268Y-114947100D01*
X85667402Y-114906067D01*
X85804698Y-114826800D01*
X85916800Y-114714698D01*
X87221800Y-113409698D01*
X87301068Y-113272401D01*
X87342100Y-113119268D01*
X87342100Y-112960732D01*
X87342100Y-106490732D01*
X87337264Y-106472683D01*
X87301068Y-106337599D01*
X87251075Y-106251008D01*
X87221802Y-106200305D01*
X87221798Y-106200300D01*
X87186818Y-106165320D01*
X87153333Y-106103997D01*
X87150499Y-106077639D01*
X87150499Y-105379998D01*
X87150498Y-105379981D01*
X87139999Y-105277203D01*
X87139998Y-105277200D01*
X87120117Y-105217203D01*
X87084814Y-105110666D01*
X86992712Y-104961344D01*
X86899049Y-104867681D01*
X86865564Y-104806358D01*
X86870548Y-104736666D01*
X86899049Y-104692319D01*
X86940844Y-104650524D01*
X86992712Y-104598656D01*
X87084814Y-104449334D01*
X87139999Y-104282797D01*
X87150500Y-104180009D01*
X87150499Y-103379992D01*
X87146075Y-103336688D01*
X87139999Y-103277203D01*
X87139998Y-103277200D01*
X87108184Y-103181192D01*
X87084814Y-103110666D01*
X86992712Y-102961344D01*
X86868656Y-102837288D01*
X86719334Y-102745186D01*
X86552797Y-102690001D01*
X86552795Y-102690000D01*
X86450016Y-102679500D01*
X86450009Y-102679500D01*
X85752360Y-102679500D01*
X85685321Y-102659815D01*
X85664679Y-102643181D01*
X84974701Y-101953202D01*
X84974698Y-101953200D01*
X84962709Y-101946278D01*
X84962708Y-101946277D01*
X84837402Y-101873933D01*
X84837403Y-101873933D01*
X84786357Y-101860255D01*
X84684268Y-101832900D01*
X84684266Y-101832900D01*
X82034500Y-101832900D01*
X81967461Y-101813215D01*
X81921706Y-101760411D01*
X81910500Y-101708900D01*
X81910500Y-101544313D01*
X81910499Y-101544298D01*
X81907598Y-101507432D01*
X81907597Y-101507426D01*
X81861745Y-101349606D01*
X81861744Y-101349603D01*
X81861744Y-101349602D01*
X81778081Y-101208135D01*
X81778079Y-101208133D01*
X81778076Y-101208129D01*
X81761288Y-101191341D01*
X81727803Y-101130018D01*
X81732787Y-101060326D01*
X81761286Y-101015981D01*
X83637185Y-99140083D01*
X83641771Y-99132137D01*
X83661474Y-99106459D01*
X84606219Y-98161715D01*
X84667542Y-98128230D01*
X84737234Y-98133214D01*
X84793167Y-98175086D01*
X84817584Y-98240550D01*
X84817900Y-98249396D01*
X84817900Y-98727975D01*
X84809931Y-98771711D01*
X84641873Y-99217559D01*
X84641847Y-99217632D01*
X84640713Y-99220641D01*
X84621224Y-99267694D01*
X84617686Y-99285479D01*
X84615137Y-99293170D01*
X84615073Y-99293389D01*
X84615066Y-99293412D01*
X84614621Y-99294964D01*
X84614618Y-99294975D01*
X84595770Y-99395169D01*
X84595738Y-99395163D01*
X84595479Y-99397111D01*
X84589300Y-99428179D01*
X84589300Y-99428183D01*
X84589300Y-99591817D01*
X84589300Y-99591819D01*
X84589299Y-99591819D01*
X84621222Y-99752300D01*
X84621224Y-99752306D01*
X84683843Y-99903482D01*
X84774754Y-100039542D01*
X84890457Y-100155245D01*
X84890460Y-100155247D01*
X85026516Y-100246156D01*
X85177694Y-100308776D01*
X85177698Y-100308776D01*
X85177699Y-100308777D01*
X85338180Y-100340700D01*
X85338183Y-100340700D01*
X85501819Y-100340700D01*
X85609785Y-100319223D01*
X85662306Y-100308776D01*
X85813484Y-100246156D01*
X85949540Y-100155247D01*
X86065247Y-100039540D01*
X86156156Y-99903484D01*
X86218776Y-99752306D01*
X86247619Y-99607306D01*
X86250700Y-99591819D01*
X86250700Y-99428180D01*
X86218777Y-99267699D01*
X86218774Y-99267688D01*
X86200049Y-99222484D01*
X86198596Y-99218813D01*
X86030069Y-98771712D01*
X86022100Y-98727976D01*
X86022100Y-90900759D01*
X86041785Y-90833720D01*
X86058414Y-90813083D01*
X88325675Y-88545821D01*
X88329139Y-88543930D01*
X88331243Y-88540586D01*
X88359556Y-88527320D01*
X88386996Y-88512338D01*
X88390936Y-88512619D01*
X88394513Y-88510944D01*
X88425495Y-88515091D01*
X88456688Y-88517322D01*
X88460981Y-88519841D01*
X88463765Y-88520214D01*
X88476327Y-88528845D01*
X88493641Y-88539005D01*
X88497477Y-88542264D01*
X88560460Y-88605247D01*
X88612666Y-88640129D01*
X88618119Y-88644762D01*
X88618284Y-88645014D01*
X88619428Y-88645890D01*
X88641398Y-88665090D01*
X88641400Y-88665091D01*
X88641402Y-88665093D01*
X88741061Y-88729735D01*
X88786592Y-88782731D01*
X88797582Y-88833767D01*
X88797582Y-90479792D01*
X88789180Y-90524660D01*
X88622626Y-90953771D01*
X88622608Y-90953818D01*
X88621656Y-90956273D01*
X88594306Y-91022305D01*
X88590629Y-91040789D01*
X88589033Y-91045492D01*
X88588475Y-91047402D01*
X88588466Y-91047447D01*
X88588464Y-91047454D01*
X88569637Y-91146300D01*
X88569444Y-91147290D01*
X88562382Y-91182794D01*
X88562382Y-91346428D01*
X88562382Y-91346430D01*
X88562381Y-91346430D01*
X88594304Y-91506911D01*
X88594306Y-91506917D01*
X88656925Y-91658093D01*
X88747836Y-91794153D01*
X88863539Y-91909856D01*
X88863542Y-91909858D01*
X88999598Y-92000767D01*
X89150776Y-92063387D01*
X89150780Y-92063387D01*
X89150781Y-92063388D01*
X89311262Y-92095311D01*
X89413900Y-92095311D01*
X89480939Y-92114996D01*
X89526694Y-92167800D01*
X89537900Y-92219311D01*
X89537900Y-100579240D01*
X89518215Y-100646279D01*
X89501581Y-100666921D01*
X88838201Y-101330300D01*
X88838199Y-101330303D01*
X88758933Y-101467597D01*
X88740291Y-101537169D01*
X88717900Y-101620732D01*
X88717900Y-105209268D01*
X88730561Y-105256517D01*
X88758933Y-105362403D01*
X88758934Y-105362404D01*
X88830960Y-105487157D01*
X88830962Y-105487160D01*
X88838202Y-105499701D01*
X90172666Y-106834164D01*
X91500302Y-108161800D01*
X91637599Y-108241068D01*
X91790732Y-108282100D01*
X91949268Y-108282100D01*
X91971942Y-108282100D01*
X92038981Y-108301785D01*
X92084736Y-108354589D01*
X92094680Y-108423747D01*
X92075044Y-108474990D01*
X91993844Y-108596513D01*
X91931224Y-108747693D01*
X91931222Y-108747699D01*
X91899300Y-108908180D01*
X91899300Y-108908183D01*
X91899300Y-109071817D01*
X91899300Y-109071819D01*
X91899299Y-109071819D01*
X91931222Y-109232300D01*
X91931224Y-109232306D01*
X91958073Y-109297125D01*
X91959110Y-109299711D01*
X92113503Y-109697499D01*
X92126098Y-109729948D01*
X92134500Y-109774815D01*
X92134500Y-111657486D01*
X92114815Y-111724525D01*
X92100951Y-111742307D01*
X91923132Y-111931929D01*
X91923076Y-111931991D01*
X91920896Y-111934316D01*
X91884753Y-111970460D01*
X91874641Y-111985593D01*
X91869264Y-111991816D01*
X91869147Y-111991962D01*
X91869138Y-111991973D01*
X91868096Y-111993283D01*
X91868085Y-111993299D01*
X91812363Y-112078681D01*
X91812322Y-112078654D01*
X91811424Y-112080203D01*
X91793846Y-112106511D01*
X91793843Y-112106516D01*
X91731224Y-112257693D01*
X91731222Y-112257699D01*
X91699300Y-112418180D01*
X91699300Y-112418183D01*
X91699300Y-112581817D01*
X91699300Y-112581819D01*
X91699299Y-112581819D01*
X91731222Y-112742300D01*
X91731224Y-112742306D01*
X91785478Y-112873288D01*
X91793844Y-112893484D01*
X91836490Y-112957309D01*
X91884754Y-113029542D01*
X92000457Y-113145245D01*
X92000460Y-113145247D01*
X92136516Y-113236156D01*
X92287694Y-113298776D01*
X92287698Y-113298776D01*
X92287699Y-113298777D01*
X92448180Y-113330700D01*
X92448183Y-113330700D01*
X92515962Y-113330700D01*
X92583001Y-113350385D01*
X92619001Y-113389393D01*
X92620460Y-113388419D01*
X92623843Y-113393482D01*
X92623844Y-113393484D01*
X92639502Y-113416918D01*
X92714754Y-113529542D01*
X92830457Y-113645245D01*
X92830460Y-113645247D01*
X92966516Y-113736156D01*
X93117694Y-113798776D01*
X93117698Y-113798776D01*
X93117699Y-113798777D01*
X93278180Y-113830700D01*
X93278183Y-113830700D01*
X93441819Y-113830700D01*
X93549785Y-113809223D01*
X93602306Y-113798776D01*
X93753484Y-113736156D01*
X93889540Y-113645247D01*
X94005247Y-113529540D01*
X94096156Y-113393484D01*
X94158776Y-113242306D01*
X94174483Y-113163343D01*
X94190700Y-113081819D01*
X94190700Y-112918182D01*
X94183006Y-112879505D01*
X94176024Y-112844407D01*
X94174356Y-112833500D01*
X94170608Y-112798636D01*
X94042418Y-112296413D01*
X94039352Y-112284401D01*
X94035500Y-112253734D01*
X94035500Y-111500013D01*
X95590000Y-111500013D01*
X95590000Y-111650000D01*
X96540000Y-111650000D01*
X97040000Y-111650000D01*
X97989999Y-111650000D01*
X97989999Y-111500028D01*
X97989998Y-111500013D01*
X97979505Y-111397302D01*
X97924358Y-111230880D01*
X97924356Y-111230875D01*
X97832315Y-111081654D01*
X97708345Y-110957684D01*
X97559124Y-110865643D01*
X97559119Y-110865641D01*
X97392697Y-110810494D01*
X97392690Y-110810493D01*
X97289986Y-110800000D01*
X97040000Y-110800000D01*
X97040000Y-111650000D01*
X96540000Y-111650000D01*
X96540000Y-110800000D01*
X96290029Y-110800000D01*
X96290012Y-110800001D01*
X96187302Y-110810494D01*
X96020880Y-110865641D01*
X96020875Y-110865643D01*
X95871654Y-110957684D01*
X95747684Y-111081654D01*
X95655643Y-111230875D01*
X95655641Y-111230880D01*
X95600494Y-111397302D01*
X95600493Y-111397309D01*
X95590000Y-111500013D01*
X94035500Y-111500013D01*
X94035500Y-110264814D01*
X94043902Y-110219947D01*
X94048844Y-110207215D01*
X94211382Y-109788439D01*
X94238776Y-109722306D01*
X94242438Y-109703891D01*
X94243960Y-109699415D01*
X94244521Y-109697499D01*
X94262741Y-109602000D01*
X94262740Y-109601998D01*
X94263470Y-109598177D01*
X94263624Y-109597388D01*
X94270700Y-109561817D01*
X94270700Y-109398183D01*
X94270700Y-109398180D01*
X94238777Y-109237699D01*
X94238776Y-109237698D01*
X94238776Y-109237694D01*
X94176156Y-109086516D01*
X94176155Y-109086513D01*
X94085676Y-108951101D01*
X94085673Y-108951098D01*
X94085244Y-108950456D01*
X94025867Y-108891079D01*
X94926576Y-108891079D01*
X94947056Y-109033535D01*
X94947057Y-109033539D01*
X95006843Y-109164450D01*
X95006846Y-109164455D01*
X95042741Y-109208997D01*
X95044464Y-109211135D01*
X95465720Y-109632390D01*
X95465724Y-109632393D01*
X95465726Y-109632395D01*
X95512401Y-109670010D01*
X95643315Y-109729797D01*
X95643316Y-109729797D01*
X95643318Y-109729798D01*
X95714547Y-109740038D01*
X95785775Y-109750279D01*
X95785775Y-109750278D01*
X95785776Y-109750279D01*
X95928233Y-109729798D01*
X96059149Y-109670010D01*
X96105831Y-109632391D01*
X96619776Y-109118446D01*
X96681099Y-109084961D01*
X96707457Y-109082127D01*
X97162260Y-109082127D01*
X97162265Y-109082128D01*
X97300881Y-109082128D01*
X97300886Y-109082127D01*
X97355583Y-109082127D01*
X97422622Y-109101812D01*
X97443264Y-109118446D01*
X98468181Y-110143363D01*
X98501666Y-110204686D01*
X98504500Y-110231042D01*
X98504500Y-110290000D01*
X98504501Y-110290019D01*
X98515000Y-110392796D01*
X98515001Y-110392799D01*
X98557318Y-110520500D01*
X98570186Y-110559334D01*
X98662288Y-110708656D01*
X98786344Y-110832712D01*
X98789628Y-110834737D01*
X98789653Y-110834753D01*
X98791445Y-110836746D01*
X98792011Y-110837193D01*
X98791934Y-110837289D01*
X98836379Y-110886699D01*
X98847603Y-110955661D01*
X98819761Y-111019744D01*
X98789665Y-111045826D01*
X98786660Y-111047679D01*
X98786655Y-111047683D01*
X98662684Y-111171654D01*
X98570643Y-111320875D01*
X98570641Y-111320880D01*
X98515494Y-111487302D01*
X98515493Y-111487309D01*
X98505000Y-111590013D01*
X98505000Y-111640000D01*
X100954999Y-111640000D01*
X100954999Y-111590028D01*
X100954998Y-111590013D01*
X100946770Y-111509466D01*
X100945804Y-111500013D01*
X101990000Y-111500013D01*
X101990000Y-111650000D01*
X102940000Y-111650000D01*
X103440000Y-111650000D01*
X104428638Y-111650000D01*
X104495677Y-111669685D01*
X104516319Y-111686319D01*
X104520000Y-111690000D01*
X105380000Y-111690000D01*
X105880000Y-111690000D01*
X106854999Y-111690000D01*
X106854999Y-111640028D01*
X106854998Y-111640013D01*
X106844505Y-111537302D01*
X106789358Y-111370880D01*
X106789356Y-111370875D01*
X106697315Y-111221654D01*
X106573345Y-111097684D01*
X106424124Y-111005643D01*
X106424119Y-111005641D01*
X106257697Y-110950494D01*
X106257690Y-110950493D01*
X106154986Y-110940000D01*
X105880000Y-110940000D01*
X105880000Y-111690000D01*
X105380000Y-111690000D01*
X105380000Y-110940000D01*
X105105029Y-110940000D01*
X105105012Y-110940001D01*
X105002302Y-110950494D01*
X104835880Y-111005641D01*
X104835875Y-111005643D01*
X104686654Y-111097684D01*
X104562682Y-111221656D01*
X104545243Y-111249930D01*
X104493294Y-111296654D01*
X104424332Y-111307875D01*
X104360250Y-111280031D01*
X104327322Y-111237235D01*
X104324358Y-111230880D01*
X104232315Y-111081654D01*
X104108345Y-110957684D01*
X103959124Y-110865643D01*
X103959119Y-110865641D01*
X103792697Y-110810494D01*
X103792690Y-110810493D01*
X103689986Y-110800000D01*
X103440000Y-110800000D01*
X103440000Y-111650000D01*
X102940000Y-111650000D01*
X102940000Y-110800000D01*
X102690029Y-110800000D01*
X102690012Y-110800001D01*
X102587302Y-110810494D01*
X102420880Y-110865641D01*
X102420875Y-110865643D01*
X102271654Y-110957684D01*
X102147684Y-111081654D01*
X102055643Y-111230875D01*
X102055641Y-111230880D01*
X102000494Y-111397302D01*
X102000493Y-111397309D01*
X101990000Y-111500013D01*
X100945804Y-111500013D01*
X100944505Y-111487302D01*
X100889358Y-111320880D01*
X100889356Y-111320875D01*
X100797315Y-111171654D01*
X100673344Y-111047683D01*
X100673341Y-111047681D01*
X100670339Y-111045829D01*
X100668713Y-111044021D01*
X100667677Y-111043202D01*
X100667817Y-111043024D01*
X100623617Y-110993880D01*
X100612397Y-110924917D01*
X100640243Y-110860836D01*
X100670344Y-110834754D01*
X100673656Y-110832712D01*
X100797712Y-110708656D01*
X100889814Y-110559334D01*
X100944999Y-110392797D01*
X100955500Y-110290009D01*
X100955499Y-109689992D01*
X100949615Y-109632395D01*
X100944999Y-109587203D01*
X100943496Y-109582666D01*
X100892230Y-109427959D01*
X100889829Y-109358135D01*
X100925560Y-109298093D01*
X100988080Y-109266900D01*
X101057540Y-109274460D01*
X101105790Y-109310294D01*
X101211546Y-109439158D01*
X101440841Y-109668453D01*
X101440846Y-109668457D01*
X101440847Y-109668458D01*
X101691524Y-109874183D01*
X101961158Y-110054347D01*
X101961167Y-110054352D01*
X101961169Y-110054353D01*
X102247145Y-110207211D01*
X102247147Y-110207211D01*
X102247153Y-110207215D01*
X102546754Y-110331314D01*
X102857077Y-110425449D01*
X102857083Y-110425450D01*
X102857086Y-110425451D01*
X102857097Y-110425454D01*
X103056528Y-110465122D01*
X103175132Y-110488714D01*
X103497857Y-110520500D01*
X103497860Y-110520500D01*
X103822140Y-110520500D01*
X103822143Y-110520500D01*
X104144868Y-110488714D01*
X104302295Y-110457399D01*
X104462902Y-110425454D01*
X104462913Y-110425451D01*
X104462913Y-110425450D01*
X104462923Y-110425449D01*
X104773246Y-110331314D01*
X105072847Y-110207215D01*
X105358842Y-110054347D01*
X105628476Y-109874183D01*
X105879153Y-109668458D01*
X106108458Y-109439153D01*
X106295587Y-109211135D01*
X106314180Y-109188480D01*
X106314180Y-109188478D01*
X106314183Y-109188476D01*
X106494347Y-108918842D01*
X106647215Y-108632847D01*
X106771314Y-108333246D01*
X106865449Y-108022923D01*
X106865451Y-108022913D01*
X106865454Y-108022902D01*
X106916436Y-107766593D01*
X106928714Y-107704868D01*
X106960500Y-107382143D01*
X106960500Y-107057857D01*
X106928714Y-106735132D01*
X106905122Y-106616528D01*
X106865454Y-106417097D01*
X106865451Y-106417086D01*
X106865450Y-106417083D01*
X106865449Y-106417077D01*
X106771314Y-106106754D01*
X106647215Y-105807153D01*
X106632599Y-105779809D01*
X106494353Y-105521169D01*
X106494352Y-105521167D01*
X106494347Y-105521158D01*
X106314183Y-105251524D01*
X106108458Y-105000847D01*
X106108457Y-105000846D01*
X106108453Y-105000841D01*
X105879158Y-104771546D01*
X105628481Y-104565821D01*
X105628478Y-104565819D01*
X105628476Y-104565817D01*
X105358842Y-104385653D01*
X105358837Y-104385650D01*
X105358830Y-104385646D01*
X105072854Y-104232788D01*
X105072849Y-104232786D01*
X105049559Y-104223139D01*
X104945432Y-104180008D01*
X104773247Y-104108686D01*
X104462913Y-104014548D01*
X104462902Y-104014545D01*
X104144874Y-103951287D01*
X104144857Y-103951284D01*
X103900812Y-103927248D01*
X103822143Y-103919500D01*
X103497857Y-103919500D01*
X103425099Y-103926666D01*
X103175142Y-103951284D01*
X103175125Y-103951287D01*
X102857097Y-104014545D01*
X102857086Y-104014548D01*
X102546752Y-104108686D01*
X102247150Y-104232786D01*
X102247145Y-104232788D01*
X101961169Y-104385646D01*
X101961151Y-104385657D01*
X101691532Y-104565811D01*
X101691520Y-104565819D01*
X101529326Y-104698928D01*
X101465016Y-104726240D01*
X101396149Y-104714449D01*
X101344589Y-104667296D01*
X101336100Y-104650524D01*
X101326157Y-104626518D01*
X101324412Y-104623907D01*
X101235247Y-104490460D01*
X101235245Y-104490457D01*
X101119542Y-104374754D01*
X101029216Y-104314401D01*
X100983484Y-104283844D01*
X100980956Y-104282797D01*
X100832306Y-104221224D01*
X100832300Y-104221222D01*
X100671819Y-104189300D01*
X100671817Y-104189300D01*
X100508183Y-104189300D01*
X100508181Y-104189300D01*
X100347699Y-104221222D01*
X100347693Y-104221224D01*
X100196517Y-104283843D01*
X100060457Y-104374754D01*
X99944757Y-104490454D01*
X99944751Y-104490461D01*
X99915793Y-104533798D01*
X99905399Y-104547255D01*
X99887145Y-104567803D01*
X99583360Y-105027897D01*
X99567562Y-105047254D01*
X98494677Y-106120139D01*
X98433354Y-106153624D01*
X98363662Y-106148640D01*
X98307729Y-106106768D01*
X98283312Y-106041304D01*
X98294202Y-105980945D01*
X98321064Y-105922124D01*
X98321065Y-105922123D01*
X98341525Y-105779809D01*
X98321065Y-105637495D01*
X98321063Y-105637487D01*
X98261339Y-105506711D01*
X98223760Y-105460079D01*
X98223754Y-105460072D01*
X98189938Y-105426256D01*
X98189937Y-105426256D01*
X97146956Y-106469239D01*
X96499352Y-107116840D01*
X96493408Y-107122183D01*
X96493478Y-107122260D01*
X96491012Y-107124474D01*
X95044468Y-108571020D01*
X95044459Y-108571030D01*
X95006844Y-108617705D01*
X94947057Y-108748619D01*
X94947056Y-108748623D01*
X94926576Y-108891079D01*
X94025867Y-108891079D01*
X93969542Y-108834754D01*
X93872809Y-108770120D01*
X93833484Y-108743844D01*
X93682306Y-108681224D01*
X93682301Y-108681222D01*
X93548623Y-108654631D01*
X93521427Y-108640404D01*
X93493276Y-108628143D01*
X93489783Y-108623851D01*
X93486713Y-108622245D01*
X93469698Y-108601880D01*
X93466221Y-108596674D01*
X93466156Y-108596516D01*
X93384940Y-108474966D01*
X93374253Y-108440810D01*
X93364078Y-108408313D01*
X93364081Y-108408299D01*
X93364077Y-108408284D01*
X93373998Y-108372154D01*
X93382563Y-108340933D01*
X93382573Y-108340923D01*
X93382578Y-108340908D01*
X93409965Y-108316319D01*
X93434542Y-108294243D01*
X93434557Y-108294239D01*
X93434568Y-108294230D01*
X93434677Y-108294212D01*
X93488058Y-108282100D01*
X94089159Y-108282100D01*
X94128810Y-108282100D01*
X94180322Y-108293306D01*
X94229101Y-108315583D01*
X94229102Y-108315583D01*
X94229104Y-108315584D01*
X94300333Y-108325824D01*
X94371561Y-108336065D01*
X94371561Y-108336064D01*
X94371562Y-108336065D01*
X94514019Y-108315584D01*
X94644935Y-108255796D01*
X94691617Y-108218177D01*
X96138177Y-106771616D01*
X96138181Y-106771610D01*
X96140411Y-106769130D01*
X96140490Y-106769201D01*
X96145814Y-106763272D01*
X96616625Y-106292461D01*
X96263073Y-105938909D01*
X96263071Y-105938909D01*
X96192005Y-106009973D01*
X96130681Y-106043458D01*
X96060990Y-106038472D01*
X96016645Y-106009973D01*
X95838806Y-105832134D01*
X95805322Y-105770812D01*
X95810306Y-105701120D01*
X95838807Y-105656773D01*
X95910225Y-105585355D01*
X96616626Y-105585355D01*
X96970179Y-105938908D01*
X96970180Y-105938908D01*
X97836384Y-105072702D01*
X97802560Y-105038879D01*
X97755929Y-105001301D01*
X97625153Y-104941577D01*
X97625145Y-104941575D01*
X97482831Y-104921115D01*
X97340517Y-104941575D01*
X97340509Y-104941577D01*
X97209733Y-105001301D01*
X97163101Y-105038880D01*
X97163094Y-105038886D01*
X96616626Y-105585355D01*
X95910225Y-105585355D01*
X96049268Y-105446312D01*
X96422878Y-105072702D01*
X96809929Y-104685651D01*
X96847549Y-104638969D01*
X96907337Y-104508053D01*
X96927818Y-104365596D01*
X96907337Y-104223138D01*
X96907181Y-104222797D01*
X96847550Y-104092224D01*
X96847547Y-104092219D01*
X96809933Y-104045544D01*
X96809927Y-104045537D01*
X96388677Y-103624288D01*
X96388667Y-103624279D01*
X96341992Y-103586664D01*
X96211078Y-103526877D01*
X96211074Y-103526876D01*
X96068618Y-103506396D01*
X95926162Y-103526876D01*
X95926158Y-103526877D01*
X95795247Y-103586663D01*
X95795242Y-103586666D01*
X95748567Y-103624280D01*
X95748560Y-103624286D01*
X94777440Y-104595406D01*
X94769494Y-104599744D01*
X94764069Y-104606992D01*
X94739309Y-104616226D01*
X94716117Y-104628891D01*
X94707087Y-104628245D01*
X94698605Y-104631409D01*
X94672784Y-104625792D01*
X94646425Y-104623907D01*
X94637371Y-104618088D01*
X94630332Y-104616557D01*
X94602078Y-104595406D01*
X94496436Y-104489764D01*
X94462951Y-104428441D01*
X94467935Y-104358749D01*
X94496433Y-104314404D01*
X94623552Y-104187287D01*
X94702819Y-104049991D01*
X94725573Y-103965071D01*
X94757664Y-103909488D01*
X95395715Y-103271438D01*
X95433335Y-103224756D01*
X95493123Y-103093840D01*
X95513604Y-102951383D01*
X95493123Y-102808925D01*
X95433335Y-102678009D01*
X95395716Y-102631327D01*
X94974460Y-102210072D01*
X94965181Y-102202594D01*
X94927778Y-102172451D01*
X94796864Y-102112664D01*
X94796860Y-102112663D01*
X94654404Y-102092183D01*
X94511948Y-102112663D01*
X94511944Y-102112664D01*
X94381033Y-102172450D01*
X94381028Y-102172453D01*
X94334353Y-102210067D01*
X94334346Y-102210073D01*
X93363226Y-103181192D01*
X93301903Y-103214677D01*
X93232211Y-103209693D01*
X93187866Y-103181193D01*
X93099121Y-103092449D01*
X93010379Y-103003706D01*
X92976894Y-102942383D01*
X92981878Y-102872691D01*
X93010377Y-102828347D01*
X93981501Y-101857224D01*
X94019121Y-101810542D01*
X94078909Y-101679626D01*
X94094810Y-101569023D01*
X94123834Y-101505467D01*
X94129853Y-101499002D01*
X94886994Y-100741861D01*
X94948315Y-100708378D01*
X95018007Y-100713362D01*
X95069861Y-100750076D01*
X95390669Y-101134345D01*
X95401450Y-101146593D01*
X95411470Y-101159626D01*
X95414753Y-101164540D01*
X95530460Y-101280247D01*
X95666516Y-101371156D01*
X95817694Y-101433776D01*
X95817698Y-101433776D01*
X95817699Y-101433777D01*
X95978180Y-101465700D01*
X95978183Y-101465700D01*
X96141819Y-101465700D01*
X96249785Y-101444223D01*
X96302306Y-101433776D01*
X96453484Y-101371156D01*
X96589540Y-101280247D01*
X96705247Y-101164540D01*
X96796156Y-101028484D01*
X96858776Y-100877306D01*
X96890700Y-100716817D01*
X96890700Y-100553183D01*
X96890700Y-100553180D01*
X96858777Y-100392699D01*
X96858776Y-100392698D01*
X96858776Y-100392694D01*
X96796156Y-100241516D01*
X96705247Y-100105460D01*
X96705245Y-100105457D01*
X96662181Y-100062393D01*
X96628696Y-100001070D01*
X96633680Y-99931378D01*
X96651935Y-99899655D01*
X96651862Y-99899606D01*
X96652598Y-99898503D01*
X96654021Y-99896032D01*
X96655232Y-99894554D01*
X96655247Y-99894540D01*
X96746156Y-99758484D01*
X96808776Y-99607306D01*
X96826052Y-99520457D01*
X96840700Y-99446819D01*
X96840700Y-99283180D01*
X96808777Y-99122699D01*
X96808776Y-99122698D01*
X96808776Y-99122694D01*
X96746156Y-98971516D01*
X96746155Y-98971513D01*
X96705648Y-98910890D01*
X96699672Y-98900974D01*
X96683168Y-98870449D01*
X96486526Y-98605483D01*
X96462380Y-98539918D01*
X96462100Y-98531585D01*
X96462100Y-96744700D01*
X96464091Y-96737918D01*
X96462864Y-96730958D01*
X96473805Y-96704834D01*
X96481785Y-96677661D01*
X96487126Y-96673032D01*
X96489857Y-96666513D01*
X96513187Y-96650450D01*
X96534589Y-96631906D01*
X96542977Y-96629941D01*
X96547406Y-96626892D01*
X96574512Y-96622554D01*
X96582164Y-96620762D01*
X96584116Y-96620700D01*
X96721817Y-96620700D01*
X96747975Y-96615496D01*
X96758196Y-96615172D01*
X96782512Y-96621480D01*
X96807529Y-96623719D01*
X96815749Y-96630104D01*
X96825827Y-96632719D01*
X96842871Y-96651171D01*
X96862708Y-96666580D01*
X96872464Y-96683210D01*
X96873235Y-96684044D01*
X96873355Y-96684728D01*
X96874510Y-96686696D01*
X96875638Y-96689115D01*
X96967684Y-96838345D01*
X97091654Y-96962315D01*
X97240875Y-97054356D01*
X97240880Y-97054358D01*
X97407302Y-97109505D01*
X97407309Y-97109506D01*
X97510019Y-97119999D01*
X97659999Y-97119999D01*
X97660000Y-97119998D01*
X97660000Y-94720000D01*
X97619500Y-94720000D01*
X97552461Y-94700315D01*
X97506706Y-94647511D01*
X97495500Y-94596000D01*
X97495500Y-91074387D01*
X97507127Y-91021962D01*
X97507904Y-91020297D01*
X97666228Y-90680929D01*
X97675494Y-90664473D01*
X97676156Y-90663484D01*
X97738776Y-90512306D01*
X97765091Y-90380013D01*
X108410000Y-90380013D01*
X108410000Y-90630000D01*
X109260000Y-90630000D01*
X109260000Y-89680000D01*
X109110027Y-89680000D01*
X109110012Y-89680001D01*
X109007302Y-89690494D01*
X108840880Y-89745641D01*
X108840875Y-89745643D01*
X108691654Y-89837684D01*
X108567684Y-89961654D01*
X108475643Y-90110875D01*
X108475641Y-90110880D01*
X108420494Y-90277302D01*
X108420493Y-90277309D01*
X108410000Y-90380013D01*
X97765091Y-90380013D01*
X97770700Y-90351817D01*
X97770700Y-90188183D01*
X97770700Y-90188180D01*
X97738777Y-90027699D01*
X97738776Y-90027698D01*
X97738776Y-90027694D01*
X97676156Y-89876516D01*
X97585247Y-89740460D01*
X97585245Y-89740457D01*
X97469542Y-89624754D01*
X97379424Y-89564540D01*
X97333484Y-89533844D01*
X97322132Y-89529142D01*
X97182306Y-89471224D01*
X97182300Y-89471222D01*
X97021819Y-89439300D01*
X97021817Y-89439300D01*
X96858183Y-89439300D01*
X96858181Y-89439300D01*
X96697699Y-89471222D01*
X96697693Y-89471224D01*
X96546517Y-89533843D01*
X96410457Y-89624754D01*
X96294754Y-89740457D01*
X96203843Y-89876517D01*
X96141224Y-90027693D01*
X96141222Y-90027699D01*
X96109300Y-90188180D01*
X96109300Y-90188183D01*
X96109300Y-90351817D01*
X96109300Y-90351819D01*
X96109299Y-90351819D01*
X96134756Y-90479792D01*
X96137242Y-90492290D01*
X96138722Y-90501058D01*
X96139419Y-90503234D01*
X96140678Y-90509563D01*
X96140684Y-90509590D01*
X96141224Y-90512308D01*
X96141225Y-90512309D01*
X96144114Y-90519286D01*
X96147638Y-90528903D01*
X96263541Y-90890767D01*
X96265244Y-90960616D01*
X96228913Y-91020297D01*
X96166084Y-91050862D01*
X96096703Y-91042607D01*
X96057770Y-91016272D01*
X95428718Y-90387220D01*
X95403427Y-90350659D01*
X95398430Y-90339615D01*
X95205661Y-89913606D01*
X95186156Y-89866516D01*
X95176096Y-89851460D01*
X95172512Y-89844319D01*
X95171600Y-89842671D01*
X95118163Y-89764443D01*
X95118160Y-89764440D01*
X95114019Y-89758378D01*
X95114043Y-89758361D01*
X95112841Y-89756792D01*
X95095247Y-89730460D01*
X95095244Y-89730457D01*
X95095242Y-89730454D01*
X94979542Y-89614754D01*
X94858450Y-89533844D01*
X94843484Y-89523844D01*
X94692306Y-89461224D01*
X94692300Y-89461222D01*
X94531819Y-89429300D01*
X94531817Y-89429300D01*
X94368183Y-89429300D01*
X94368181Y-89429300D01*
X94207699Y-89461222D01*
X94207693Y-89461224D01*
X94056517Y-89523843D01*
X93920457Y-89614754D01*
X93804754Y-89730457D01*
X93713843Y-89866517D01*
X93651224Y-90017693D01*
X93651222Y-90017699D01*
X93619300Y-90178180D01*
X93619300Y-90178183D01*
X93619300Y-90341817D01*
X93619300Y-90341819D01*
X93619299Y-90341819D01*
X93651222Y-90502300D01*
X93651224Y-90502306D01*
X93674534Y-90558581D01*
X93682003Y-90628051D01*
X93650728Y-90690530D01*
X93628871Y-90709132D01*
X93620458Y-90714753D01*
X93504754Y-90830457D01*
X93413843Y-90966517D01*
X93351224Y-91117693D01*
X93351222Y-91117699D01*
X93319300Y-91278180D01*
X93319300Y-91278183D01*
X93319300Y-91441817D01*
X93319300Y-91441819D01*
X93319299Y-91441819D01*
X93351222Y-91602300D01*
X93351224Y-91602306D01*
X93373084Y-91655082D01*
X93413844Y-91753484D01*
X93453614Y-91813004D01*
X93504754Y-91889542D01*
X93573190Y-91957978D01*
X93606675Y-92019301D01*
X93601691Y-92088993D01*
X93588612Y-92114549D01*
X93533843Y-92196517D01*
X93471224Y-92347693D01*
X93471222Y-92347699D01*
X93439300Y-92508180D01*
X93439300Y-92508183D01*
X93439300Y-92671817D01*
X93439300Y-92671819D01*
X93439299Y-92671819D01*
X93471222Y-92832300D01*
X93471224Y-92832306D01*
X93519611Y-92949124D01*
X93533844Y-92983484D01*
X93624753Y-93119540D01*
X93652985Y-93147772D01*
X93656292Y-93151210D01*
X93730640Y-93231554D01*
X93761724Y-93294128D01*
X93754044Y-93363574D01*
X93727309Y-93403454D01*
X92508447Y-94622316D01*
X92456018Y-94653519D01*
X92420952Y-94663917D01*
X92351083Y-94664103D01*
X92292204Y-94626485D01*
X92263010Y-94563007D01*
X92261700Y-94545033D01*
X92261700Y-93751349D01*
X92279107Y-93687993D01*
X92284208Y-93679411D01*
X92461432Y-93381243D01*
X92480571Y-93345916D01*
X92480571Y-93345915D01*
X92483271Y-93340932D01*
X92483683Y-93341155D01*
X92489435Y-93330547D01*
X92494156Y-93323484D01*
X92556776Y-93172306D01*
X92581196Y-93049542D01*
X92588700Y-93011819D01*
X92588700Y-92848180D01*
X92556777Y-92687699D01*
X92556776Y-92687698D01*
X92556776Y-92687694D01*
X92494156Y-92536516D01*
X92403247Y-92400460D01*
X92403245Y-92400457D01*
X92287542Y-92284754D01*
X92266651Y-92270795D01*
X92240609Y-92253395D01*
X92195805Y-92199784D01*
X92185500Y-92150293D01*
X92185500Y-91998180D01*
X92153577Y-91837699D01*
X92153576Y-91837698D01*
X92153576Y-91837694D01*
X92090956Y-91686516D01*
X92000047Y-91550460D01*
X92000045Y-91550457D01*
X91884342Y-91434754D01*
X91803135Y-91380494D01*
X91748284Y-91343844D01*
X91597106Y-91281224D01*
X91597100Y-91281222D01*
X91436619Y-91249300D01*
X91436617Y-91249300D01*
X91306100Y-91249300D01*
X91239061Y-91229615D01*
X91193306Y-91176811D01*
X91182100Y-91125300D01*
X91182100Y-90416520D01*
X91201785Y-90349481D01*
X91254589Y-90303726D01*
X91258648Y-90301959D01*
X91295218Y-90286811D01*
X91345084Y-90266156D01*
X91481140Y-90175247D01*
X91596847Y-90059540D01*
X91687756Y-89923484D01*
X91750376Y-89772306D01*
X91768737Y-89680000D01*
X91782300Y-89611819D01*
X91782300Y-89448180D01*
X91750377Y-89287699D01*
X91750376Y-89287698D01*
X91750376Y-89287694D01*
X91687756Y-89136516D01*
X91596847Y-89000460D01*
X91596845Y-89000457D01*
X91481142Y-88884754D01*
X91396168Y-88827977D01*
X91345084Y-88793844D01*
X91345082Y-88793843D01*
X91340019Y-88790460D01*
X91340870Y-88789185D01*
X91296400Y-88745498D01*
X91280700Y-88685107D01*
X91280700Y-88598180D01*
X91248777Y-88437699D01*
X91248776Y-88437698D01*
X91248776Y-88437694D01*
X91186156Y-88286516D01*
X91095247Y-88150460D01*
X91095245Y-88150457D01*
X90979542Y-88034754D01*
X90864884Y-87958143D01*
X90843484Y-87943844D01*
X90836019Y-87940752D01*
X90692306Y-87881224D01*
X90692300Y-87881222D01*
X90531819Y-87849300D01*
X90531817Y-87849300D01*
X90368183Y-87849300D01*
X90368181Y-87849300D01*
X90207699Y-87881222D01*
X90207689Y-87881225D01*
X90085707Y-87931752D01*
X90066599Y-87933806D01*
X90048680Y-87940752D01*
X90032578Y-87937464D01*
X90016238Y-87939221D01*
X89999050Y-87930617D01*
X89980223Y-87926773D01*
X89968456Y-87915302D01*
X89953759Y-87907946D01*
X89943951Y-87891416D01*
X89930191Y-87878003D01*
X89922447Y-87855172D01*
X89918107Y-87847857D01*
X89917435Y-87845094D01*
X89916243Y-87839933D01*
X89914583Y-87828276D01*
X89914456Y-87827481D01*
X89898140Y-87757619D01*
X89896373Y-87753896D01*
X89893941Y-87743366D01*
X89893979Y-87742716D01*
X89893146Y-87739663D01*
X89888776Y-87717694D01*
X89826156Y-87566516D01*
X89735247Y-87430460D01*
X89735245Y-87430457D01*
X89675823Y-87371035D01*
X89642338Y-87309712D01*
X89647322Y-87240020D01*
X89675821Y-87195675D01*
X93503079Y-83368419D01*
X93530006Y-83353715D01*
X93555825Y-83337123D01*
X93562025Y-83336231D01*
X93564402Y-83334934D01*
X93590760Y-83332100D01*
X93770805Y-83332100D01*
X93837844Y-83351785D01*
X93883599Y-83404589D01*
X93893543Y-83473747D01*
X93885366Y-83503553D01*
X93871224Y-83537693D01*
X93871222Y-83537699D01*
X93839300Y-83698180D01*
X93839300Y-83698183D01*
X93839300Y-83861817D01*
X93839300Y-83861819D01*
X93839299Y-83861819D01*
X93871222Y-84022300D01*
X93871224Y-84022306D01*
X93914660Y-84127171D01*
X93933844Y-84173484D01*
X93949531Y-84196961D01*
X94024754Y-84309542D01*
X94141149Y-84425937D01*
X94145486Y-84433881D01*
X94152735Y-84439307D01*
X94161971Y-84464069D01*
X94174634Y-84487260D01*
X94173988Y-84496288D01*
X94177152Y-84504771D01*
X94171535Y-84530590D01*
X94169650Y-84556952D01*
X94163830Y-84566006D01*
X94162300Y-84573044D01*
X94141151Y-84601296D01*
X94015302Y-84727147D01*
X94015301Y-84727147D01*
X94015300Y-84727148D01*
X93903201Y-84839247D01*
X93903199Y-84839250D01*
X93823933Y-84976544D01*
X93782900Y-85129680D01*
X93782900Y-85171391D01*
X93778036Y-85205779D01*
X93668561Y-85585048D01*
X93666651Y-85591663D01*
X93666226Y-85592694D01*
X93665939Y-85594132D01*
X93664491Y-85599150D01*
X93664489Y-85599160D01*
X93658991Y-85618209D01*
X93653602Y-85638444D01*
X93653377Y-85639367D01*
X93641073Y-85712925D01*
X93641066Y-85713054D01*
X93638887Y-85730132D01*
X93634302Y-85753183D01*
X93634302Y-85916817D01*
X93634302Y-85916819D01*
X93634301Y-85916819D01*
X93666224Y-86077300D01*
X93666226Y-86077306D01*
X93728846Y-86228484D01*
X93771152Y-86291800D01*
X93819756Y-86364542D01*
X93935459Y-86480245D01*
X93935462Y-86480247D01*
X94071518Y-86571156D01*
X94207954Y-86627669D01*
X94223517Y-86640210D01*
X94241703Y-86648516D01*
X94250166Y-86661685D01*
X94262356Y-86671508D01*
X94268669Y-86690477D01*
X94279477Y-86707294D01*
X94283439Y-86734853D01*
X94284421Y-86737802D01*
X94284500Y-86742229D01*
X94284500Y-86882553D01*
X94264815Y-86949592D01*
X94232388Y-86983588D01*
X94002729Y-87146993D01*
X94002724Y-87146996D01*
X93962752Y-87178271D01*
X93950539Y-87188017D01*
X93940464Y-87194750D01*
X93940463Y-87194750D01*
X93824753Y-87310459D01*
X93733843Y-87446517D01*
X93671224Y-87597693D01*
X93671222Y-87597699D01*
X93639300Y-87758180D01*
X93639300Y-87758183D01*
X93639300Y-87921817D01*
X93639300Y-87921819D01*
X93639299Y-87921819D01*
X93671222Y-88082300D01*
X93671224Y-88082306D01*
X93727303Y-88217694D01*
X93733844Y-88233484D01*
X93769279Y-88286516D01*
X93824754Y-88369542D01*
X93940457Y-88485245D01*
X93940460Y-88485247D01*
X94076516Y-88576156D01*
X94227694Y-88638776D01*
X94227698Y-88638776D01*
X94227699Y-88638777D01*
X94388180Y-88670700D01*
X94388183Y-88670700D01*
X94551819Y-88670700D01*
X94698531Y-88641516D01*
X94712306Y-88638776D01*
X94863484Y-88576156D01*
X94999540Y-88485247D01*
X95115247Y-88369540D01*
X95206156Y-88233484D01*
X95212697Y-88217694D01*
X95225682Y-88186343D01*
X95268776Y-88082306D01*
X95280974Y-88020975D01*
X95284508Y-88007325D01*
X95294284Y-87976842D01*
X95297446Y-87958143D01*
X95318373Y-87834359D01*
X95353537Y-87626367D01*
X95368415Y-87585040D01*
X95384713Y-87556811D01*
X95434918Y-87469855D01*
X95452274Y-87405082D01*
X95475501Y-87318399D01*
X95475501Y-87161601D01*
X95475501Y-87154006D01*
X95475500Y-87153988D01*
X95475500Y-86642642D01*
X95495185Y-86575603D01*
X95511819Y-86554961D01*
X95595321Y-86471459D01*
X95623291Y-86423014D01*
X95673720Y-86335668D01*
X95673721Y-86335665D01*
X95685474Y-86291802D01*
X95685474Y-86291800D01*
X95702440Y-86228484D01*
X95714303Y-86184212D01*
X95714303Y-86027414D01*
X95714303Y-86019819D01*
X95714302Y-86019801D01*
X95714302Y-85652588D01*
X95714303Y-85652575D01*
X95714303Y-85485789D01*
X95714302Y-85485785D01*
X95700596Y-85434634D01*
X95702258Y-85364784D01*
X95732687Y-85314860D01*
X96135730Y-84911819D01*
X96197053Y-84878334D01*
X96223411Y-84875500D01*
X107051973Y-84875500D01*
X107119012Y-84895185D01*
X107139654Y-84911819D01*
X108393181Y-86165345D01*
X108426666Y-86226668D01*
X108429500Y-86253026D01*
X108429500Y-87200001D01*
X108429501Y-87200019D01*
X108440000Y-87302796D01*
X108440001Y-87302799D01*
X108473895Y-87405082D01*
X108495186Y-87469334D01*
X108587096Y-87618345D01*
X108587289Y-87618657D01*
X108651451Y-87682819D01*
X108684936Y-87744142D01*
X108679952Y-87813834D01*
X108638080Y-87869767D01*
X108572616Y-87894184D01*
X108563770Y-87894500D01*
X105871601Y-87894500D01*
X105720145Y-87935082D01*
X105720142Y-87935083D01*
X105584354Y-88013480D01*
X105525970Y-88071863D01*
X105481626Y-88100361D01*
X105132108Y-88230734D01*
X105112972Y-88236168D01*
X105112910Y-88236180D01*
X105112692Y-88236224D01*
X104961517Y-88298843D01*
X104825457Y-88389754D01*
X104709754Y-88505457D01*
X104618843Y-88641517D01*
X104556224Y-88792693D01*
X104556222Y-88792699D01*
X104524300Y-88953180D01*
X104524300Y-88953183D01*
X104524300Y-89116817D01*
X104524300Y-89116819D01*
X104524299Y-89116819D01*
X104556222Y-89277300D01*
X104556224Y-89277306D01*
X104618844Y-89428484D01*
X104647402Y-89471224D01*
X104709754Y-89564542D01*
X104825457Y-89680245D01*
X104825460Y-89680247D01*
X104961516Y-89771156D01*
X105112694Y-89833776D01*
X105112698Y-89833776D01*
X105112699Y-89833777D01*
X105273180Y-89865700D01*
X105273183Y-89865700D01*
X105436819Y-89865700D01*
X105552599Y-89842669D01*
X105597306Y-89833776D01*
X105748484Y-89771156D01*
X105884540Y-89680247D01*
X106000247Y-89564540D01*
X106091156Y-89428484D01*
X106095506Y-89417979D01*
X106099410Y-89409481D01*
X106228880Y-89153529D01*
X106276705Y-89102593D01*
X106339529Y-89085500D01*
X109082184Y-89085500D01*
X109108695Y-89088367D01*
X109110921Y-89088854D01*
X109115952Y-89089955D01*
X109628605Y-89127272D01*
X109636148Y-89127655D01*
X109654049Y-89129877D01*
X109658183Y-89130700D01*
X109821819Y-89130700D01*
X109929785Y-89109223D01*
X109982306Y-89098776D01*
X110133484Y-89036156D01*
X110269540Y-88945247D01*
X110385247Y-88829540D01*
X110476156Y-88693484D01*
X110535524Y-88550156D01*
X110579363Y-88495754D01*
X110645657Y-88473689D01*
X110713357Y-88490968D01*
X110737765Y-88509929D01*
X111695654Y-89467819D01*
X111729139Y-89529142D01*
X111724155Y-89598834D01*
X111682283Y-89654767D01*
X111616819Y-89679184D01*
X111607973Y-89679500D01*
X111109998Y-89679500D01*
X111109980Y-89679501D01*
X111007203Y-89690000D01*
X111007200Y-89690001D01*
X110840668Y-89745185D01*
X110840663Y-89745187D01*
X110691345Y-89837287D01*
X110597327Y-89931305D01*
X110536003Y-89964789D01*
X110466312Y-89959805D01*
X110421965Y-89931304D01*
X110328345Y-89837684D01*
X110179124Y-89745643D01*
X110179119Y-89745641D01*
X110012697Y-89690494D01*
X110012690Y-89690493D01*
X109909986Y-89680000D01*
X109760000Y-89680000D01*
X109760000Y-90756000D01*
X109740315Y-90823039D01*
X109687511Y-90868794D01*
X109636000Y-90880000D01*
X109510000Y-90880000D01*
X109510000Y-91006000D01*
X109490315Y-91073039D01*
X109437511Y-91118794D01*
X109386000Y-91130000D01*
X108410001Y-91130000D01*
X108410001Y-91379986D01*
X108420004Y-91477898D01*
X108407234Y-91546591D01*
X108359354Y-91597475D01*
X108296646Y-91614500D01*
X102744183Y-91614500D01*
X102677144Y-91594815D01*
X102656502Y-91578181D01*
X102588004Y-91509683D01*
X102588002Y-91509681D01*
X102452211Y-91431282D01*
X102452210Y-91431281D01*
X102452209Y-91431281D01*
X102428592Y-91424952D01*
X102428590Y-91424952D01*
X102378414Y-91411508D01*
X102300754Y-91390699D01*
X102300752Y-91390699D01*
X102143956Y-91390700D01*
X101443652Y-91390700D01*
X101443635Y-91390699D01*
X101279244Y-91390699D01*
X101279242Y-91390700D01*
X101127786Y-91431282D01*
X101083668Y-91456754D01*
X101083664Y-91456756D01*
X101076663Y-91460799D01*
X100991997Y-91509681D01*
X100917727Y-91583950D01*
X100911252Y-91588914D01*
X100885965Y-91598675D01*
X100862174Y-91611666D01*
X100848502Y-91613135D01*
X100846070Y-91614075D01*
X100843906Y-91613630D01*
X100835816Y-91614500D01*
X99696011Y-91614500D01*
X99695995Y-91614499D01*
X99688399Y-91614499D01*
X99531601Y-91614499D01*
X99380146Y-91655081D01*
X99380145Y-91655081D01*
X99380143Y-91655082D01*
X99380140Y-91655083D01*
X99341230Y-91677548D01*
X99341212Y-91677559D01*
X99338132Y-91679338D01*
X99244354Y-91733481D01*
X99221880Y-91755953D01*
X99211261Y-91762930D01*
X99203398Y-91765324D01*
X99190636Y-91773852D01*
X99166516Y-91783843D01*
X99166508Y-91783848D01*
X99030459Y-91874752D01*
X98914754Y-91990457D01*
X98823843Y-92126517D01*
X98761224Y-92277693D01*
X98761222Y-92277699D01*
X98729300Y-92438180D01*
X98729300Y-92438183D01*
X98729300Y-92601817D01*
X98729300Y-92601819D01*
X98729299Y-92601819D01*
X98761222Y-92762300D01*
X98761224Y-92762306D01*
X98823844Y-92913484D01*
X98847658Y-92949124D01*
X98914754Y-93049542D01*
X99030457Y-93165245D01*
X99166519Y-93256158D01*
X99270153Y-93299084D01*
X99324557Y-93342925D01*
X99346622Y-93409219D01*
X99342476Y-93445737D01*
X99314499Y-93550152D01*
X99314499Y-93716941D01*
X99314500Y-93716954D01*
X99314500Y-94671759D01*
X99294815Y-94738798D01*
X99246546Y-94780963D01*
X99246813Y-94781395D01*
X99244226Y-94782990D01*
X99242915Y-94784136D01*
X99240676Y-94785180D01*
X99240666Y-94785185D01*
X99240666Y-94785186D01*
X99239925Y-94785643D01*
X99091345Y-94877287D01*
X98997327Y-94971305D01*
X98936003Y-95004789D01*
X98866312Y-94999805D01*
X98821965Y-94971304D01*
X98728345Y-94877684D01*
X98579124Y-94785643D01*
X98579119Y-94785641D01*
X98412697Y-94730494D01*
X98412690Y-94730493D01*
X98309986Y-94720000D01*
X98160000Y-94720000D01*
X98160000Y-97119999D01*
X98309972Y-97119999D01*
X98309986Y-97119998D01*
X98412697Y-97109505D01*
X98579119Y-97054358D01*
X98579124Y-97054356D01*
X98728342Y-96962317D01*
X98821964Y-96868695D01*
X98883287Y-96835210D01*
X98952979Y-96840194D01*
X98997327Y-96868695D01*
X99091344Y-96962712D01*
X99240666Y-97054814D01*
X99407203Y-97109999D01*
X99509991Y-97120500D01*
X100310008Y-97120499D01*
X100310016Y-97120498D01*
X100310019Y-97120498D01*
X100366302Y-97114748D01*
X100412797Y-97109999D01*
X100579334Y-97054814D01*
X100728656Y-96962712D01*
X100728657Y-96962710D01*
X100734803Y-96958920D01*
X100735560Y-96960147D01*
X100792880Y-96937020D01*
X100861523Y-96950058D01*
X100878052Y-96960681D01*
X100881342Y-96962710D01*
X100881344Y-96962712D01*
X101030666Y-97054814D01*
X101197203Y-97109999D01*
X101299991Y-97120500D01*
X102100008Y-97120499D01*
X102100016Y-97120498D01*
X102100019Y-97120498D01*
X102156302Y-97114748D01*
X102202797Y-97109999D01*
X102369334Y-97054814D01*
X102518656Y-96962712D01*
X102612675Y-96868692D01*
X102673994Y-96835210D01*
X102743686Y-96840194D01*
X102788034Y-96868695D01*
X102881654Y-96962315D01*
X103030875Y-97054356D01*
X103030880Y-97054358D01*
X103197302Y-97109505D01*
X103197309Y-97109506D01*
X103300019Y-97119999D01*
X103449999Y-97119999D01*
X103950000Y-97119999D01*
X104099972Y-97119999D01*
X104099986Y-97119998D01*
X104202697Y-97109505D01*
X104369119Y-97054358D01*
X104369124Y-97054356D01*
X104518345Y-96962315D01*
X104642315Y-96838345D01*
X104734356Y-96689124D01*
X104734358Y-96689119D01*
X104789505Y-96522697D01*
X104789506Y-96522690D01*
X104799999Y-96419986D01*
X104800000Y-96419973D01*
X104800000Y-96170000D01*
X103950000Y-96170000D01*
X103950000Y-97119999D01*
X103449999Y-97119999D01*
X103450000Y-97119998D01*
X103450000Y-95670000D01*
X103950000Y-95670000D01*
X104799999Y-95670000D01*
X104799999Y-95420028D01*
X104799998Y-95420013D01*
X104789505Y-95317302D01*
X104734358Y-95150880D01*
X104734356Y-95150875D01*
X104642315Y-95001654D01*
X104518345Y-94877684D01*
X104369124Y-94785643D01*
X104369119Y-94785641D01*
X104202697Y-94730494D01*
X104202690Y-94730493D01*
X104099986Y-94720000D01*
X103950000Y-94720000D01*
X103950000Y-95670000D01*
X103450000Y-95670000D01*
X103450000Y-94720000D01*
X103300027Y-94720000D01*
X103300012Y-94720001D01*
X103197302Y-94730494D01*
X103030880Y-94785641D01*
X103030875Y-94785643D01*
X102881657Y-94877682D01*
X102788034Y-94971305D01*
X102726710Y-95004789D01*
X102657019Y-94999805D01*
X102612672Y-94971304D01*
X102518657Y-94877289D01*
X102518656Y-94877288D01*
X102369334Y-94785186D01*
X102369331Y-94785185D01*
X102369323Y-94785180D01*
X102367085Y-94784136D01*
X102365808Y-94783012D01*
X102363187Y-94781395D01*
X102363463Y-94780946D01*
X102314650Y-94737959D01*
X102295500Y-94671759D01*
X102295500Y-93904814D01*
X102296735Y-93898216D01*
X102295944Y-93894333D01*
X102303899Y-93859952D01*
X102365325Y-93701690D01*
X102407930Y-93646320D01*
X102410249Y-93644672D01*
X102460994Y-93609543D01*
X102527316Y-93587573D01*
X102531569Y-93587500D01*
X112918303Y-93587500D01*
X112985342Y-93607185D01*
X112998962Y-93622903D01*
X113001144Y-93623900D01*
X113004928Y-93629789D01*
X113031097Y-93659989D01*
X113038079Y-93679411D01*
X113039711Y-93685503D01*
X113039717Y-93685524D01*
X113044509Y-93703411D01*
X113042843Y-93773261D01*
X113003679Y-93831122D01*
X112939449Y-93858624D01*
X112924733Y-93859500D01*
X112374998Y-93859500D01*
X112374980Y-93859501D01*
X112272203Y-93870000D01*
X112272200Y-93870001D01*
X112105668Y-93925185D01*
X112105663Y-93925187D01*
X111956342Y-94017289D01*
X111832289Y-94141342D01*
X111740187Y-94290663D01*
X111740186Y-94290666D01*
X111685001Y-94457203D01*
X111685001Y-94457204D01*
X111685000Y-94457204D01*
X111674500Y-94559983D01*
X111674500Y-95160001D01*
X111674501Y-95160019D01*
X111685000Y-95262796D01*
X111685001Y-95262799D01*
X111740185Y-95429331D01*
X111740187Y-95429336D01*
X111832289Y-95578657D01*
X111956346Y-95702714D01*
X111959182Y-95704463D01*
X111960717Y-95706170D01*
X111962011Y-95707193D01*
X111961836Y-95707414D01*
X112005905Y-95756411D01*
X112017126Y-95825374D01*
X111989282Y-95889456D01*
X111959182Y-95915537D01*
X111956346Y-95917285D01*
X111832289Y-96041342D01*
X111740187Y-96190663D01*
X111740185Y-96190668D01*
X111729133Y-96224021D01*
X111685001Y-96357203D01*
X111685001Y-96357204D01*
X111685000Y-96357204D01*
X111674500Y-96459983D01*
X111674500Y-97060001D01*
X111674501Y-97060019D01*
X111685000Y-97162796D01*
X111685001Y-97162799D01*
X111740185Y-97329331D01*
X111740186Y-97329334D01*
X111832288Y-97478656D01*
X111956344Y-97602712D01*
X112105666Y-97694814D01*
X112272203Y-97749999D01*
X112374991Y-97760500D01*
X113425008Y-97760499D01*
X113425016Y-97760498D01*
X113425019Y-97760498D01*
X113481302Y-97754748D01*
X113527797Y-97749999D01*
X113694334Y-97694814D01*
X113843656Y-97602712D01*
X113946349Y-97500019D01*
X114007672Y-97466534D01*
X114034030Y-97463700D01*
X115385300Y-97463700D01*
X115386912Y-97464173D01*
X115388538Y-97463742D01*
X115420323Y-97473984D01*
X115452339Y-97483385D01*
X115453439Y-97484654D01*
X115455041Y-97485171D01*
X115476247Y-97510976D01*
X115498094Y-97536189D01*
X115498675Y-97538269D01*
X115499401Y-97539152D01*
X115500692Y-97545484D01*
X115508457Y-97573264D01*
X115509300Y-97580456D01*
X115509300Y-97641817D01*
X115526742Y-97729503D01*
X115527336Y-97734330D01*
X115527349Y-97734440D01*
X115531605Y-97769012D01*
X115531606Y-97769021D01*
X115547838Y-97828772D01*
X115546417Y-97898628D01*
X115515856Y-97948960D01*
X111662519Y-101802298D01*
X107829720Y-105635097D01*
X107829717Y-105635100D01*
X107796444Y-105668373D01*
X107731700Y-105733116D01*
X107688072Y-105798412D01*
X107682237Y-105807145D01*
X107659988Y-105840443D01*
X107659985Y-105840447D01*
X107654691Y-105848368D01*
X107654685Y-105848379D01*
X107601643Y-105976435D01*
X107601641Y-105976443D01*
X107574599Y-106112389D01*
X107574599Y-106257121D01*
X107574600Y-106257142D01*
X107574600Y-113143943D01*
X107554915Y-113210982D01*
X107502111Y-113256737D01*
X107432953Y-113266681D01*
X107381711Y-113247047D01*
X107352465Y-113227506D01*
X107335827Y-113216389D01*
X107335825Y-113216388D01*
X107335822Y-113216386D01*
X107207764Y-113163343D01*
X107207756Y-113163341D01*
X107071810Y-113136299D01*
X107071808Y-113136299D01*
X106933192Y-113136299D01*
X106927078Y-113136299D01*
X106927058Y-113136300D01*
X106764030Y-113136300D01*
X106696991Y-113116615D01*
X106676349Y-113099981D01*
X106573657Y-112997289D01*
X106573656Y-112997288D01*
X106570342Y-112995243D01*
X106568546Y-112993248D01*
X106567989Y-112992807D01*
X106568064Y-112992711D01*
X106523618Y-112943297D01*
X106512397Y-112874334D01*
X106540240Y-112810252D01*
X106570348Y-112784165D01*
X106573342Y-112782318D01*
X106697315Y-112658345D01*
X106789356Y-112509124D01*
X106789358Y-112509119D01*
X106844505Y-112342697D01*
X106844506Y-112342690D01*
X106854999Y-112239986D01*
X106855000Y-112239973D01*
X106855000Y-112190000D01*
X104366362Y-112190000D01*
X104299323Y-112170315D01*
X104278681Y-112153681D01*
X104275000Y-112150000D01*
X101990001Y-112150000D01*
X101990001Y-112299986D01*
X102000494Y-112402697D01*
X102055641Y-112569119D01*
X102055643Y-112569124D01*
X102147684Y-112718345D01*
X102241304Y-112811965D01*
X102274789Y-112873288D01*
X102269805Y-112942980D01*
X102241305Y-112987327D01*
X102147287Y-113081345D01*
X102055187Y-113230663D01*
X102055185Y-113230668D01*
X102032616Y-113298777D01*
X102000001Y-113397203D01*
X102000001Y-113397204D01*
X102000000Y-113397204D01*
X101989500Y-113499983D01*
X101989500Y-114197639D01*
X101969815Y-114264678D01*
X101953181Y-114285320D01*
X101058052Y-115180448D01*
X100996729Y-115213933D01*
X100927037Y-115208949D01*
X100901479Y-115195868D01*
X100883484Y-115183843D01*
X100732306Y-115121224D01*
X100732300Y-115121222D01*
X100571819Y-115089300D01*
X100571817Y-115089300D01*
X100408183Y-115089300D01*
X100408181Y-115089300D01*
X100247699Y-115121222D01*
X100247693Y-115121224D01*
X100096515Y-115183844D01*
X100008553Y-115242617D01*
X99941876Y-115263494D01*
X99874496Y-115245009D01*
X99851983Y-115227195D01*
X99759542Y-115134754D01*
X99676741Y-115079429D01*
X99623484Y-115043844D01*
X99596244Y-115032561D01*
X99472306Y-114981224D01*
X99472300Y-114981222D01*
X99311819Y-114949300D01*
X99311817Y-114949300D01*
X99148183Y-114949300D01*
X99148181Y-114949300D01*
X98987699Y-114981222D01*
X98987689Y-114981225D01*
X98876135Y-115027432D01*
X98806665Y-115034901D01*
X98744186Y-115003625D01*
X98734821Y-114993323D01*
X98026818Y-114285320D01*
X97993333Y-114223997D01*
X97990499Y-114197639D01*
X97990499Y-113499998D01*
X97990498Y-113499981D01*
X97979999Y-113397203D01*
X97979998Y-113397200D01*
X97957962Y-113330700D01*
X97924814Y-113230666D01*
X97832712Y-113081344D01*
X97738695Y-112987327D01*
X97705210Y-112926004D01*
X97710194Y-112856312D01*
X97738695Y-112811964D01*
X97832317Y-112718342D01*
X97924356Y-112569124D01*
X97924358Y-112569119D01*
X97979505Y-112402697D01*
X97979506Y-112402690D01*
X97989999Y-112299986D01*
X97990000Y-112299973D01*
X97990000Y-112189986D01*
X98505001Y-112189986D01*
X98515494Y-112292697D01*
X98570641Y-112459119D01*
X98570643Y-112459124D01*
X98662684Y-112608345D01*
X98786654Y-112732315D01*
X98935875Y-112824356D01*
X98935880Y-112824358D01*
X99102302Y-112879505D01*
X99102309Y-112879506D01*
X99205019Y-112889999D01*
X99479999Y-112889999D01*
X99980000Y-112889999D01*
X100254972Y-112889999D01*
X100254986Y-112889998D01*
X100357697Y-112879505D01*
X100524119Y-112824358D01*
X100524124Y-112824356D01*
X100673345Y-112732315D01*
X100797315Y-112608345D01*
X100889356Y-112459124D01*
X100889358Y-112459119D01*
X100944505Y-112292697D01*
X100944506Y-112292690D01*
X100954999Y-112189986D01*
X100955000Y-112189973D01*
X100955000Y-112140000D01*
X99980000Y-112140000D01*
X99980000Y-112889999D01*
X99479999Y-112889999D01*
X99480000Y-112889998D01*
X99480000Y-112140000D01*
X98505001Y-112140000D01*
X98505001Y-112189986D01*
X97990000Y-112189986D01*
X97990000Y-112150000D01*
X95590001Y-112150000D01*
X95590001Y-112299986D01*
X95600494Y-112402697D01*
X95655641Y-112569119D01*
X95655643Y-112569124D01*
X95747684Y-112718345D01*
X95841304Y-112811965D01*
X95874789Y-112873288D01*
X95869805Y-112942980D01*
X95841305Y-112987327D01*
X95747287Y-113081345D01*
X95655187Y-113230663D01*
X95655185Y-113230668D01*
X95632616Y-113298777D01*
X95600001Y-113397203D01*
X95600001Y-113397204D01*
X95600000Y-113397204D01*
X95589500Y-113499983D01*
X95589500Y-114300001D01*
X95589501Y-114300019D01*
X95600000Y-114402796D01*
X95600001Y-114402799D01*
X95625612Y-114480086D01*
X95655186Y-114569334D01*
X95747288Y-114718656D01*
X95871344Y-114842712D01*
X96020666Y-114934814D01*
X96187203Y-114989999D01*
X96289991Y-115000500D01*
X96987639Y-115000499D01*
X97054678Y-115020183D01*
X97075320Y-115036818D01*
X97611581Y-115573079D01*
X97645066Y-115634402D01*
X97647900Y-115660760D01*
X97647900Y-116210500D01*
X97628215Y-116277539D01*
X97575411Y-116323294D01*
X97523900Y-116334500D01*
X97384298Y-116334500D01*
X97347432Y-116337401D01*
X97347426Y-116337402D01*
X97233698Y-116370444D01*
X97164508Y-116370444D01*
X97052495Y-116337900D01*
X97052489Y-116337899D01*
X97015649Y-116335000D01*
X96584350Y-116335000D01*
X96547510Y-116337899D01*
X96547504Y-116337900D01*
X96389806Y-116383716D01*
X96389803Y-116383717D01*
X96248443Y-116467317D01*
X96248441Y-116467318D01*
X96229655Y-116486104D01*
X96763181Y-117019629D01*
X96796666Y-117080952D01*
X96799500Y-117107310D01*
X96799500Y-117712690D01*
X96779815Y-117779729D01*
X96763181Y-117800371D01*
X96134457Y-118429095D01*
X96073134Y-118462580D01*
X96003442Y-118457596D01*
X95959095Y-118429095D01*
X95780905Y-118250905D01*
X95747420Y-118189582D01*
X95752404Y-118119890D01*
X95780905Y-118075543D01*
X96446448Y-117410000D01*
X95780905Y-116744457D01*
X95747420Y-116683134D01*
X95752404Y-116613442D01*
X95780905Y-116569095D01*
X95857119Y-116492880D01*
X95779980Y-116485000D01*
X94000028Y-116485000D01*
X94000012Y-116485001D01*
X93897302Y-116495494D01*
X93789700Y-116531148D01*
X93789700Y-116531149D01*
X95066776Y-117808224D01*
X96375564Y-119117013D01*
X96375564Y-119117012D01*
X96414358Y-119054120D01*
X96469505Y-118887697D01*
X96469506Y-118887690D01*
X96479999Y-118784986D01*
X96479999Y-118609001D01*
X96499683Y-118541961D01*
X96552487Y-118496206D01*
X96603999Y-118485000D01*
X97015634Y-118485000D01*
X97015650Y-118484999D01*
X97022992Y-118484421D01*
X97091370Y-118498780D01*
X97123572Y-118523636D01*
X97130324Y-118530903D01*
X97149200Y-118559153D01*
X97247217Y-118657170D01*
X97247220Y-118657172D01*
X97253172Y-118663124D01*
X98606643Y-120016596D01*
X98606647Y-120016599D01*
X98721896Y-120093607D01*
X98721909Y-120093614D01*
X98849963Y-120146655D01*
X98849968Y-120146657D01*
X98849972Y-120146657D01*
X98849973Y-120146658D01*
X98985918Y-120173700D01*
X98985921Y-120173700D01*
X99030692Y-120173700D01*
X101019072Y-120173700D01*
X101019092Y-120173701D01*
X101025206Y-120173701D01*
X101163824Y-120173701D01*
X101255282Y-120155507D01*
X101299776Y-120146657D01*
X101427841Y-120093611D01*
X101427846Y-120093607D01*
X101427849Y-120093606D01*
X101445430Y-120081859D01*
X101445431Y-120081858D01*
X101469764Y-120065598D01*
X101543097Y-120016600D01*
X101641114Y-119918583D01*
X101641115Y-119918581D01*
X101648181Y-119911515D01*
X101648184Y-119911511D01*
X102120846Y-119438849D01*
X104009700Y-119438849D01*
X104117308Y-119474506D01*
X104117305Y-119474506D01*
X104220019Y-119484999D01*
X105999971Y-119484999D01*
X105999987Y-119484998D01*
X106102697Y-119474505D01*
X106210297Y-119438850D01*
X106210298Y-119438849D01*
X105110000Y-118338552D01*
X104009700Y-119438849D01*
X102120846Y-119438849D01*
X102944379Y-118615316D01*
X102944383Y-118615314D01*
X103038380Y-118521317D01*
X103099704Y-118487833D01*
X103099708Y-118487833D01*
X103126060Y-118485000D01*
X103396000Y-118485000D01*
X103463039Y-118504685D01*
X103508794Y-118557489D01*
X103520000Y-118608999D01*
X103520000Y-118784970D01*
X103520001Y-118784987D01*
X103530494Y-118887697D01*
X103585641Y-119054119D01*
X103585644Y-119054126D01*
X103624434Y-119117012D01*
X103624435Y-119117012D01*
X104845543Y-117895905D01*
X104906866Y-117862420D01*
X104976558Y-117867404D01*
X105020905Y-117895905D01*
X105109999Y-117984999D01*
X105199093Y-117895905D01*
X105260416Y-117862420D01*
X105330108Y-117867404D01*
X105374456Y-117895905D01*
X106595564Y-119117013D01*
X106595564Y-119117012D01*
X106634358Y-119054120D01*
X106689505Y-118887697D01*
X106689506Y-118887690D01*
X106699999Y-118784986D01*
X106699999Y-117185028D01*
X106699998Y-117185012D01*
X106689505Y-117082302D01*
X106634358Y-116915880D01*
X106634356Y-116915875D01*
X106542315Y-116766654D01*
X106413237Y-116637576D01*
X106414853Y-116635959D01*
X106380855Y-116587946D01*
X106377715Y-116518147D01*
X106412810Y-116457731D01*
X106474998Y-116425879D01*
X106498142Y-116423700D01*
X107310760Y-116423700D01*
X107377799Y-116443385D01*
X107388434Y-116451043D01*
X107433204Y-116487030D01*
X107433207Y-116487031D01*
X107433208Y-116487032D01*
X107603802Y-116571639D01*
X107603803Y-116571639D01*
X107603807Y-116571641D01*
X107788611Y-116617600D01*
X107831377Y-116620500D01*
X108733622Y-116620499D01*
X108776389Y-116617600D01*
X108961193Y-116571641D01*
X109131796Y-116487030D01*
X109280222Y-116367722D01*
X109335853Y-116298514D01*
X109393196Y-116258595D01*
X109463018Y-116256015D01*
X109523151Y-116291594D01*
X109529147Y-116298514D01*
X109584777Y-116367721D01*
X109584778Y-116367722D01*
X109733204Y-116487030D01*
X109733207Y-116487032D01*
X109903802Y-116571639D01*
X109903803Y-116571639D01*
X109903807Y-116571641D01*
X110088611Y-116617600D01*
X110131377Y-116620500D01*
X111033622Y-116620499D01*
X111076389Y-116617600D01*
X111261193Y-116571641D01*
X111431796Y-116487030D01*
X111580222Y-116367722D01*
X111636175Y-116298112D01*
X111693515Y-116258196D01*
X111763337Y-116255616D01*
X111823470Y-116291194D01*
X111829467Y-116298115D01*
X111885132Y-116367366D01*
X111885133Y-116367367D01*
X112033474Y-116486607D01*
X112033477Y-116486609D01*
X112203976Y-116571168D01*
X112388675Y-116617102D01*
X112431403Y-116620000D01*
X112632500Y-116620000D01*
X112632500Y-114870000D01*
X113132500Y-114870000D01*
X114132500Y-114870000D01*
X114132500Y-114418903D01*
X114129602Y-114376175D01*
X114083668Y-114191476D01*
X113999109Y-114020977D01*
X113999107Y-114020974D01*
X113879867Y-113872633D01*
X113879866Y-113872632D01*
X113731525Y-113753392D01*
X113731522Y-113753390D01*
X113562827Y-113669726D01*
X113562826Y-113669725D01*
X113562824Y-113669725D01*
X113561021Y-113668830D01*
X113525459Y-113659986D01*
X114285001Y-113659986D01*
X114295494Y-113762697D01*
X114350641Y-113929119D01*
X114350643Y-113929124D01*
X114442684Y-114078345D01*
X114566654Y-114202315D01*
X114715875Y-114294356D01*
X114715880Y-114294358D01*
X114882302Y-114349505D01*
X114882309Y-114349506D01*
X114985019Y-114359999D01*
X115259999Y-114359999D01*
X115260000Y-114359998D01*
X115260000Y-113610000D01*
X114285001Y-113610000D01*
X114285001Y-113659986D01*
X113525459Y-113659986D01*
X113376324Y-113622897D01*
X113333597Y-113620000D01*
X113132500Y-113620000D01*
X113132500Y-114870000D01*
X112632500Y-114870000D01*
X112632500Y-113620000D01*
X112431403Y-113620000D01*
X112388675Y-113622897D01*
X112203976Y-113668831D01*
X112033477Y-113753390D01*
X112033474Y-113753392D01*
X111885135Y-113872631D01*
X111829467Y-113941885D01*
X111772124Y-113981803D01*
X111702301Y-113984383D01*
X111642169Y-113948804D01*
X111636173Y-113941884D01*
X111580222Y-113872278D01*
X111580221Y-113872277D01*
X111431795Y-113752969D01*
X111355105Y-113714934D01*
X111303792Y-113667512D01*
X111286200Y-113603846D01*
X111286200Y-110818244D01*
X111305885Y-110751205D01*
X111358689Y-110705450D01*
X111427847Y-110695506D01*
X111491403Y-110724531D01*
X111497881Y-110730563D01*
X112682774Y-111915456D01*
X112682803Y-111915487D01*
X112783913Y-112016597D01*
X112783921Y-112016603D01*
X112884490Y-112083801D01*
X112899164Y-112093605D01*
X112899173Y-112093611D01*
X113027238Y-112146657D01*
X113027242Y-112146657D01*
X113027243Y-112146658D01*
X113163189Y-112173701D01*
X113163192Y-112173701D01*
X113307923Y-112173701D01*
X113307943Y-112173700D01*
X114385969Y-112173700D01*
X114413923Y-112181908D01*
X114442554Y-112187363D01*
X114449342Y-112192308D01*
X114453008Y-112193385D01*
X114471347Y-112207775D01*
X114472533Y-112208901D01*
X114566344Y-112302712D01*
X114580605Y-112311508D01*
X114589937Y-112320368D01*
X114601272Y-112339904D01*
X114616379Y-112356699D01*
X114618469Y-112369545D01*
X114625001Y-112380802D01*
X114623974Y-112403365D01*
X114627603Y-112425661D01*
X114622416Y-112437598D01*
X114621825Y-112450599D01*
X114608761Y-112469027D01*
X114599761Y-112489744D01*
X114585022Y-112502517D01*
X114581419Y-112507600D01*
X114577192Y-112509302D01*
X114569665Y-112515826D01*
X114566660Y-112517679D01*
X114566655Y-112517683D01*
X114442684Y-112641654D01*
X114350643Y-112790875D01*
X114350641Y-112790880D01*
X114295494Y-112957302D01*
X114295493Y-112957309D01*
X114285000Y-113060013D01*
X114285000Y-113110000D01*
X115386000Y-113110000D01*
X115453039Y-113129685D01*
X115498794Y-113182489D01*
X115510000Y-113234000D01*
X115510000Y-113360000D01*
X115636000Y-113360000D01*
X115703039Y-113379685D01*
X115748794Y-113432489D01*
X115760000Y-113484000D01*
X115760000Y-114233455D01*
X115740315Y-114300494D01*
X115723681Y-114321136D01*
X114344181Y-115700636D01*
X114282858Y-115734121D01*
X114213166Y-115729137D01*
X114157233Y-115687265D01*
X114132816Y-115621801D01*
X114132500Y-115612955D01*
X114132500Y-115370000D01*
X113132500Y-115370000D01*
X113132500Y-116620000D01*
X113135428Y-116622928D01*
X113192494Y-116639685D01*
X113238249Y-116692489D01*
X113248193Y-116761647D01*
X113219168Y-116825203D01*
X113213136Y-116831681D01*
X106814837Y-123229981D01*
X106787909Y-123244684D01*
X106762091Y-123261277D01*
X106755890Y-123262168D01*
X106753514Y-123263466D01*
X106727156Y-123266300D01*
X106682484Y-123266300D01*
X106615445Y-123246615D01*
X106569690Y-123193811D01*
X106559746Y-123124653D01*
X106576945Y-123077203D01*
X106634356Y-122984124D01*
X106634358Y-122984119D01*
X106689505Y-122817697D01*
X106689506Y-122817690D01*
X106699999Y-122714986D01*
X106699999Y-121115028D01*
X106699998Y-121115012D01*
X106689505Y-121012302D01*
X106634358Y-120845879D01*
X106634355Y-120845873D01*
X106595565Y-120782986D01*
X106595563Y-120782986D01*
X105374456Y-122004094D01*
X105313133Y-122037579D01*
X105243441Y-122032595D01*
X105199094Y-122004094D01*
X105110000Y-121915000D01*
X105020905Y-122004095D01*
X104959582Y-122037580D01*
X104889890Y-122032596D01*
X104845543Y-122004095D01*
X103624434Y-120782986D01*
X103585643Y-120845875D01*
X103585641Y-120845880D01*
X103530494Y-121012302D01*
X103530493Y-121012309D01*
X103520000Y-121115013D01*
X103520000Y-122714971D01*
X103520001Y-122714987D01*
X103530494Y-122817697D01*
X103585641Y-122984119D01*
X103585643Y-122984124D01*
X103643055Y-123077203D01*
X103661495Y-123144596D01*
X103640572Y-123211259D01*
X103586930Y-123256029D01*
X103537516Y-123266300D01*
X96462484Y-123266300D01*
X96395445Y-123246615D01*
X96349690Y-123193811D01*
X96339746Y-123124653D01*
X96356945Y-123077203D01*
X96414356Y-122984124D01*
X96414358Y-122984119D01*
X96469505Y-122817697D01*
X96469506Y-122817690D01*
X96479999Y-122714986D01*
X96479999Y-121115028D01*
X96479998Y-121115012D01*
X96469505Y-121012302D01*
X96414358Y-120845879D01*
X96414355Y-120845873D01*
X96375565Y-120782986D01*
X96375563Y-120782986D01*
X95154456Y-122004094D01*
X95093133Y-122037579D01*
X95023441Y-122032595D01*
X94979094Y-122004094D01*
X94890000Y-121915000D01*
X94800905Y-122004095D01*
X94739582Y-122037580D01*
X94669890Y-122032596D01*
X94625543Y-122004095D01*
X93404434Y-120782986D01*
X93365643Y-120845875D01*
X93365641Y-120845880D01*
X93310494Y-121012302D01*
X93310493Y-121012309D01*
X93300000Y-121115013D01*
X93300000Y-122714971D01*
X93300001Y-122714987D01*
X93310494Y-122817697D01*
X93365641Y-122984119D01*
X93365643Y-122984124D01*
X93423055Y-123077203D01*
X93441495Y-123144596D01*
X93420572Y-123211259D01*
X93366930Y-123256029D01*
X93317516Y-123266300D01*
X91342844Y-123266300D01*
X91275805Y-123246615D01*
X91255163Y-123229981D01*
X88732433Y-120707251D01*
X88716635Y-120687894D01*
X88637617Y-120568218D01*
X88566923Y-120461149D01*
X88566922Y-120461148D01*
X93789700Y-120461148D01*
X93789700Y-120461149D01*
X94890000Y-121561448D01*
X94890001Y-121561448D01*
X95990298Y-120461149D01*
X95990298Y-120461148D01*
X104009700Y-120461148D01*
X104009700Y-120461149D01*
X105110000Y-121561448D01*
X105110001Y-121561448D01*
X106210298Y-120461149D01*
X106210298Y-120461148D01*
X106102699Y-120425494D01*
X105999979Y-120415000D01*
X104220028Y-120415000D01*
X104220012Y-120415001D01*
X104117302Y-120425494D01*
X104009700Y-120461148D01*
X95990298Y-120461148D01*
X95882699Y-120425494D01*
X95779979Y-120415000D01*
X94000028Y-120415000D01*
X94000012Y-120415001D01*
X93897302Y-120425494D01*
X93789700Y-120461148D01*
X88566922Y-120461148D01*
X88412857Y-120227809D01*
X88403513Y-120214150D01*
X88403496Y-120214126D01*
X88379850Y-120183323D01*
X88379847Y-120183320D01*
X88376840Y-120180061D01*
X88364870Y-120164862D01*
X88355249Y-120150463D01*
X88355247Y-120150460D01*
X88239540Y-120034753D01*
X88103484Y-119943844D01*
X87952306Y-119881224D01*
X87952300Y-119881222D01*
X87791819Y-119849300D01*
X87791817Y-119849300D01*
X87628183Y-119849300D01*
X87628181Y-119849300D01*
X87467699Y-119881222D01*
X87467693Y-119881224D01*
X87316517Y-119943843D01*
X87180457Y-120034754D01*
X87064754Y-120150457D01*
X86973843Y-120286517D01*
X86911224Y-120437693D01*
X86911222Y-120437699D01*
X86879300Y-120598180D01*
X86879300Y-120598183D01*
X86879300Y-120761817D01*
X86879300Y-120761819D01*
X86879299Y-120761819D01*
X86911222Y-120922300D01*
X86911224Y-120922306D01*
X86973843Y-121073482D01*
X87064754Y-121209542D01*
X87180455Y-121325243D01*
X87180458Y-121325245D01*
X87180460Y-121325247D01*
X87223808Y-121354211D01*
X87237259Y-121364601D01*
X87257809Y-121382857D01*
X87257815Y-121382862D01*
X87717893Y-121686635D01*
X87737251Y-121702433D01*
X89982560Y-123947742D01*
X90016045Y-124009065D01*
X90011061Y-124078757D01*
X89969189Y-124134690D01*
X89903725Y-124159107D01*
X89845292Y-124149077D01*
X89077952Y-123814290D01*
X89073737Y-123812356D01*
X88195142Y-123389247D01*
X88191003Y-123387157D01*
X87328864Y-122931503D01*
X87324805Y-122929260D01*
X86480289Y-122441678D01*
X86476317Y-122439285D01*
X85925110Y-122092939D01*
X85650615Y-121920462D01*
X85646742Y-121917927D01*
X84841007Y-121368586D01*
X84837225Y-121365902D01*
X84358123Y-121012309D01*
X84052600Y-120786823D01*
X84048961Y-120784030D01*
X83425100Y-120286517D01*
X83286539Y-120176018D01*
X83282968Y-120173060D01*
X82543786Y-119536943D01*
X82540344Y-119533866D01*
X82494147Y-119491002D01*
X82494146Y-119491000D01*
X82437941Y-119438849D01*
X93789700Y-119438849D01*
X93897308Y-119474506D01*
X93897305Y-119474506D01*
X94000019Y-119484999D01*
X95779971Y-119484999D01*
X95779987Y-119484998D01*
X95882697Y-119474505D01*
X95990297Y-119438850D01*
X95990298Y-119438849D01*
X94890000Y-118338552D01*
X93789700Y-119438849D01*
X82437941Y-119438849D01*
X81825512Y-118870599D01*
X81822172Y-118867382D01*
X81132617Y-118177827D01*
X81129400Y-118174487D01*
X80466147Y-117459670D01*
X80463056Y-117456213D01*
X80296566Y-117262748D01*
X80229670Y-117185013D01*
X93300000Y-117185013D01*
X93300000Y-118784971D01*
X93300001Y-118784987D01*
X93310494Y-118887697D01*
X93365641Y-119054119D01*
X93365644Y-119054126D01*
X93404434Y-119117012D01*
X93404435Y-119117012D01*
X94536448Y-117985000D01*
X94536448Y-117984999D01*
X93404434Y-116852986D01*
X93365643Y-116915875D01*
X93365641Y-116915880D01*
X93310494Y-117082302D01*
X93310493Y-117082309D01*
X93300000Y-117185013D01*
X80229670Y-117185013D01*
X79826939Y-116717031D01*
X79823981Y-116713460D01*
X79594642Y-116425879D01*
X79215963Y-115951030D01*
X79213182Y-115947407D01*
X78649647Y-115183844D01*
X78634097Y-115162774D01*
X78631413Y-115158992D01*
X78369485Y-114774814D01*
X78082059Y-114353237D01*
X78079545Y-114349397D01*
X77560713Y-113523680D01*
X77558321Y-113519710D01*
X77546932Y-113499983D01*
X77070732Y-112675182D01*
X77068496Y-112671135D01*
X77061736Y-112658345D01*
X76612836Y-111808984D01*
X76610752Y-111804857D01*
X76547446Y-111673400D01*
X76187636Y-110926246D01*
X76185709Y-110922047D01*
X76167627Y-110880602D01*
X75795728Y-110028201D01*
X75793962Y-110023935D01*
X75755871Y-109926880D01*
X75437698Y-109116189D01*
X75436111Y-109111915D01*
X75114002Y-108191380D01*
X75112560Y-108186995D01*
X75107736Y-108171357D01*
X74825126Y-107255154D01*
X74823848Y-107250718D01*
X74820122Y-107236813D01*
X74571448Y-106308752D01*
X74570337Y-106304268D01*
X74569273Y-106299606D01*
X74353338Y-105353530D01*
X74352396Y-105349014D01*
X74334894Y-105256516D01*
X74171104Y-104390862D01*
X74170327Y-104386290D01*
X74154728Y-104282795D01*
X74024979Y-103421970D01*
X74024384Y-103417449D01*
X73915193Y-102448357D01*
X73914765Y-102443792D01*
X73841889Y-101471313D01*
X73841630Y-101466701D01*
X73836526Y-101330303D01*
X73805168Y-100492225D01*
X73805081Y-100487589D01*
X73805081Y-99512410D01*
X73805168Y-99507774D01*
X73809382Y-99395163D01*
X73841631Y-98533279D01*
X73841890Y-98528668D01*
X73914765Y-97556202D01*
X73915193Y-97551647D01*
X74024384Y-96582543D01*
X74024978Y-96578036D01*
X74170328Y-95613701D01*
X74171104Y-95609137D01*
X74200060Y-95456100D01*
X74352403Y-94650951D01*
X74353335Y-94646480D01*
X74570344Y-93695701D01*
X74571445Y-93691259D01*
X74823857Y-92749247D01*
X74825122Y-92744859D01*
X75112572Y-91812967D01*
X75113997Y-91808635D01*
X75436117Y-90888066D01*
X75437691Y-90883827D01*
X75793977Y-89976026D01*
X75795720Y-89971816D01*
X76185725Y-89077916D01*
X76187626Y-89073773D01*
X76610768Y-88195109D01*
X76612824Y-88191036D01*
X77068515Y-87328828D01*
X77070719Y-87324839D01*
X77558346Y-86480247D01*
X77560698Y-86476342D01*
X78079561Y-85650577D01*
X78082042Y-85646786D01*
X78631426Y-84840988D01*
X78634083Y-84837244D01*
X79213202Y-84052566D01*
X79215942Y-84048994D01*
X79823991Y-83286525D01*
X79826939Y-83282968D01*
X80463072Y-82543767D01*
X80466130Y-82540347D01*
X81129427Y-81825483D01*
X81132590Y-81822199D01*
X81822199Y-81132590D01*
X81825483Y-81129427D01*
X82540347Y-80466130D01*
X82543767Y-80463072D01*
X83282980Y-79826928D01*
X83286525Y-79823991D01*
X84048962Y-79215968D01*
X84052625Y-79213158D01*
X84064723Y-79204229D01*
X84130352Y-79180259D01*
X84138356Y-79180000D01*
X115861644Y-79180000D01*
X115928683Y-79199685D01*
G37*
%TD.AperFunction*%
%TA.AperFunction,Conductor*%
G36*
X114065202Y-84077146D02*
G01*
X114071680Y-84083178D01*
X115964981Y-85976479D01*
X115998466Y-86037802D01*
X116001300Y-86064160D01*
X116001300Y-88380440D01*
X115981615Y-88447479D01*
X115928811Y-88493234D01*
X115859653Y-88503178D01*
X115796097Y-88474153D01*
X115789619Y-88468121D01*
X113119047Y-85797549D01*
X113085562Y-85736226D01*
X113090546Y-85666534D01*
X113132418Y-85610601D01*
X113194128Y-85586510D01*
X113262696Y-85579506D01*
X113429119Y-85524358D01*
X113429124Y-85524356D01*
X113578345Y-85432315D01*
X113702315Y-85308345D01*
X113794356Y-85159124D01*
X113794358Y-85159119D01*
X113849505Y-84992697D01*
X113849506Y-84992690D01*
X113859999Y-84889986D01*
X113860000Y-84889973D01*
X113860000Y-84640000D01*
X112884000Y-84640000D01*
X112816961Y-84620315D01*
X112771206Y-84567511D01*
X112760000Y-84516000D01*
X112760000Y-84264000D01*
X112779685Y-84196961D01*
X112832489Y-84151206D01*
X112884000Y-84140000D01*
X113859999Y-84140000D01*
X113872827Y-84127171D01*
X113879684Y-84103820D01*
X113932488Y-84058065D01*
X114001646Y-84048121D01*
X114065202Y-84077146D01*
G37*
%TD.AperFunction*%
%TD*%
%TA.AperFunction,Conductor*%
%TO.N,RX*%
G36*
X93534184Y-112355826D02*
G01*
X93537248Y-112361205D01*
X93680811Y-112923655D01*
X93679536Y-112932519D01*
X93672368Y-112937886D01*
X93671791Y-112938017D01*
X93364788Y-113000032D01*
X93356000Y-112998311D01*
X93355946Y-112998276D01*
X93239750Y-112920213D01*
X93094396Y-112822562D01*
X93089441Y-112815105D01*
X93090709Y-112807143D01*
X93341650Y-112358388D01*
X93348679Y-112352840D01*
X93351862Y-112352399D01*
X93525911Y-112352399D01*
X93534184Y-112355826D01*
G37*
%TD.AperFunction*%
%TD*%
%TA.AperFunction,Conductor*%
%TO.N,TX*%
G36*
X92822200Y-111915227D02*
G01*
X92825609Y-111922856D01*
X92853298Y-112425473D01*
X92850332Y-112433923D01*
X92843933Y-112437585D01*
X92534788Y-112500032D01*
X92526000Y-112498311D01*
X92525946Y-112498276D01*
X92266873Y-112324226D01*
X92261917Y-112316768D01*
X92263686Y-112307989D01*
X92264857Y-112306517D01*
X92631533Y-111915496D01*
X92639692Y-111911806D01*
X92640068Y-111911800D01*
X92813927Y-111911800D01*
X92822200Y-111915227D01*
G37*
%TD.AperFunction*%
%TD*%
M02*
