%TF.GenerationSoftware,KiCad,Pcbnew,8.99.0-3406-g49ffbf5b50*%
%TF.CreationDate,2025-01-20T10:30:06+05:30*%
%TF.ProjectId,knob,6b6e6f62-2e6b-4696-9361-645f70636258,rev?*%
%TF.SameCoordinates,Original*%
%TF.FileFunction,Soldermask,Bot*%
%TF.FilePolarity,Negative*%
%FSLAX46Y46*%
G04 Gerber Fmt 4.6, Leading zero omitted, Abs format (unit mm)*
G04 Created by KiCad (PCBNEW 8.99.0-3406-g49ffbf5b50) date 2025-01-20 10:30:06*
%MOMM*%
%LPD*%
G01*
G04 APERTURE LIST*
G04 Aperture macros list*
%AMRoundRect*
0 Rectangle with rounded corners*
0 $1 Rounding radius*
0 $2 $3 $4 $5 $6 $7 $8 $9 X,Y pos of 4 corners*
0 Add a 4 corners polygon primitive as box body*
4,1,4,$2,$3,$4,$5,$6,$7,$8,$9,$2,$3,0*
0 Add four circle primitives for the rounded corners*
1,1,$1+$1,$2,$3*
1,1,$1+$1,$4,$5*
1,1,$1+$1,$6,$7*
1,1,$1+$1,$8,$9*
0 Add four rect primitives between the rounded corners*
20,1,$1+$1,$2,$3,$4,$5,0*
20,1,$1+$1,$4,$5,$6,$7,0*
20,1,$1+$1,$6,$7,$8,$9,0*
20,1,$1+$1,$8,$9,$2,$3,0*%
%AMRotRect*
0 Rectangle, with rotation*
0 The origin of the aperture is its center*
0 $1 length*
0 $2 width*
0 $3 Rotation angle, in degrees counterclockwise*
0 Add horizontal line*
21,1,$1,$2,0,0,$3*%
G04 Aperture macros list end*
%ADD10RoundRect,0.250000X-0.475000X0.250000X-0.475000X-0.250000X0.475000X-0.250000X0.475000X0.250000X0*%
%ADD11RoundRect,0.250000X-0.350000X-0.450000X0.350000X-0.450000X0.350000X0.450000X-0.350000X0.450000X0*%
%ADD12RoundRect,0.250000X0.450000X-0.350000X0.450000X0.350000X-0.450000X0.350000X-0.450000X-0.350000X0*%
%ADD13RoundRect,0.250000X-0.725000X0.600000X-0.725000X-0.600000X0.725000X-0.600000X0.725000X0.600000X0*%
%ADD14O,1.950000X1.700000*%
%ADD15RoundRect,0.250000X0.350000X0.450000X-0.350000X0.450000X-0.350000X-0.450000X0.350000X-0.450000X0*%
%ADD16RoundRect,0.250000X-0.450000X0.350000X-0.450000X-0.350000X0.450000X-0.350000X0.450000X0.350000X0*%
%ADD17RotRect,1.950000X0.500000X45.000000*%
%ADD18RoundRect,0.150000X-0.150000X0.825000X-0.150000X-0.825000X0.150000X-0.825000X0.150000X0.825000X0*%
%ADD19RoundRect,0.150000X0.150000X0.425000X-0.150000X0.425000X-0.150000X-0.425000X0.150000X-0.425000X0*%
%ADD20RoundRect,0.075000X0.075000X0.500000X-0.075000X0.500000X-0.075000X-0.500000X0.075000X-0.500000X0*%
%ADD21RoundRect,0.250000X0.840000X0.750000X-0.840000X0.750000X-0.840000X-0.750000X0.840000X-0.750000X0*%
%ADD22RoundRect,0.250000X0.475000X-0.250000X0.475000X0.250000X-0.475000X0.250000X-0.475000X-0.250000X0*%
%ADD23RoundRect,0.022860X-0.383540X-0.053340X0.383540X-0.053340X0.383540X0.053340X-0.383540X0.053340X0*%
%ADD24RoundRect,0.022860X-0.427140X-0.053340X0.427140X-0.053340X0.427140X0.053340X-0.427140X0.053340X0*%
%ADD25RoundRect,0.021000X-0.385400X-0.049000X0.385400X-0.049000X0.385400X0.049000X-0.385400X0.049000X0*%
%ADD26RoundRect,0.022860X-0.053340X-0.383540X0.053340X-0.383540X0.053340X0.383540X-0.053340X0.383540X0*%
%ADD27RoundRect,0.022860X-0.053340X-0.333540X0.053340X-0.333540X0.053340X0.333540X-0.053340X0.333540X0*%
%ADD28RoundRect,0.375000X0.375000X-0.625000X0.375000X0.625000X-0.375000X0.625000X-0.375000X-0.625000X0*%
%ADD29RoundRect,0.500000X1.400000X-0.500000X1.400000X0.500000X-1.400000X0.500000X-1.400000X-0.500000X0*%
G04 APERTURE END LIST*
D10*
%TO.C,C6*%
X105630000Y-111940000D03*
X105630000Y-113840000D03*
%TD*%
D11*
%TO.C,R3*%
X101700000Y-95920000D03*
X103700000Y-95920000D03*
%TD*%
D12*
%TO.C,R1*%
X96790000Y-113900000D03*
X96790000Y-111900000D03*
%TD*%
D10*
%TO.C,C3*%
X122510000Y-92370000D03*
X122510000Y-94270000D03*
%TD*%
D13*
%TO.C,J3*%
X122352500Y-100280000D03*
D14*
X122352500Y-102780000D03*
X122352500Y-105280000D03*
%TD*%
D15*
%TO.C,R5*%
X99910000Y-95920000D03*
X97910000Y-95920000D03*
%TD*%
D16*
%TO.C,R10*%
X85950000Y-103780000D03*
X85950000Y-105780000D03*
%TD*%
D17*
%TO.C,J2*%
X96298428Y-108378427D03*
X96970179Y-106292462D03*
X94884214Y-106964213D03*
X95555966Y-104878248D03*
X93470000Y-105550000D03*
X94141752Y-103464035D03*
X92055787Y-104135786D03*
X92727538Y-102049821D03*
%TD*%
D18*
%TO.C,Q1*%
X77300000Y-102435000D03*
X78570000Y-102435000D03*
X79840000Y-102435000D03*
X81110000Y-102435000D03*
X81110000Y-107385000D03*
X79840000Y-107385000D03*
X78570000Y-107385000D03*
X77300000Y-107385000D03*
%TD*%
D19*
%TO.C,J1*%
X103200000Y-117410000D03*
X102400000Y-117410000D03*
D20*
X101250000Y-117410000D03*
X100250000Y-117410000D03*
X99750000Y-117410000D03*
X98750000Y-117410000D03*
D19*
X97600000Y-117410000D03*
X96800000Y-117410000D03*
X96800000Y-117410000D03*
X97600000Y-117410000D03*
D20*
X98250000Y-117410000D03*
X99250000Y-117410000D03*
X100750000Y-117410000D03*
X101750000Y-117410000D03*
D19*
X102400000Y-117410000D03*
X103200000Y-117410000D03*
D21*
X105110000Y-121915000D03*
X105110000Y-117985000D03*
X94890000Y-121915000D03*
X94890000Y-117985000D03*
%TD*%
D11*
%TO.C,R4*%
X109530000Y-86700000D03*
X111530000Y-86700000D03*
%TD*%
D16*
%TO.C,R9*%
X83510000Y-103720000D03*
X83510000Y-105720000D03*
%TD*%
D11*
%TO.C,R6*%
X111120000Y-81650000D03*
X113120000Y-81650000D03*
%TD*%
D22*
%TO.C,C7*%
X115510000Y-113360000D03*
X115510000Y-111460000D03*
%TD*%
D10*
%TO.C,C4*%
X120530000Y-92380000D03*
X120530000Y-94280000D03*
%TD*%
%TO.C,C2*%
X112900000Y-94860000D03*
X112900000Y-96760000D03*
%TD*%
D22*
%TO.C,C11*%
X99730000Y-111890000D03*
X99730000Y-109990000D03*
%TD*%
D12*
%TO.C,R2*%
X103190000Y-113900000D03*
X103190000Y-111900000D03*
%TD*%
D15*
%TO.C,R7*%
X111510000Y-90880000D03*
X109510000Y-90880000D03*
%TD*%
D23*
%TO.C,U3*%
X114900000Y-94730000D03*
D24*
X114840000Y-94330000D03*
D23*
X114900000Y-93930000D03*
D25*
X114900000Y-93530000D03*
D23*
X114900000Y-93130000D03*
D26*
X115550000Y-92480000D03*
X115950000Y-92480000D03*
X116350000Y-92480000D03*
X116750000Y-92480000D03*
X117150000Y-92480000D03*
D23*
X117800000Y-93130000D03*
X117800000Y-93530000D03*
X117800000Y-93930000D03*
X117800000Y-94330000D03*
X117800000Y-94730000D03*
D26*
X117150000Y-95380000D03*
X116750000Y-95380000D03*
X116350000Y-95380000D03*
X115950000Y-95380000D03*
D27*
X115550000Y-95400000D03*
%TD*%
D28*
%TO.C,U6*%
X112882500Y-115120000D03*
X110582500Y-115120000D03*
D29*
X110582500Y-108820000D03*
D28*
X108282500Y-115120000D03*
%TD*%
D11*
%TO.C,R8*%
X110760000Y-84390000D03*
X112760000Y-84390000D03*
%TD*%
M02*
