%TF.GenerationSoftware,KiCad,Pcbnew,8.99.0-3406-g49ffbf5b50*%
%TF.CreationDate,2025-01-20T10:30:10+05:30*%
%TF.ProjectId,knob,6b6e6f62-2e6b-4696-9361-645f70636258,rev?*%
%TF.SameCoordinates,Original*%
%TF.FileFunction,Drillmap*%
%TF.FilePolarity,Positive*%
%FSLAX45Y45*%
G04 Gerber Fmt 4.5, Leading zero omitted, Abs format (unit mm)*
G04 Created by KiCad (PCBNEW 8.99.0-3406-g49ffbf5b50) date 2025-01-20 10:30:10*
%MOMM*%
%LPD*%
G01*
G04 APERTURE LIST*
%ADD10C,0.200000*%
%ADD11C,0.050000*%
G04 APERTURE END LIST*
D10*
X10666000Y-10722000D02*
G75*
G02*
X10066000Y-10722000I-300000J0D01*
G01*
X10066000Y-10722000D02*
G75*
G02*
X10666000Y-10722000I300000J0D01*
G01*
D11*
X12650000Y-10000000D02*
G75*
G02*
X7350000Y-10000000I-2650000J0D01*
G01*
X7350000Y-10000000D02*
G75*
G02*
X12650000Y-10000000I2650000J0D01*
G01*
D10*
X7608277Y-12963984D02*
X7608277Y-12763984D01*
X7608277Y-12763984D02*
X7655896Y-12763984D01*
X7655896Y-12763984D02*
X7684467Y-12773508D01*
X7684467Y-12773508D02*
X7703515Y-12792555D01*
X7703515Y-12792555D02*
X7713039Y-12811603D01*
X7713039Y-12811603D02*
X7722562Y-12849698D01*
X7722562Y-12849698D02*
X7722562Y-12878269D01*
X7722562Y-12878269D02*
X7713039Y-12916365D01*
X7713039Y-12916365D02*
X7703515Y-12935412D01*
X7703515Y-12935412D02*
X7684467Y-12954460D01*
X7684467Y-12954460D02*
X7655896Y-12963984D01*
X7655896Y-12963984D02*
X7608277Y-12963984D01*
X7808277Y-12963984D02*
X7808277Y-12830650D01*
X7808277Y-12868746D02*
X7817801Y-12849698D01*
X7817801Y-12849698D02*
X7827324Y-12840174D01*
X7827324Y-12840174D02*
X7846372Y-12830650D01*
X7846372Y-12830650D02*
X7865420Y-12830650D01*
X7932086Y-12963984D02*
X7932086Y-12830650D01*
X7932086Y-12763984D02*
X7922562Y-12773508D01*
X7922562Y-12773508D02*
X7932086Y-12783031D01*
X7932086Y-12783031D02*
X7941610Y-12773508D01*
X7941610Y-12773508D02*
X7932086Y-12763984D01*
X7932086Y-12763984D02*
X7932086Y-12783031D01*
X8055896Y-12963984D02*
X8036848Y-12954460D01*
X8036848Y-12954460D02*
X8027324Y-12935412D01*
X8027324Y-12935412D02*
X8027324Y-12763984D01*
X8160658Y-12963984D02*
X8141610Y-12954460D01*
X8141610Y-12954460D02*
X8132086Y-12935412D01*
X8132086Y-12935412D02*
X8132086Y-12763984D01*
X8389229Y-12963984D02*
X8389229Y-12763984D01*
X8389229Y-12763984D02*
X8455896Y-12906841D01*
X8455896Y-12906841D02*
X8522563Y-12763984D01*
X8522563Y-12763984D02*
X8522563Y-12963984D01*
X8703515Y-12963984D02*
X8703515Y-12859222D01*
X8703515Y-12859222D02*
X8693991Y-12840174D01*
X8693991Y-12840174D02*
X8674944Y-12830650D01*
X8674944Y-12830650D02*
X8636848Y-12830650D01*
X8636848Y-12830650D02*
X8617801Y-12840174D01*
X8703515Y-12954460D02*
X8684467Y-12963984D01*
X8684467Y-12963984D02*
X8636848Y-12963984D01*
X8636848Y-12963984D02*
X8617801Y-12954460D01*
X8617801Y-12954460D02*
X8608277Y-12935412D01*
X8608277Y-12935412D02*
X8608277Y-12916365D01*
X8608277Y-12916365D02*
X8617801Y-12897317D01*
X8617801Y-12897317D02*
X8636848Y-12887793D01*
X8636848Y-12887793D02*
X8684467Y-12887793D01*
X8684467Y-12887793D02*
X8703515Y-12878269D01*
X8798753Y-12830650D02*
X8798753Y-13030650D01*
X8798753Y-12840174D02*
X8817801Y-12830650D01*
X8817801Y-12830650D02*
X8855896Y-12830650D01*
X8855896Y-12830650D02*
X8874944Y-12840174D01*
X8874944Y-12840174D02*
X8884467Y-12849698D01*
X8884467Y-12849698D02*
X8893991Y-12868746D01*
X8893991Y-12868746D02*
X8893991Y-12925888D01*
X8893991Y-12925888D02*
X8884467Y-12944936D01*
X8884467Y-12944936D02*
X8874944Y-12954460D01*
X8874944Y-12954460D02*
X8855896Y-12963984D01*
X8855896Y-12963984D02*
X8817801Y-12963984D01*
X8817801Y-12963984D02*
X8798753Y-12954460D01*
X8979705Y-12944936D02*
X8989229Y-12954460D01*
X8989229Y-12954460D02*
X8979705Y-12963984D01*
X8979705Y-12963984D02*
X8970182Y-12954460D01*
X8970182Y-12954460D02*
X8979705Y-12944936D01*
X8979705Y-12944936D02*
X8979705Y-12963984D01*
X8979705Y-12840174D02*
X8989229Y-12849698D01*
X8989229Y-12849698D02*
X8979705Y-12859222D01*
X8979705Y-12859222D02*
X8970182Y-12849698D01*
X8970182Y-12849698D02*
X8979705Y-12840174D01*
X8979705Y-12840174D02*
X8979705Y-12859222D01*
M02*
