%TF.GenerationSoftware,KiCad,Pcbnew,8.99.0-3406-g49ffbf5b50*%
%TF.CreationDate,2025-01-20T10:30:10+05:30*%
%TF.ProjectId,knob,6b6e6f62-2e6b-4696-9361-645f70636258,rev?*%
%TF.SameCoordinates,Original*%
%TF.FileFunction,Drillmap*%
%TF.FilePolarity,Positive*%
%FSLAX45Y45*%
G04 Gerber Fmt 4.5, Leading zero omitted, Abs format (unit mm)*
G04 Created by KiCad (PCBNEW 8.99.0-3406-g49ffbf5b50) date 2025-01-20 10:30:10*
%MOMM*%
%LPD*%
G01*
G04 APERTURE LIST*
%ADD10C,0.200000*%
%ADD11C,0.050000*%
%ADD12C,0.100000*%
G04 APERTURE END LIST*
D10*
X10666000Y-10722000D02*
G75*
G02*
X10066000Y-10722000I-300000J0D01*
G01*
X10066000Y-10722000D02*
G75*
G02*
X10666000Y-10722000I300000J0D01*
G01*
D11*
X12650000Y-10000000D02*
G75*
G02*
X7350000Y-10000000I-2650000J0D01*
G01*
X7350000Y-10000000D02*
G75*
G02*
X12650000Y-10000000I2650000J0D01*
G01*
D10*
D12*
X7714760Y-9989760D02*
X7745240Y-10020240D01*
X7745240Y-9989760D02*
X7714760Y-10020240D01*
X8073760Y-9106760D02*
X8104240Y-9137240D01*
X8104240Y-9106760D02*
X8073760Y-9137240D01*
X8147760Y-9523760D02*
X8178240Y-9554240D01*
X8178240Y-9523760D02*
X8147760Y-9554240D01*
X8226760Y-9436760D02*
X8257240Y-9467240D01*
X8257240Y-9436760D02*
X8226760Y-9467240D01*
X8320760Y-11292260D02*
X8351240Y-11322740D01*
X8351240Y-11292260D02*
X8320760Y-11322740D01*
X8320760Y-11419260D02*
X8351240Y-11449740D01*
X8351240Y-11419260D02*
X8320760Y-11449740D01*
X8526760Y-9935760D02*
X8557240Y-9966240D01*
X8557240Y-9935760D02*
X8526760Y-9966240D01*
X8749760Y-9605760D02*
X8780240Y-9636240D01*
X8780240Y-9605760D02*
X8749760Y-9636240D01*
X8755760Y-12052760D02*
X8786240Y-12083240D01*
X8786240Y-12052760D02*
X8755760Y-12083240D01*
X8835760Y-8427760D02*
X8866240Y-8458240D01*
X8866240Y-8427760D02*
X8835760Y-8458240D01*
X8893760Y-8780760D02*
X8924240Y-8811240D01*
X8924240Y-8780760D02*
X8893760Y-8811240D01*
X8924068Y-9111221D02*
X8954548Y-9141701D01*
X8954548Y-9111221D02*
X8924068Y-9141701D01*
X9029760Y-8852760D02*
X9060240Y-8883240D01*
X9060240Y-8852760D02*
X9029760Y-8883240D01*
X9079920Y-8937760D02*
X9110400Y-8968240D01*
X9110400Y-8937760D02*
X9079920Y-8968240D01*
X9100760Y-8336760D02*
X9131240Y-8367240D01*
X9131240Y-8336760D02*
X9100760Y-8367240D01*
X9120240Y-9192760D02*
X9150720Y-9223240D01*
X9150720Y-9192760D02*
X9120240Y-9223240D01*
X9160560Y-9277760D02*
X9191040Y-9308240D01*
X9191040Y-9277760D02*
X9160560Y-9308240D01*
X9199760Y-11777760D02*
X9230240Y-11808240D01*
X9230240Y-11777760D02*
X9199760Y-11808240D01*
X9214760Y-9541760D02*
X9245240Y-9572240D01*
X9245240Y-9541760D02*
X9214760Y-9572240D01*
X9237760Y-11234760D02*
X9268240Y-11265240D01*
X9268240Y-11234760D02*
X9237760Y-11265240D01*
X9257760Y-10883760D02*
X9288240Y-10914240D01*
X9288240Y-10883760D02*
X9257760Y-10914240D01*
X9279703Y-9378469D02*
X9310183Y-9408949D01*
X9310183Y-9378469D02*
X9279703Y-9408949D01*
X9320760Y-11284760D02*
X9351240Y-11315240D01*
X9351240Y-11284760D02*
X9320760Y-11315240D01*
X9328760Y-10932760D02*
X9359240Y-10963240D01*
X9359240Y-10932760D02*
X9328760Y-10963240D01*
X9339760Y-9519760D02*
X9370240Y-9550240D01*
X9370240Y-9519760D02*
X9339760Y-9550240D01*
X9399760Y-9120760D02*
X9430240Y-9151240D01*
X9430240Y-9120760D02*
X9399760Y-9151240D01*
X9411760Y-9243760D02*
X9442240Y-9274240D01*
X9442240Y-9243760D02*
X9411760Y-9274240D01*
X9429760Y-9010760D02*
X9460240Y-9041240D01*
X9460240Y-9010760D02*
X9429760Y-9041240D01*
X9431260Y-8568260D02*
X9461740Y-8598740D01*
X9461740Y-8568260D02*
X9431260Y-8598740D01*
X9431760Y-8768760D02*
X9462240Y-8799240D01*
X9462240Y-8768760D02*
X9431760Y-8799240D01*
X9436760Y-9520760D02*
X9467240Y-9551240D01*
X9467240Y-9520760D02*
X9436760Y-9551240D01*
X9451760Y-8362760D02*
X9482240Y-8393240D01*
X9482240Y-8362760D02*
X9451760Y-8393240D01*
X9585760Y-9921260D02*
X9616240Y-9951740D01*
X9616240Y-9921260D02*
X9585760Y-9951740D01*
X9590760Y-10048260D02*
X9621240Y-10078740D01*
X9621240Y-10048260D02*
X9590760Y-10078740D01*
X9648760Y-9563760D02*
X9679240Y-9594240D01*
X9679240Y-9563760D02*
X9648760Y-9594240D01*
X9678760Y-9011760D02*
X9709240Y-9042240D01*
X9709240Y-9011760D02*
X9678760Y-9042240D01*
X9819760Y-8517760D02*
X9850240Y-8548240D01*
X9850240Y-8517760D02*
X9819760Y-8548240D01*
X9819760Y-8677760D02*
X9850240Y-8708240D01*
X9850240Y-8677760D02*
X9819760Y-8708240D01*
X9821760Y-8848760D02*
X9852240Y-8879240D01*
X9852240Y-8848760D02*
X9821760Y-8879240D01*
X9907760Y-11562760D02*
X9938240Y-11593240D01*
X9938240Y-11562760D02*
X9907760Y-11593240D01*
X9940760Y-9236760D02*
X9971240Y-9267240D01*
X9971240Y-9236760D02*
X9940760Y-9267240D01*
X9984760Y-8517760D02*
X10015240Y-8548240D01*
X10015240Y-8517760D02*
X9984760Y-8548240D01*
X9984760Y-8682760D02*
X10015240Y-8713240D01*
X10015240Y-8682760D02*
X9984760Y-8713240D01*
X9984760Y-8847760D02*
X10015240Y-8878240D01*
X10015240Y-8847760D02*
X9984760Y-8878240D01*
X10033760Y-11576760D02*
X10064240Y-11607240D01*
X10064240Y-11576760D02*
X10033760Y-11607240D01*
X10040933Y-9282442D02*
X10071413Y-9312922D01*
X10071413Y-9282442D02*
X10040933Y-9312922D01*
X10043760Y-10486760D02*
X10074240Y-10517240D01*
X10074240Y-10486760D02*
X10043760Y-10517240D01*
X10146760Y-8848760D02*
X10177240Y-8879240D01*
X10177240Y-8848760D02*
X10146760Y-8879240D01*
X10149760Y-8517760D02*
X10180240Y-8548240D01*
X10180240Y-8517760D02*
X10149760Y-8548240D01*
X10149760Y-8684760D02*
X10180240Y-8715240D01*
X10180240Y-8684760D02*
X10149760Y-8715240D01*
X10154760Y-9296760D02*
X10185240Y-9327240D01*
X10185240Y-9296760D02*
X10154760Y-9327240D01*
X10507760Y-8088760D02*
X10538240Y-8119240D01*
X10538240Y-8088760D02*
X10507760Y-8119240D01*
X10520260Y-8888260D02*
X10550740Y-8918740D01*
X10550740Y-8888260D02*
X10520260Y-8918740D01*
X10681760Y-9586760D02*
X10712240Y-9617240D01*
X10712240Y-9586760D02*
X10681760Y-9617240D01*
X10958760Y-8814760D02*
X10989240Y-8845240D01*
X10989240Y-8814760D02*
X10958760Y-8845240D01*
X11137760Y-8654760D02*
X11168240Y-8685240D01*
X11168240Y-8654760D02*
X11137760Y-8685240D01*
X11194760Y-10549760D02*
X11225240Y-10580240D01*
X11225240Y-10549760D02*
X11194760Y-10580240D01*
X11260760Y-8423760D02*
X11291240Y-8454240D01*
X11291240Y-8423760D02*
X11260760Y-8454240D01*
X11296760Y-8149760D02*
X11327240Y-8180240D01*
X11327240Y-8149760D02*
X11296760Y-8180240D01*
X11582760Y-9399760D02*
X11613240Y-9430240D01*
X11613240Y-9399760D02*
X11582760Y-9430240D01*
X11618760Y-9740760D02*
X11649240Y-9771240D01*
X11649240Y-9740760D02*
X11618760Y-9771240D01*
X11718760Y-8830760D02*
X11749240Y-8861240D01*
X11749240Y-8830760D02*
X11718760Y-8861240D01*
X11815760Y-9103760D02*
X11846240Y-9134240D01*
X11846240Y-9103760D02*
X11815760Y-9134240D01*
X12037760Y-9412760D02*
X12068240Y-9443240D01*
X12068240Y-9412760D02*
X12037760Y-9443240D01*
X12282750Y-10028000D02*
G75*
G02*
X12187750Y-10028000I-47500J0D01*
G01*
X12187750Y-10028000D02*
G75*
G02*
X12282750Y-10028000I47500J0D01*
G01*
X12282750Y-10278000D02*
G75*
G02*
X12187750Y-10278000I-47500J0D01*
G01*
X12187750Y-10278000D02*
G75*
G02*
X12282750Y-10278000I47500J0D01*
G01*
X12282750Y-10528000D02*
G75*
G02*
X12187750Y-10528000I-47500J0D01*
G01*
X12187750Y-10528000D02*
G75*
G02*
X12282750Y-10528000I47500J0D01*
G01*
D10*
X7608277Y-12963984D02*
X7608277Y-12763984D01*
X7608277Y-12763984D02*
X7655896Y-12763984D01*
X7655896Y-12763984D02*
X7684467Y-12773508D01*
X7684467Y-12773508D02*
X7703515Y-12792555D01*
X7703515Y-12792555D02*
X7713039Y-12811603D01*
X7713039Y-12811603D02*
X7722562Y-12849698D01*
X7722562Y-12849698D02*
X7722562Y-12878269D01*
X7722562Y-12878269D02*
X7713039Y-12916365D01*
X7713039Y-12916365D02*
X7703515Y-12935412D01*
X7703515Y-12935412D02*
X7684467Y-12954460D01*
X7684467Y-12954460D02*
X7655896Y-12963984D01*
X7655896Y-12963984D02*
X7608277Y-12963984D01*
X7808277Y-12963984D02*
X7808277Y-12830650D01*
X7808277Y-12868746D02*
X7817801Y-12849698D01*
X7817801Y-12849698D02*
X7827324Y-12840174D01*
X7827324Y-12840174D02*
X7846372Y-12830650D01*
X7846372Y-12830650D02*
X7865420Y-12830650D01*
X7932086Y-12963984D02*
X7932086Y-12830650D01*
X7932086Y-12763984D02*
X7922562Y-12773508D01*
X7922562Y-12773508D02*
X7932086Y-12783031D01*
X7932086Y-12783031D02*
X7941610Y-12773508D01*
X7941610Y-12773508D02*
X7932086Y-12763984D01*
X7932086Y-12763984D02*
X7932086Y-12783031D01*
X8055896Y-12963984D02*
X8036848Y-12954460D01*
X8036848Y-12954460D02*
X8027324Y-12935412D01*
X8027324Y-12935412D02*
X8027324Y-12763984D01*
X8160658Y-12963984D02*
X8141610Y-12954460D01*
X8141610Y-12954460D02*
X8132086Y-12935412D01*
X8132086Y-12935412D02*
X8132086Y-12763984D01*
X8389229Y-12963984D02*
X8389229Y-12763984D01*
X8389229Y-12763984D02*
X8455896Y-12906841D01*
X8455896Y-12906841D02*
X8522563Y-12763984D01*
X8522563Y-12763984D02*
X8522563Y-12963984D01*
X8703515Y-12963984D02*
X8703515Y-12859222D01*
X8703515Y-12859222D02*
X8693991Y-12840174D01*
X8693991Y-12840174D02*
X8674944Y-12830650D01*
X8674944Y-12830650D02*
X8636848Y-12830650D01*
X8636848Y-12830650D02*
X8617801Y-12840174D01*
X8703515Y-12954460D02*
X8684467Y-12963984D01*
X8684467Y-12963984D02*
X8636848Y-12963984D01*
X8636848Y-12963984D02*
X8617801Y-12954460D01*
X8617801Y-12954460D02*
X8608277Y-12935412D01*
X8608277Y-12935412D02*
X8608277Y-12916365D01*
X8608277Y-12916365D02*
X8617801Y-12897317D01*
X8617801Y-12897317D02*
X8636848Y-12887793D01*
X8636848Y-12887793D02*
X8684467Y-12887793D01*
X8684467Y-12887793D02*
X8703515Y-12878269D01*
X8798753Y-12830650D02*
X8798753Y-13030650D01*
X8798753Y-12840174D02*
X8817801Y-12830650D01*
X8817801Y-12830650D02*
X8855896Y-12830650D01*
X8855896Y-12830650D02*
X8874944Y-12840174D01*
X8874944Y-12840174D02*
X8884467Y-12849698D01*
X8884467Y-12849698D02*
X8893991Y-12868746D01*
X8893991Y-12868746D02*
X8893991Y-12925888D01*
X8893991Y-12925888D02*
X8884467Y-12944936D01*
X8884467Y-12944936D02*
X8874944Y-12954460D01*
X8874944Y-12954460D02*
X8855896Y-12963984D01*
X8855896Y-12963984D02*
X8817801Y-12963984D01*
X8817801Y-12963984D02*
X8798753Y-12954460D01*
X8979705Y-12944936D02*
X8989229Y-12954460D01*
X8989229Y-12954460D02*
X8979705Y-12963984D01*
X8979705Y-12963984D02*
X8970182Y-12954460D01*
X8970182Y-12954460D02*
X8979705Y-12944936D01*
X8979705Y-12944936D02*
X8979705Y-12963984D01*
X8979705Y-12840174D02*
X8989229Y-12849698D01*
X8989229Y-12849698D02*
X8979705Y-12859222D01*
X8979705Y-12859222D02*
X8970182Y-12849698D01*
X8970182Y-12849698D02*
X8979705Y-12840174D01*
X8979705Y-12840174D02*
X8979705Y-12859222D01*
D12*
X7317020Y-13277260D02*
X7347500Y-13307740D01*
X7347500Y-13277260D02*
X7317020Y-13307740D01*
D10*
X7646372Y-13183984D02*
X7665420Y-13183984D01*
X7665420Y-13183984D02*
X7684467Y-13193508D01*
X7684467Y-13193508D02*
X7693991Y-13203031D01*
X7693991Y-13203031D02*
X7703515Y-13222079D01*
X7703515Y-13222079D02*
X7713039Y-13260174D01*
X7713039Y-13260174D02*
X7713039Y-13307793D01*
X7713039Y-13307793D02*
X7703515Y-13345888D01*
X7703515Y-13345888D02*
X7693991Y-13364936D01*
X7693991Y-13364936D02*
X7684467Y-13374460D01*
X7684467Y-13374460D02*
X7665420Y-13383984D01*
X7665420Y-13383984D02*
X7646372Y-13383984D01*
X7646372Y-13383984D02*
X7627324Y-13374460D01*
X7627324Y-13374460D02*
X7617801Y-13364936D01*
X7617801Y-13364936D02*
X7608277Y-13345888D01*
X7608277Y-13345888D02*
X7598753Y-13307793D01*
X7598753Y-13307793D02*
X7598753Y-13260174D01*
X7598753Y-13260174D02*
X7608277Y-13222079D01*
X7608277Y-13222079D02*
X7617801Y-13203031D01*
X7617801Y-13203031D02*
X7627324Y-13193508D01*
X7627324Y-13193508D02*
X7646372Y-13183984D01*
X7798753Y-13364936D02*
X7808277Y-13374460D01*
X7808277Y-13374460D02*
X7798753Y-13383984D01*
X7798753Y-13383984D02*
X7789229Y-13374460D01*
X7789229Y-13374460D02*
X7798753Y-13364936D01*
X7798753Y-13364936D02*
X7798753Y-13383984D01*
X7874943Y-13183984D02*
X7998753Y-13183984D01*
X7998753Y-13183984D02*
X7932086Y-13260174D01*
X7932086Y-13260174D02*
X7960658Y-13260174D01*
X7960658Y-13260174D02*
X7979705Y-13269698D01*
X7979705Y-13269698D02*
X7989229Y-13279222D01*
X7989229Y-13279222D02*
X7998753Y-13298269D01*
X7998753Y-13298269D02*
X7998753Y-13345888D01*
X7998753Y-13345888D02*
X7989229Y-13364936D01*
X7989229Y-13364936D02*
X7979705Y-13374460D01*
X7979705Y-13374460D02*
X7960658Y-13383984D01*
X7960658Y-13383984D02*
X7903515Y-13383984D01*
X7903515Y-13383984D02*
X7884467Y-13374460D01*
X7884467Y-13374460D02*
X7874943Y-13364936D01*
X8122562Y-13183984D02*
X8141610Y-13183984D01*
X8141610Y-13183984D02*
X8160658Y-13193508D01*
X8160658Y-13193508D02*
X8170182Y-13203031D01*
X8170182Y-13203031D02*
X8179705Y-13222079D01*
X8179705Y-13222079D02*
X8189229Y-13260174D01*
X8189229Y-13260174D02*
X8189229Y-13307793D01*
X8189229Y-13307793D02*
X8179705Y-13345888D01*
X8179705Y-13345888D02*
X8170182Y-13364936D01*
X8170182Y-13364936D02*
X8160658Y-13374460D01*
X8160658Y-13374460D02*
X8141610Y-13383984D01*
X8141610Y-13383984D02*
X8122562Y-13383984D01*
X8122562Y-13383984D02*
X8103515Y-13374460D01*
X8103515Y-13374460D02*
X8093991Y-13364936D01*
X8093991Y-13364936D02*
X8084467Y-13345888D01*
X8084467Y-13345888D02*
X8074943Y-13307793D01*
X8074943Y-13307793D02*
X8074943Y-13260174D01*
X8074943Y-13260174D02*
X8084467Y-13222079D01*
X8084467Y-13222079D02*
X8093991Y-13203031D01*
X8093991Y-13203031D02*
X8103515Y-13193508D01*
X8103515Y-13193508D02*
X8122562Y-13183984D01*
X8370182Y-13183984D02*
X8274943Y-13183984D01*
X8274943Y-13183984D02*
X8265420Y-13279222D01*
X8265420Y-13279222D02*
X8274943Y-13269698D01*
X8274943Y-13269698D02*
X8293991Y-13260174D01*
X8293991Y-13260174D02*
X8341610Y-13260174D01*
X8341610Y-13260174D02*
X8360658Y-13269698D01*
X8360658Y-13269698D02*
X8370182Y-13279222D01*
X8370182Y-13279222D02*
X8379705Y-13298269D01*
X8379705Y-13298269D02*
X8379705Y-13345888D01*
X8379705Y-13345888D02*
X8370182Y-13364936D01*
X8370182Y-13364936D02*
X8360658Y-13374460D01*
X8360658Y-13374460D02*
X8341610Y-13383984D01*
X8341610Y-13383984D02*
X8293991Y-13383984D01*
X8293991Y-13383984D02*
X8274943Y-13374460D01*
X8274943Y-13374460D02*
X8265420Y-13364936D01*
X8465420Y-13383984D02*
X8465420Y-13250650D01*
X8465420Y-13269698D02*
X8474944Y-13260174D01*
X8474944Y-13260174D02*
X8493991Y-13250650D01*
X8493991Y-13250650D02*
X8522563Y-13250650D01*
X8522563Y-13250650D02*
X8541610Y-13260174D01*
X8541610Y-13260174D02*
X8551134Y-13279222D01*
X8551134Y-13279222D02*
X8551134Y-13383984D01*
X8551134Y-13279222D02*
X8560658Y-13260174D01*
X8560658Y-13260174D02*
X8579705Y-13250650D01*
X8579705Y-13250650D02*
X8608277Y-13250650D01*
X8608277Y-13250650D02*
X8627325Y-13260174D01*
X8627325Y-13260174D02*
X8636848Y-13279222D01*
X8636848Y-13279222D02*
X8636848Y-13383984D01*
X8732086Y-13383984D02*
X8732086Y-13250650D01*
X8732086Y-13269698D02*
X8741610Y-13260174D01*
X8741610Y-13260174D02*
X8760658Y-13250650D01*
X8760658Y-13250650D02*
X8789229Y-13250650D01*
X8789229Y-13250650D02*
X8808277Y-13260174D01*
X8808277Y-13260174D02*
X8817801Y-13279222D01*
X8817801Y-13279222D02*
X8817801Y-13383984D01*
X8817801Y-13279222D02*
X8827325Y-13260174D01*
X8827325Y-13260174D02*
X8846372Y-13250650D01*
X8846372Y-13250650D02*
X8874944Y-13250650D01*
X8874944Y-13250650D02*
X8893991Y-13260174D01*
X8893991Y-13260174D02*
X8903515Y-13279222D01*
X8903515Y-13279222D02*
X8903515Y-13383984D01*
X9293991Y-13174460D02*
X9122563Y-13431603D01*
X9551134Y-13183984D02*
X9570182Y-13183984D01*
X9570182Y-13183984D02*
X9589229Y-13193508D01*
X9589229Y-13193508D02*
X9598753Y-13203031D01*
X9598753Y-13203031D02*
X9608277Y-13222079D01*
X9608277Y-13222079D02*
X9617801Y-13260174D01*
X9617801Y-13260174D02*
X9617801Y-13307793D01*
X9617801Y-13307793D02*
X9608277Y-13345888D01*
X9608277Y-13345888D02*
X9598753Y-13364936D01*
X9598753Y-13364936D02*
X9589229Y-13374460D01*
X9589229Y-13374460D02*
X9570182Y-13383984D01*
X9570182Y-13383984D02*
X9551134Y-13383984D01*
X9551134Y-13383984D02*
X9532087Y-13374460D01*
X9532087Y-13374460D02*
X9522563Y-13364936D01*
X9522563Y-13364936D02*
X9513039Y-13345888D01*
X9513039Y-13345888D02*
X9503515Y-13307793D01*
X9503515Y-13307793D02*
X9503515Y-13260174D01*
X9503515Y-13260174D02*
X9513039Y-13222079D01*
X9513039Y-13222079D02*
X9522563Y-13203031D01*
X9522563Y-13203031D02*
X9532087Y-13193508D01*
X9532087Y-13193508D02*
X9551134Y-13183984D01*
X9703515Y-13364936D02*
X9713039Y-13374460D01*
X9713039Y-13374460D02*
X9703515Y-13383984D01*
X9703515Y-13383984D02*
X9693991Y-13374460D01*
X9693991Y-13374460D02*
X9703515Y-13364936D01*
X9703515Y-13364936D02*
X9703515Y-13383984D01*
X9836848Y-13183984D02*
X9855896Y-13183984D01*
X9855896Y-13183984D02*
X9874944Y-13193508D01*
X9874944Y-13193508D02*
X9884468Y-13203031D01*
X9884468Y-13203031D02*
X9893991Y-13222079D01*
X9893991Y-13222079D02*
X9903515Y-13260174D01*
X9903515Y-13260174D02*
X9903515Y-13307793D01*
X9903515Y-13307793D02*
X9893991Y-13345888D01*
X9893991Y-13345888D02*
X9884468Y-13364936D01*
X9884468Y-13364936D02*
X9874944Y-13374460D01*
X9874944Y-13374460D02*
X9855896Y-13383984D01*
X9855896Y-13383984D02*
X9836848Y-13383984D01*
X9836848Y-13383984D02*
X9817801Y-13374460D01*
X9817801Y-13374460D02*
X9808277Y-13364936D01*
X9808277Y-13364936D02*
X9798753Y-13345888D01*
X9798753Y-13345888D02*
X9789229Y-13307793D01*
X9789229Y-13307793D02*
X9789229Y-13260174D01*
X9789229Y-13260174D02*
X9798753Y-13222079D01*
X9798753Y-13222079D02*
X9808277Y-13203031D01*
X9808277Y-13203031D02*
X9817801Y-13193508D01*
X9817801Y-13193508D02*
X9836848Y-13183984D01*
X10093991Y-13383984D02*
X9979706Y-13383984D01*
X10036848Y-13383984D02*
X10036848Y-13183984D01*
X10036848Y-13183984D02*
X10017801Y-13212555D01*
X10017801Y-13212555D02*
X9998753Y-13231603D01*
X9998753Y-13231603D02*
X9979706Y-13241127D01*
X10170182Y-13203031D02*
X10179706Y-13193508D01*
X10179706Y-13193508D02*
X10198753Y-13183984D01*
X10198753Y-13183984D02*
X10246372Y-13183984D01*
X10246372Y-13183984D02*
X10265420Y-13193508D01*
X10265420Y-13193508D02*
X10274944Y-13203031D01*
X10274944Y-13203031D02*
X10284468Y-13222079D01*
X10284468Y-13222079D02*
X10284468Y-13241127D01*
X10284468Y-13241127D02*
X10274944Y-13269698D01*
X10274944Y-13269698D02*
X10160658Y-13383984D01*
X10160658Y-13383984D02*
X10284468Y-13383984D01*
X10408277Y-13183984D02*
X10427325Y-13183984D01*
X10427325Y-13183984D02*
X10446372Y-13193508D01*
X10446372Y-13193508D02*
X10455896Y-13203031D01*
X10455896Y-13203031D02*
X10465420Y-13222079D01*
X10465420Y-13222079D02*
X10474944Y-13260174D01*
X10474944Y-13260174D02*
X10474944Y-13307793D01*
X10474944Y-13307793D02*
X10465420Y-13345888D01*
X10465420Y-13345888D02*
X10455896Y-13364936D01*
X10455896Y-13364936D02*
X10446372Y-13374460D01*
X10446372Y-13374460D02*
X10427325Y-13383984D01*
X10427325Y-13383984D02*
X10408277Y-13383984D01*
X10408277Y-13383984D02*
X10389229Y-13374460D01*
X10389229Y-13374460D02*
X10379706Y-13364936D01*
X10379706Y-13364936D02*
X10370182Y-13345888D01*
X10370182Y-13345888D02*
X10360658Y-13307793D01*
X10360658Y-13307793D02*
X10360658Y-13260174D01*
X10360658Y-13260174D02*
X10370182Y-13222079D01*
X10370182Y-13222079D02*
X10379706Y-13203031D01*
X10379706Y-13203031D02*
X10389229Y-13193508D01*
X10389229Y-13193508D02*
X10408277Y-13183984D01*
X10551134Y-13183984D02*
X10551134Y-13222079D01*
X10627325Y-13183984D02*
X10627325Y-13222079D01*
X10922563Y-13460174D02*
X10913039Y-13450650D01*
X10913039Y-13450650D02*
X10893991Y-13422079D01*
X10893991Y-13422079D02*
X10884468Y-13403031D01*
X10884468Y-13403031D02*
X10874944Y-13374460D01*
X10874944Y-13374460D02*
X10865420Y-13326841D01*
X10865420Y-13326841D02*
X10865420Y-13288746D01*
X10865420Y-13288746D02*
X10874944Y-13241127D01*
X10874944Y-13241127D02*
X10884468Y-13212555D01*
X10884468Y-13212555D02*
X10893991Y-13193508D01*
X10893991Y-13193508D02*
X10913039Y-13164936D01*
X10913039Y-13164936D02*
X10922563Y-13155412D01*
X11084468Y-13183984D02*
X11046372Y-13183984D01*
X11046372Y-13183984D02*
X11027325Y-13193508D01*
X11027325Y-13193508D02*
X11017801Y-13203031D01*
X11017801Y-13203031D02*
X10998753Y-13231603D01*
X10998753Y-13231603D02*
X10989230Y-13269698D01*
X10989230Y-13269698D02*
X10989230Y-13345888D01*
X10989230Y-13345888D02*
X10998753Y-13364936D01*
X10998753Y-13364936D02*
X11008277Y-13374460D01*
X11008277Y-13374460D02*
X11027325Y-13383984D01*
X11027325Y-13383984D02*
X11065420Y-13383984D01*
X11065420Y-13383984D02*
X11084468Y-13374460D01*
X11084468Y-13374460D02*
X11093991Y-13364936D01*
X11093991Y-13364936D02*
X11103515Y-13345888D01*
X11103515Y-13345888D02*
X11103515Y-13298269D01*
X11103515Y-13298269D02*
X11093991Y-13279222D01*
X11093991Y-13279222D02*
X11084468Y-13269698D01*
X11084468Y-13269698D02*
X11065420Y-13260174D01*
X11065420Y-13260174D02*
X11027325Y-13260174D01*
X11027325Y-13260174D02*
X11008277Y-13269698D01*
X11008277Y-13269698D02*
X10998753Y-13279222D01*
X10998753Y-13279222D02*
X10989230Y-13298269D01*
X11274944Y-13250650D02*
X11274944Y-13383984D01*
X11227325Y-13174460D02*
X11179706Y-13317317D01*
X11179706Y-13317317D02*
X11303515Y-13317317D01*
X11532087Y-13383984D02*
X11532087Y-13183984D01*
X11617801Y-13383984D02*
X11617801Y-13279222D01*
X11617801Y-13279222D02*
X11608277Y-13260174D01*
X11608277Y-13260174D02*
X11589230Y-13250650D01*
X11589230Y-13250650D02*
X11560658Y-13250650D01*
X11560658Y-13250650D02*
X11541610Y-13260174D01*
X11541610Y-13260174D02*
X11532087Y-13269698D01*
X11741610Y-13383984D02*
X11722563Y-13374460D01*
X11722563Y-13374460D02*
X11713039Y-13364936D01*
X11713039Y-13364936D02*
X11703515Y-13345888D01*
X11703515Y-13345888D02*
X11703515Y-13288746D01*
X11703515Y-13288746D02*
X11713039Y-13269698D01*
X11713039Y-13269698D02*
X11722563Y-13260174D01*
X11722563Y-13260174D02*
X11741610Y-13250650D01*
X11741610Y-13250650D02*
X11770182Y-13250650D01*
X11770182Y-13250650D02*
X11789230Y-13260174D01*
X11789230Y-13260174D02*
X11798753Y-13269698D01*
X11798753Y-13269698D02*
X11808277Y-13288746D01*
X11808277Y-13288746D02*
X11808277Y-13345888D01*
X11808277Y-13345888D02*
X11798753Y-13364936D01*
X11798753Y-13364936D02*
X11789230Y-13374460D01*
X11789230Y-13374460D02*
X11770182Y-13383984D01*
X11770182Y-13383984D02*
X11741610Y-13383984D01*
X11922563Y-13383984D02*
X11903515Y-13374460D01*
X11903515Y-13374460D02*
X11893991Y-13355412D01*
X11893991Y-13355412D02*
X11893991Y-13183984D01*
X12074944Y-13374460D02*
X12055896Y-13383984D01*
X12055896Y-13383984D02*
X12017801Y-13383984D01*
X12017801Y-13383984D02*
X11998753Y-13374460D01*
X11998753Y-13374460D02*
X11989230Y-13355412D01*
X11989230Y-13355412D02*
X11989230Y-13279222D01*
X11989230Y-13279222D02*
X11998753Y-13260174D01*
X11998753Y-13260174D02*
X12017801Y-13250650D01*
X12017801Y-13250650D02*
X12055896Y-13250650D01*
X12055896Y-13250650D02*
X12074944Y-13260174D01*
X12074944Y-13260174D02*
X12084468Y-13279222D01*
X12084468Y-13279222D02*
X12084468Y-13298269D01*
X12084468Y-13298269D02*
X11989230Y-13317317D01*
X12160658Y-13374460D02*
X12179706Y-13383984D01*
X12179706Y-13383984D02*
X12217801Y-13383984D01*
X12217801Y-13383984D02*
X12236849Y-13374460D01*
X12236849Y-13374460D02*
X12246372Y-13355412D01*
X12246372Y-13355412D02*
X12246372Y-13345888D01*
X12246372Y-13345888D02*
X12236849Y-13326841D01*
X12236849Y-13326841D02*
X12217801Y-13317317D01*
X12217801Y-13317317D02*
X12189230Y-13317317D01*
X12189230Y-13317317D02*
X12170182Y-13307793D01*
X12170182Y-13307793D02*
X12160658Y-13288746D01*
X12160658Y-13288746D02*
X12160658Y-13279222D01*
X12160658Y-13279222D02*
X12170182Y-13260174D01*
X12170182Y-13260174D02*
X12189230Y-13250650D01*
X12189230Y-13250650D02*
X12217801Y-13250650D01*
X12217801Y-13250650D02*
X12236849Y-13260174D01*
X12313039Y-13460174D02*
X12322563Y-13450650D01*
X12322563Y-13450650D02*
X12341611Y-13422079D01*
X12341611Y-13422079D02*
X12351134Y-13403031D01*
X12351134Y-13403031D02*
X12360658Y-13374460D01*
X12360658Y-13374460D02*
X12370182Y-13326841D01*
X12370182Y-13326841D02*
X12370182Y-13288746D01*
X12370182Y-13288746D02*
X12360658Y-13241127D01*
X12360658Y-13241127D02*
X12351134Y-13212555D01*
X12351134Y-13212555D02*
X12341611Y-13193508D01*
X12341611Y-13193508D02*
X12322563Y-13164936D01*
X12322563Y-13164936D02*
X12313039Y-13155412D01*
D12*
X7347500Y-13556500D02*
G75*
G02*
X7252500Y-13556500I-47500J0D01*
G01*
X7252500Y-13556500D02*
G75*
G02*
X7347500Y-13556500I47500J0D01*
G01*
D10*
X7646372Y-13447984D02*
X7665420Y-13447984D01*
X7665420Y-13447984D02*
X7684467Y-13457508D01*
X7684467Y-13457508D02*
X7693991Y-13467031D01*
X7693991Y-13467031D02*
X7703515Y-13486079D01*
X7703515Y-13486079D02*
X7713039Y-13524174D01*
X7713039Y-13524174D02*
X7713039Y-13571793D01*
X7713039Y-13571793D02*
X7703515Y-13609888D01*
X7703515Y-13609888D02*
X7693991Y-13628936D01*
X7693991Y-13628936D02*
X7684467Y-13638460D01*
X7684467Y-13638460D02*
X7665420Y-13647984D01*
X7665420Y-13647984D02*
X7646372Y-13647984D01*
X7646372Y-13647984D02*
X7627324Y-13638460D01*
X7627324Y-13638460D02*
X7617801Y-13628936D01*
X7617801Y-13628936D02*
X7608277Y-13609888D01*
X7608277Y-13609888D02*
X7598753Y-13571793D01*
X7598753Y-13571793D02*
X7598753Y-13524174D01*
X7598753Y-13524174D02*
X7608277Y-13486079D01*
X7608277Y-13486079D02*
X7617801Y-13467031D01*
X7617801Y-13467031D02*
X7627324Y-13457508D01*
X7627324Y-13457508D02*
X7646372Y-13447984D01*
X7798753Y-13628936D02*
X7808277Y-13638460D01*
X7808277Y-13638460D02*
X7798753Y-13647984D01*
X7798753Y-13647984D02*
X7789229Y-13638460D01*
X7789229Y-13638460D02*
X7798753Y-13628936D01*
X7798753Y-13628936D02*
X7798753Y-13647984D01*
X7903515Y-13647984D02*
X7941610Y-13647984D01*
X7941610Y-13647984D02*
X7960658Y-13638460D01*
X7960658Y-13638460D02*
X7970182Y-13628936D01*
X7970182Y-13628936D02*
X7989229Y-13600365D01*
X7989229Y-13600365D02*
X7998753Y-13562269D01*
X7998753Y-13562269D02*
X7998753Y-13486079D01*
X7998753Y-13486079D02*
X7989229Y-13467031D01*
X7989229Y-13467031D02*
X7979705Y-13457508D01*
X7979705Y-13457508D02*
X7960658Y-13447984D01*
X7960658Y-13447984D02*
X7922562Y-13447984D01*
X7922562Y-13447984D02*
X7903515Y-13457508D01*
X7903515Y-13457508D02*
X7893991Y-13467031D01*
X7893991Y-13467031D02*
X7884467Y-13486079D01*
X7884467Y-13486079D02*
X7884467Y-13533698D01*
X7884467Y-13533698D02*
X7893991Y-13552746D01*
X7893991Y-13552746D02*
X7903515Y-13562269D01*
X7903515Y-13562269D02*
X7922562Y-13571793D01*
X7922562Y-13571793D02*
X7960658Y-13571793D01*
X7960658Y-13571793D02*
X7979705Y-13562269D01*
X7979705Y-13562269D02*
X7989229Y-13552746D01*
X7989229Y-13552746D02*
X7998753Y-13533698D01*
X8179705Y-13447984D02*
X8084467Y-13447984D01*
X8084467Y-13447984D02*
X8074943Y-13543222D01*
X8074943Y-13543222D02*
X8084467Y-13533698D01*
X8084467Y-13533698D02*
X8103515Y-13524174D01*
X8103515Y-13524174D02*
X8151134Y-13524174D01*
X8151134Y-13524174D02*
X8170182Y-13533698D01*
X8170182Y-13533698D02*
X8179705Y-13543222D01*
X8179705Y-13543222D02*
X8189229Y-13562269D01*
X8189229Y-13562269D02*
X8189229Y-13609888D01*
X8189229Y-13609888D02*
X8179705Y-13628936D01*
X8179705Y-13628936D02*
X8170182Y-13638460D01*
X8170182Y-13638460D02*
X8151134Y-13647984D01*
X8151134Y-13647984D02*
X8103515Y-13647984D01*
X8103515Y-13647984D02*
X8084467Y-13638460D01*
X8084467Y-13638460D02*
X8074943Y-13628936D01*
X8313039Y-13447984D02*
X8332086Y-13447984D01*
X8332086Y-13447984D02*
X8351134Y-13457508D01*
X8351134Y-13457508D02*
X8360658Y-13467031D01*
X8360658Y-13467031D02*
X8370182Y-13486079D01*
X8370182Y-13486079D02*
X8379705Y-13524174D01*
X8379705Y-13524174D02*
X8379705Y-13571793D01*
X8379705Y-13571793D02*
X8370182Y-13609888D01*
X8370182Y-13609888D02*
X8360658Y-13628936D01*
X8360658Y-13628936D02*
X8351134Y-13638460D01*
X8351134Y-13638460D02*
X8332086Y-13647984D01*
X8332086Y-13647984D02*
X8313039Y-13647984D01*
X8313039Y-13647984D02*
X8293991Y-13638460D01*
X8293991Y-13638460D02*
X8284467Y-13628936D01*
X8284467Y-13628936D02*
X8274943Y-13609888D01*
X8274943Y-13609888D02*
X8265420Y-13571793D01*
X8265420Y-13571793D02*
X8265420Y-13524174D01*
X8265420Y-13524174D02*
X8274943Y-13486079D01*
X8274943Y-13486079D02*
X8284467Y-13467031D01*
X8284467Y-13467031D02*
X8293991Y-13457508D01*
X8293991Y-13457508D02*
X8313039Y-13447984D01*
X8465420Y-13647984D02*
X8465420Y-13514650D01*
X8465420Y-13533698D02*
X8474944Y-13524174D01*
X8474944Y-13524174D02*
X8493991Y-13514650D01*
X8493991Y-13514650D02*
X8522563Y-13514650D01*
X8522563Y-13514650D02*
X8541610Y-13524174D01*
X8541610Y-13524174D02*
X8551134Y-13543222D01*
X8551134Y-13543222D02*
X8551134Y-13647984D01*
X8551134Y-13543222D02*
X8560658Y-13524174D01*
X8560658Y-13524174D02*
X8579705Y-13514650D01*
X8579705Y-13514650D02*
X8608277Y-13514650D01*
X8608277Y-13514650D02*
X8627325Y-13524174D01*
X8627325Y-13524174D02*
X8636848Y-13543222D01*
X8636848Y-13543222D02*
X8636848Y-13647984D01*
X8732086Y-13647984D02*
X8732086Y-13514650D01*
X8732086Y-13533698D02*
X8741610Y-13524174D01*
X8741610Y-13524174D02*
X8760658Y-13514650D01*
X8760658Y-13514650D02*
X8789229Y-13514650D01*
X8789229Y-13514650D02*
X8808277Y-13524174D01*
X8808277Y-13524174D02*
X8817801Y-13543222D01*
X8817801Y-13543222D02*
X8817801Y-13647984D01*
X8817801Y-13543222D02*
X8827325Y-13524174D01*
X8827325Y-13524174D02*
X8846372Y-13514650D01*
X8846372Y-13514650D02*
X8874944Y-13514650D01*
X8874944Y-13514650D02*
X8893991Y-13524174D01*
X8893991Y-13524174D02*
X8903515Y-13543222D01*
X8903515Y-13543222D02*
X8903515Y-13647984D01*
X9293991Y-13438460D02*
X9122563Y-13695603D01*
X9551134Y-13447984D02*
X9570182Y-13447984D01*
X9570182Y-13447984D02*
X9589229Y-13457508D01*
X9589229Y-13457508D02*
X9598753Y-13467031D01*
X9598753Y-13467031D02*
X9608277Y-13486079D01*
X9608277Y-13486079D02*
X9617801Y-13524174D01*
X9617801Y-13524174D02*
X9617801Y-13571793D01*
X9617801Y-13571793D02*
X9608277Y-13609888D01*
X9608277Y-13609888D02*
X9598753Y-13628936D01*
X9598753Y-13628936D02*
X9589229Y-13638460D01*
X9589229Y-13638460D02*
X9570182Y-13647984D01*
X9570182Y-13647984D02*
X9551134Y-13647984D01*
X9551134Y-13647984D02*
X9532087Y-13638460D01*
X9532087Y-13638460D02*
X9522563Y-13628936D01*
X9522563Y-13628936D02*
X9513039Y-13609888D01*
X9513039Y-13609888D02*
X9503515Y-13571793D01*
X9503515Y-13571793D02*
X9503515Y-13524174D01*
X9503515Y-13524174D02*
X9513039Y-13486079D01*
X9513039Y-13486079D02*
X9522563Y-13467031D01*
X9522563Y-13467031D02*
X9532087Y-13457508D01*
X9532087Y-13457508D02*
X9551134Y-13447984D01*
X9703515Y-13628936D02*
X9713039Y-13638460D01*
X9713039Y-13638460D02*
X9703515Y-13647984D01*
X9703515Y-13647984D02*
X9693991Y-13638460D01*
X9693991Y-13638460D02*
X9703515Y-13628936D01*
X9703515Y-13628936D02*
X9703515Y-13647984D01*
X9836848Y-13447984D02*
X9855896Y-13447984D01*
X9855896Y-13447984D02*
X9874944Y-13457508D01*
X9874944Y-13457508D02*
X9884468Y-13467031D01*
X9884468Y-13467031D02*
X9893991Y-13486079D01*
X9893991Y-13486079D02*
X9903515Y-13524174D01*
X9903515Y-13524174D02*
X9903515Y-13571793D01*
X9903515Y-13571793D02*
X9893991Y-13609888D01*
X9893991Y-13609888D02*
X9884468Y-13628936D01*
X9884468Y-13628936D02*
X9874944Y-13638460D01*
X9874944Y-13638460D02*
X9855896Y-13647984D01*
X9855896Y-13647984D02*
X9836848Y-13647984D01*
X9836848Y-13647984D02*
X9817801Y-13638460D01*
X9817801Y-13638460D02*
X9808277Y-13628936D01*
X9808277Y-13628936D02*
X9798753Y-13609888D01*
X9798753Y-13609888D02*
X9789229Y-13571793D01*
X9789229Y-13571793D02*
X9789229Y-13524174D01*
X9789229Y-13524174D02*
X9798753Y-13486079D01*
X9798753Y-13486079D02*
X9808277Y-13467031D01*
X9808277Y-13467031D02*
X9817801Y-13457508D01*
X9817801Y-13457508D02*
X9836848Y-13447984D01*
X9970182Y-13447984D02*
X10093991Y-13447984D01*
X10093991Y-13447984D02*
X10027325Y-13524174D01*
X10027325Y-13524174D02*
X10055896Y-13524174D01*
X10055896Y-13524174D02*
X10074944Y-13533698D01*
X10074944Y-13533698D02*
X10084468Y-13543222D01*
X10084468Y-13543222D02*
X10093991Y-13562269D01*
X10093991Y-13562269D02*
X10093991Y-13609888D01*
X10093991Y-13609888D02*
X10084468Y-13628936D01*
X10084468Y-13628936D02*
X10074944Y-13638460D01*
X10074944Y-13638460D02*
X10055896Y-13647984D01*
X10055896Y-13647984D02*
X9998753Y-13647984D01*
X9998753Y-13647984D02*
X9979706Y-13638460D01*
X9979706Y-13638460D02*
X9970182Y-13628936D01*
X10160658Y-13447984D02*
X10293991Y-13447984D01*
X10293991Y-13447984D02*
X10208277Y-13647984D01*
X10455896Y-13514650D02*
X10455896Y-13647984D01*
X10408277Y-13438460D02*
X10360658Y-13581317D01*
X10360658Y-13581317D02*
X10484468Y-13581317D01*
X10551134Y-13447984D02*
X10551134Y-13486079D01*
X10627325Y-13447984D02*
X10627325Y-13486079D01*
X10922563Y-13724174D02*
X10913039Y-13714650D01*
X10913039Y-13714650D02*
X10893991Y-13686079D01*
X10893991Y-13686079D02*
X10884468Y-13667031D01*
X10884468Y-13667031D02*
X10874944Y-13638460D01*
X10874944Y-13638460D02*
X10865420Y-13590841D01*
X10865420Y-13590841D02*
X10865420Y-13552746D01*
X10865420Y-13552746D02*
X10874944Y-13505127D01*
X10874944Y-13505127D02*
X10884468Y-13476555D01*
X10884468Y-13476555D02*
X10893991Y-13457508D01*
X10893991Y-13457508D02*
X10913039Y-13428936D01*
X10913039Y-13428936D02*
X10922563Y-13419412D01*
X10979706Y-13447984D02*
X11103515Y-13447984D01*
X11103515Y-13447984D02*
X11036849Y-13524174D01*
X11036849Y-13524174D02*
X11065420Y-13524174D01*
X11065420Y-13524174D02*
X11084468Y-13533698D01*
X11084468Y-13533698D02*
X11093991Y-13543222D01*
X11093991Y-13543222D02*
X11103515Y-13562269D01*
X11103515Y-13562269D02*
X11103515Y-13609888D01*
X11103515Y-13609888D02*
X11093991Y-13628936D01*
X11093991Y-13628936D02*
X11084468Y-13638460D01*
X11084468Y-13638460D02*
X11065420Y-13647984D01*
X11065420Y-13647984D02*
X11008277Y-13647984D01*
X11008277Y-13647984D02*
X10989230Y-13638460D01*
X10989230Y-13638460D02*
X10979706Y-13628936D01*
X11341610Y-13647984D02*
X11341610Y-13447984D01*
X11427325Y-13647984D02*
X11427325Y-13543222D01*
X11427325Y-13543222D02*
X11417801Y-13524174D01*
X11417801Y-13524174D02*
X11398753Y-13514650D01*
X11398753Y-13514650D02*
X11370182Y-13514650D01*
X11370182Y-13514650D02*
X11351134Y-13524174D01*
X11351134Y-13524174D02*
X11341610Y-13533698D01*
X11551134Y-13647984D02*
X11532087Y-13638460D01*
X11532087Y-13638460D02*
X11522563Y-13628936D01*
X11522563Y-13628936D02*
X11513039Y-13609888D01*
X11513039Y-13609888D02*
X11513039Y-13552746D01*
X11513039Y-13552746D02*
X11522563Y-13533698D01*
X11522563Y-13533698D02*
X11532087Y-13524174D01*
X11532087Y-13524174D02*
X11551134Y-13514650D01*
X11551134Y-13514650D02*
X11579706Y-13514650D01*
X11579706Y-13514650D02*
X11598753Y-13524174D01*
X11598753Y-13524174D02*
X11608277Y-13533698D01*
X11608277Y-13533698D02*
X11617801Y-13552746D01*
X11617801Y-13552746D02*
X11617801Y-13609888D01*
X11617801Y-13609888D02*
X11608277Y-13628936D01*
X11608277Y-13628936D02*
X11598753Y-13638460D01*
X11598753Y-13638460D02*
X11579706Y-13647984D01*
X11579706Y-13647984D02*
X11551134Y-13647984D01*
X11732087Y-13647984D02*
X11713039Y-13638460D01*
X11713039Y-13638460D02*
X11703515Y-13619412D01*
X11703515Y-13619412D02*
X11703515Y-13447984D01*
X11884468Y-13638460D02*
X11865420Y-13647984D01*
X11865420Y-13647984D02*
X11827325Y-13647984D01*
X11827325Y-13647984D02*
X11808277Y-13638460D01*
X11808277Y-13638460D02*
X11798753Y-13619412D01*
X11798753Y-13619412D02*
X11798753Y-13543222D01*
X11798753Y-13543222D02*
X11808277Y-13524174D01*
X11808277Y-13524174D02*
X11827325Y-13514650D01*
X11827325Y-13514650D02*
X11865420Y-13514650D01*
X11865420Y-13514650D02*
X11884468Y-13524174D01*
X11884468Y-13524174D02*
X11893991Y-13543222D01*
X11893991Y-13543222D02*
X11893991Y-13562269D01*
X11893991Y-13562269D02*
X11798753Y-13581317D01*
X11970182Y-13638460D02*
X11989230Y-13647984D01*
X11989230Y-13647984D02*
X12027325Y-13647984D01*
X12027325Y-13647984D02*
X12046372Y-13638460D01*
X12046372Y-13638460D02*
X12055896Y-13619412D01*
X12055896Y-13619412D02*
X12055896Y-13609888D01*
X12055896Y-13609888D02*
X12046372Y-13590841D01*
X12046372Y-13590841D02*
X12027325Y-13581317D01*
X12027325Y-13581317D02*
X11998753Y-13581317D01*
X11998753Y-13581317D02*
X11979706Y-13571793D01*
X11979706Y-13571793D02*
X11970182Y-13552746D01*
X11970182Y-13552746D02*
X11970182Y-13543222D01*
X11970182Y-13543222D02*
X11979706Y-13524174D01*
X11979706Y-13524174D02*
X11998753Y-13514650D01*
X11998753Y-13514650D02*
X12027325Y-13514650D01*
X12027325Y-13514650D02*
X12046372Y-13524174D01*
X12122563Y-13724174D02*
X12132087Y-13714650D01*
X12132087Y-13714650D02*
X12151134Y-13686079D01*
X12151134Y-13686079D02*
X12160658Y-13667031D01*
X12160658Y-13667031D02*
X12170182Y-13638460D01*
X12170182Y-13638460D02*
X12179706Y-13590841D01*
X12179706Y-13590841D02*
X12179706Y-13552746D01*
X12179706Y-13552746D02*
X12170182Y-13505127D01*
X12170182Y-13505127D02*
X12160658Y-13476555D01*
X12160658Y-13476555D02*
X12151134Y-13457508D01*
X12151134Y-13457508D02*
X12132087Y-13428936D01*
X12132087Y-13428936D02*
X12122563Y-13419412D01*
M02*
