M48
; DRILL file {KiCad 8.99.0-3406-g49ffbf5b50} date 2025-01-20T10:30:07+0530
; FORMAT={-:-/ absolute / metric / decimal}
; #@! TF.CreationDate,2025-01-20T10:30:07+05:30
; #@! TF.GenerationSoftware,Kicad,Pcbnew,8.99.0-3406-g49ffbf5b50
; #@! TF.FileFunction,Plated,1,2,PTH
FMAT,2
METRIC
; #@! TA.AperFunction,Plated,PTH,ViaDrill
T1C0.305
; #@! TA.AperFunction,Plated,PTH,ComponentDrill
T2C0.950
%
G90
G05
T1
X77.3Y-100.05
X80.89Y-91.22
X81.63Y-95.39
X82.42Y-94.52
X83.36Y-113.075
X83.36Y-114.345
X85.42Y-99.51
X87.65Y-96.21
X87.71Y-120.68
X88.51Y-84.43
X89.09Y-87.96
X89.393Y-91.265
X90.45Y-88.68
X90.952Y-89.53
X91.16Y-83.52
X91.355Y-92.08
X91.758Y-92.93
X92.15Y-117.93
X92.3Y-95.57
X92.53Y-112.5
X92.73Y-108.99
X92.949Y-93.937
X93.36Y-113.0
X93.44Y-109.48
X93.55Y-95.35
X94.15Y-91.36
X94.27Y-92.59
X94.45Y-90.26
X94.465Y-85.835
X94.47Y-87.84
X94.52Y-95.36
X94.67Y-83.78
X96.01Y-99.365
X96.06Y-100.635
X96.64Y-95.79
X96.94Y-90.27
X98.35Y-85.33
X98.35Y-86.93
X98.37Y-88.64
X99.23Y-115.78
X99.56Y-92.52
X100.0Y-85.33
X100.0Y-86.98
X100.0Y-88.63
X100.49Y-115.92
X100.562Y-92.977
X100.59Y-105.02
X101.62Y-88.64
X101.65Y-85.33
X101.65Y-87.0
X101.7Y-93.12
X105.23Y-81.04
X105.355Y-89.035
X106.97Y-96.02
X109.74Y-88.3
X111.53Y-86.7
X112.1Y-105.65
X112.76Y-84.39
X113.12Y-81.65
X115.98Y-94.15
X116.34Y-97.56
X117.34Y-88.46
X118.31Y-91.19
X120.53Y-94.28
T2
X122.352Y-100.28
X122.352Y-102.78
X122.352Y-105.28
M30
