%TF.GenerationSoftware,KiCad,Pcbnew,8.99.0-3406-g49ffbf5b50*%
%TF.CreationDate,2025-01-20T10:30:06+05:30*%
%TF.ProjectId,knob,6b6e6f62-2e6b-4696-9361-645f70636258,rev?*%
%TF.SameCoordinates,Original*%
%TF.FileFunction,Soldermask,Top*%
%TF.FilePolarity,Negative*%
%FSLAX46Y46*%
G04 Gerber Fmt 4.6, Leading zero omitted, Abs format (unit mm)*
G04 Created by KiCad (PCBNEW 8.99.0-3406-g49ffbf5b50) date 2025-01-20 10:30:06*
%MOMM*%
%LPD*%
G01*
G04 APERTURE LIST*
G04 Aperture macros list*
%AMRoundRect*
0 Rectangle with rounded corners*
0 $1 Rounding radius*
0 $2 $3 $4 $5 $6 $7 $8 $9 X,Y pos of 4 corners*
0 Add a 4 corners polygon primitive as box body*
4,1,4,$2,$3,$4,$5,$6,$7,$8,$9,$2,$3,0*
0 Add four circle primitives for the rounded corners*
1,1,$1+$1,$2,$3*
1,1,$1+$1,$4,$5*
1,1,$1+$1,$6,$7*
1,1,$1+$1,$8,$9*
0 Add four rect primitives between the rounded corners*
20,1,$1+$1,$2,$3,$4,$5,0*
20,1,$1+$1,$4,$5,$6,$7,0*
20,1,$1+$1,$6,$7,$8,$9,0*
20,1,$1+$1,$8,$9,$2,$3,0*%
%AMOutline5P*
0 Free polygon, 5 corners , with rotation*
0 The origin of the aperture is its center*
0 number of corners: always 5*
0 $1 to $10 corner X, Y*
0 $11 Rotation angle, in degrees counterclockwise*
0 create outline with 5 corners*
4,1,5,$1,$2,$3,$4,$5,$6,$7,$8,$9,$10,$1,$2,$11*%
%AMOutline6P*
0 Free polygon, 6 corners , with rotation*
0 The origin of the aperture is its center*
0 number of corners: always 6*
0 $1 to $12 corner X, Y*
0 $13 Rotation angle, in degrees counterclockwise*
0 create outline with 6 corners*
4,1,6,$1,$2,$3,$4,$5,$6,$7,$8,$9,$10,$11,$12,$1,$2,$13*%
%AMOutline7P*
0 Free polygon, 7 corners , with rotation*
0 The origin of the aperture is its center*
0 number of corners: always 7*
0 $1 to $14 corner X, Y*
0 $15 Rotation angle, in degrees counterclockwise*
0 create outline with 7 corners*
4,1,7,$1,$2,$3,$4,$5,$6,$7,$8,$9,$10,$11,$12,$13,$14,$1,$2,$15*%
%AMOutline8P*
0 Free polygon, 8 corners , with rotation*
0 The origin of the aperture is its center*
0 number of corners: always 8*
0 $1 to $16 corner X, Y*
0 $17 Rotation angle, in degrees counterclockwise*
0 create outline with 8 corners*
4,1,8,$1,$2,$3,$4,$5,$6,$7,$8,$9,$10,$11,$12,$13,$14,$15,$16,$1,$2,$17*%
G04 Aperture macros list end*
%ADD10RoundRect,0.250000X0.350000X0.450000X-0.350000X0.450000X-0.350000X-0.450000X0.350000X-0.450000X0*%
%ADD11RoundRect,0.102000X0.700000X-0.300000X0.700000X0.300000X-0.700000X0.300000X-0.700000X-0.300000X0*%
%ADD12RoundRect,0.250000X-0.475000X0.250000X-0.475000X-0.250000X0.475000X-0.250000X0.475000X0.250000X0*%
%ADD13RoundRect,0.250000X0.475000X-0.250000X0.475000X0.250000X-0.475000X0.250000X-0.475000X-0.250000X0*%
%ADD14R,0.800000X0.400000*%
%ADD15R,0.400000X0.800000*%
%ADD16Outline5P,-0.600000X0.204000X-0.204000X0.600000X0.600000X0.600000X0.600000X-0.600000X-0.600000X-0.600000X0.000000*%
%ADD17R,1.200000X1.200000*%
%ADD18R,0.800000X0.800000*%
%ADD19RoundRect,0.250000X-0.250000X-0.475000X0.250000X-0.475000X0.250000X0.475000X-0.250000X0.475000X0*%
%ADD20RoundRect,0.250000X0.250000X0.475000X-0.250000X0.475000X-0.250000X-0.475000X0.250000X-0.475000X0*%
%ADD21RoundRect,0.102000X-0.140000X0.395000X-0.140000X-0.395000X0.140000X-0.395000X0.140000X0.395000X0*%
%ADD22RoundRect,0.102000X-0.395000X0.140000X-0.395000X-0.140000X0.395000X-0.140000X0.395000X0.140000X0*%
%ADD23RoundRect,0.150000X0.825000X0.150000X-0.825000X0.150000X-0.825000X-0.150000X0.825000X-0.150000X0*%
%ADD24RoundRect,0.250000X-0.725000X0.600000X-0.725000X-0.600000X0.725000X-0.600000X0.725000X0.600000X0*%
%ADD25O,1.950000X1.700000*%
G04 APERTURE END LIST*
D10*
%TO.C,R11*%
X86500000Y-88910000D03*
X84500000Y-88910000D03*
%TD*%
D11*
%TO.C,U2*%
X102700000Y-101905000D03*
X102700000Y-100635000D03*
X102700000Y-99365000D03*
X102700000Y-98095000D03*
X97300000Y-98095000D03*
X97300000Y-99365000D03*
X97300000Y-100635000D03*
X97300000Y-101905000D03*
%TD*%
D12*
%TO.C,C1*%
X106000000Y-98095000D03*
X106000000Y-99995000D03*
%TD*%
D13*
%TO.C,C9*%
X80890000Y-94650000D03*
X80890000Y-92750000D03*
%TD*%
D14*
%TO.C,U1*%
X93000000Y-81030000D03*
X93000000Y-81880000D03*
X93000000Y-82730000D03*
X93000000Y-83580000D03*
X93000000Y-84430000D03*
X93000000Y-85280000D03*
X93000000Y-86130000D03*
X93000000Y-86980000D03*
X93000000Y-87830000D03*
X93000000Y-88680000D03*
X93000000Y-89530000D03*
X93000000Y-90380000D03*
X93000000Y-91230000D03*
X93000000Y-92080000D03*
X93000000Y-92930000D03*
D15*
X94050000Y-93980000D03*
X94900000Y-93980000D03*
X95750000Y-93980000D03*
X96600000Y-93980000D03*
X97450000Y-93980000D03*
X98300000Y-93980000D03*
X99150000Y-93980000D03*
X100000000Y-93980000D03*
X100850000Y-93980000D03*
X101700000Y-93980000D03*
X102550000Y-93980000D03*
X103400000Y-93980000D03*
X104250000Y-93980000D03*
X105100000Y-93980000D03*
X105950000Y-93980000D03*
D14*
X107000000Y-92930000D03*
X107000000Y-92080000D03*
X107000000Y-91230000D03*
X107000000Y-90380000D03*
X107000000Y-89530000D03*
X107000000Y-88680000D03*
X107000000Y-87830000D03*
X107000000Y-86980000D03*
X107000000Y-86130000D03*
X107000000Y-85280000D03*
X107000000Y-84430000D03*
X107000000Y-83580000D03*
X107000000Y-82730000D03*
X107000000Y-81880000D03*
X107000000Y-81030000D03*
D15*
X105950000Y-79980000D03*
X105100000Y-79980000D03*
X104250000Y-79980000D03*
X103400000Y-79980000D03*
X102550000Y-79980000D03*
X101700000Y-79980000D03*
X100850000Y-79980000D03*
X100000000Y-79980000D03*
X99150000Y-79980000D03*
X98300000Y-79980000D03*
X97450000Y-79980000D03*
X96600000Y-79980000D03*
X95750000Y-79980000D03*
X94900000Y-79980000D03*
X94050000Y-79980000D03*
D16*
X98350000Y-85330000D03*
D17*
X98350000Y-86980000D03*
X98350000Y-88630000D03*
X100000000Y-85330000D03*
X100000000Y-86980000D03*
X100000000Y-88630000D03*
X101650000Y-85330000D03*
X101650000Y-86980000D03*
X101650000Y-88630000D03*
D18*
X93000000Y-79980000D03*
X93000000Y-93980000D03*
X107000000Y-93980000D03*
X107000000Y-79980000D03*
%TD*%
D19*
%TO.C,C8*%
X87650000Y-96210000D03*
X89550000Y-96210000D03*
%TD*%
D20*
%TO.C,C5*%
X88500000Y-118740000D03*
X86600000Y-118740000D03*
%TD*%
D10*
%TO.C,R12*%
X86510000Y-87010000D03*
X84510000Y-87010000D03*
%TD*%
D21*
%TO.C,U5*%
X86750000Y-90570000D03*
X86250000Y-90570000D03*
X85750000Y-90570000D03*
X85250000Y-90570000D03*
X84750000Y-90570000D03*
X84250000Y-90570000D03*
D22*
X83530000Y-91290000D03*
X83530000Y-91790000D03*
X83530000Y-92290000D03*
X83530000Y-92790000D03*
X83530000Y-93290000D03*
X83530000Y-93790000D03*
D21*
X84250000Y-94510000D03*
X84750000Y-94510000D03*
X85250000Y-94510000D03*
X85750000Y-94510000D03*
X86250000Y-94510000D03*
X86750000Y-94510000D03*
D22*
X87470000Y-93790000D03*
X87470000Y-93290000D03*
X87470000Y-92790000D03*
X87470000Y-92290000D03*
X87470000Y-91790000D03*
X87470000Y-91290000D03*
%TD*%
D23*
%TO.C,U4*%
X90085000Y-116885000D03*
X90085000Y-115615000D03*
X90085000Y-114345000D03*
X90085000Y-113075000D03*
X90085000Y-111805000D03*
X90085000Y-110535000D03*
X90085000Y-109265000D03*
X90085000Y-107995000D03*
X85135000Y-107995000D03*
X85135000Y-109265000D03*
X85135000Y-110535000D03*
X85135000Y-111805000D03*
X85135000Y-113075000D03*
X85135000Y-114345000D03*
X85135000Y-115615000D03*
X85135000Y-116885000D03*
%TD*%
D13*
%TO.C,C10*%
X80890000Y-91220000D03*
X80890000Y-89320000D03*
%TD*%
D24*
%TO.C,J3*%
X122352500Y-100280000D03*
D25*
X122352500Y-102780000D03*
X122352500Y-105280000D03*
%TD*%
M02*
